<?xml version="1.0" encoding="UTF-8" standalone="no"?>
<!DOCTYPE svg PUBLIC "-//W3C//DTD SVG 1.1//EN"
 "http://www.w3.org/Graphics/SVG/1.1/DTD/svg11.dtd">
<!-- Generated by graphviz version 2.43.0 (0)
 -->
<!-- Title: InitialConditions.h Pages: 1 -->
<svg width="6203pt" height="207pt"
 viewBox="0.00 0.00 6203.00 207.00" xmlns="http://www.w3.org/2000/svg" xmlns:xlink="http://www.w3.org/1999/xlink">
<g id="graph0" class="graph" transform="scale(1 1) rotate(0) translate(4 203)">
<title>InitialConditions.h</title>
<polygon fill="white" stroke="transparent" points="-4,4 -4,-203 6199,-203 6199,4 -4,4"/>
<!-- Node1 -->
<g id="node1" class="node">
<title>Node1</title>
<g id="a_node1"><a xlink:title=" ">
<polygon fill="#bfbfbf" stroke="black" points="4948.5,-179.5 4948.5,-198.5 5053.5,-198.5 5053.5,-179.5 4948.5,-179.5"/>
<text text-anchor="middle" x="5001" y="-186.5" font-family="Helvetica,sans-Serif" font-size="10.00">InitialConditions.h</text>
</a>
</g>
</g>
<!-- Node2 -->
<g id="node2" class="node">
<title>Node2</title>
<g id="a_node2"><a xlink:href="_nalu_parsing_8h.html" target="_top" xlink:title=" ">
<polygon fill="white" stroke="red" points="2719.5,-123.5 2719.5,-142.5 2802.5,-142.5 2802.5,-123.5 2719.5,-123.5"/>
<text text-anchor="middle" x="2761" y="-130.5" font-family="Helvetica,sans-Serif" font-size="10.00">NaluParsing.h</text>
</a>
</g>
</g>
<!-- Node1&#45;&gt;Node2 -->
<g id="edge1" class="edge">
<title>Node1&#45;&gt;Node2</title>
<path fill="none" stroke="midnightblue" d="M4938.04,-186.48C4607.4,-178.51 3076.5,-141.61 2802.91,-135.01"/>
<polygon fill="midnightblue" stroke="midnightblue" points="4938.3,-189.99 4948.38,-186.73 4938.47,-182.99 4938.3,-189.99"/>
</g>
<!-- Node22 -->
<g id="node20" class="node">
<title>Node22</title>
<g id="a_node20"><a xlink:href="_equation_system_8_c.html" target="_top" xlink:title=" ">
<polygon fill="white" stroke="black" points="5965,-62 5965,-81 6071,-81 6071,-62 5965,-62"/>
<text text-anchor="middle" x="6018" y="-69" font-family="Helvetica,sans-Serif" font-size="10.00">EquationSystem.C</text>
</a>
</g>
</g>
<!-- Node1&#45;&gt;Node22 -->
<g id="edge70" class="edge">
<title>Node1&#45;&gt;Node22</title>
<path fill="none" stroke="midnightblue" d="M5063.64,-183.68C5216.15,-172.64 5618.64,-140.47 5951,-87 5961.11,-85.37 5971.98,-83.2 5981.97,-81.04"/>
<polygon fill="midnightblue" stroke="midnightblue" points="5063.25,-180.2 5053.53,-184.4 5063.75,-187.18 5063.25,-180.2"/>
</g>
<!-- Node25 -->
<g id="node23" class="node">
<title>Node25</title>
<g id="a_node23"><a xlink:href="_initial_conditions_8_c.html" target="_top" xlink:title=" ">
<polygon fill="white" stroke="black" points="6089,-62 6089,-81 6195,-81 6195,-62 6089,-62"/>
<text text-anchor="middle" x="6142" y="-69" font-family="Helvetica,sans-Serif" font-size="10.00">InitialConditions.C</text>
</a>
</g>
</g>
<!-- Node1&#45;&gt;Node25 -->
<g id="edge71" class="edge">
<title>Node1&#45;&gt;Node25</title>
<path fill="none" stroke="midnightblue" d="M5063.7,-185.78C5230.34,-179.08 5697.65,-155.2 6080,-87 6089.25,-85.35 6099.19,-83.2 6108.35,-81.06"/>
<polygon fill="midnightblue" stroke="midnightblue" points="5063.48,-182.28 5053.63,-186.17 5063.76,-189.28 5063.48,-182.28"/>
</g>
<!-- Node67 -->
<g id="node50" class="node">
<title>Node67</title>
<g id="a_node50"><a xlink:href="_realm_8h.html" target="_top" xlink:title=" ">
<polygon fill="white" stroke="red" points="4944.5,-123.5 4944.5,-142.5 5001.5,-142.5 5001.5,-123.5 4944.5,-123.5"/>
<text text-anchor="middle" x="4973" y="-130.5" font-family="Helvetica,sans-Serif" font-size="10.00">Realm.h</text>
</a>
</g>
</g>
<!-- Node1&#45;&gt;Node67 -->
<g id="edge51" class="edge">
<title>Node1&#45;&gt;Node67</title>
<path fill="none" stroke="midnightblue" d="M4991.66,-169.98C4986.91,-160.82 4981.34,-150.09 4977.54,-142.75"/>
<polygon fill="midnightblue" stroke="midnightblue" points="4988.67,-171.82 4996.38,-179.08 4994.88,-168.59 4988.67,-171.82"/>
</g>
<!-- Node3 -->
<g id="node3" class="node">
<title>Node3</title>
<g id="a_node3"><a xlink:href="_actuator_info_8h.html" target="_top" xlink:title=" ">
<polygon fill="white" stroke="red" points="1134,-62 1134,-81 1220,-81 1220,-62 1134,-62"/>
<text text-anchor="middle" x="1177" y="-69" font-family="Helvetica,sans-Serif" font-size="10.00">ActuatorInfo.h</text>
</a>
</g>
</g>
<!-- Node2&#45;&gt;Node3 -->
<g id="edge2" class="edge">
<title>Node2&#45;&gt;Node3</title>
<path fill="none" stroke="midnightblue" d="M2708.97,-132C2476.09,-131.76 1528.08,-128.23 1234,-87 1224.6,-85.68 1214.5,-83.41 1205.46,-81.05"/>
<polygon fill="midnightblue" stroke="midnightblue" points="2709.19,-135.5 2719.19,-132.01 2709.2,-128.5 2709.19,-135.5"/>
</g>
<!-- Node5 -->
<g id="node4" class="node">
<title>Node5</title>
<g id="a_node4"><a xlink:href="_actuator_parsing_8_c.html" target="_top" xlink:title=" ">
<polygon fill="white" stroke="black" points="1161.5,-0.5 1161.5,-19.5 1264.5,-19.5 1264.5,-0.5 1161.5,-0.5"/>
<text text-anchor="middle" x="1213" y="-7.5" font-family="Helvetica,sans-Serif" font-size="10.00">ActuatorParsing.C</text>
</a>
</g>
</g>
<!-- Node2&#45;&gt;Node5 -->
<g id="edge8" class="edge">
<title>Node2&#45;&gt;Node5</title>
<path fill="none" stroke="midnightblue" d="M2709.01,-131.73C2452.52,-130.23 1331.8,-121.7 1267,-87 1239.32,-72.18 1222.58,-36.18 1216.1,-19.61"/>
<polygon fill="midnightblue" stroke="midnightblue" points="2709.15,-135.23 2719.17,-131.79 2709.19,-128.23 2709.15,-135.23"/>
</g>
<!-- Node6 -->
<g id="node5" class="node">
<title>Node6</title>
<g id="a_node5"><a xlink:href="_hypre_n_g_p_8h.html" target="_top" xlink:title=" ">
<polygon fill="white" stroke="black" points="1406,-62 1406,-81 1480,-81 1480,-62 1406,-62"/>
<text text-anchor="middle" x="1443" y="-69" font-family="Helvetica,sans-Serif" font-size="10.00">HypreNGP.h</text>
</a>
</g>
</g>
<!-- Node2&#45;&gt;Node6 -->
<g id="edge4" class="edge">
<title>Node2&#45;&gt;Node6</title>
<path fill="none" stroke="midnightblue" d="M2708.95,-131.82C2501.59,-130.87 1733.89,-124.79 1494,-87 1485.54,-85.67 1476.5,-83.39 1468.41,-81.03"/>
<polygon fill="midnightblue" stroke="midnightblue" points="2709.24,-135.33 2719.26,-131.87 2709.27,-128.33 2709.24,-135.33"/>
</g>
<!-- Node7 -->
<g id="node6" class="node">
<title>Node7</title>
<g id="a_node6"><a xlink:href="_a_b_l_wall_fluxes_alg_8h.html" target="_top" xlink:title=" ">
<polygon fill="white" stroke="red" points="1276,-62 1276,-81 1388,-81 1388,-62 1276,-62"/>
<text text-anchor="middle" x="1332" y="-69" font-family="Helvetica,sans-Serif" font-size="10.00">ABLWallFluxesAlg.h</text>
</a>
</g>
</g>
<!-- Node2&#45;&gt;Node7 -->
<g id="edge5" class="edge">
<title>Node2&#45;&gt;Node7</title>
<path fill="none" stroke="midnightblue" d="M2709.35,-131.58C2492.9,-129.65 1658.04,-120.13 1397,-87 1386.33,-85.65 1374.84,-83.36 1364.52,-81"/>
<polygon fill="midnightblue" stroke="midnightblue" points="2709.45,-135.09 2719.48,-131.67 2709.51,-128.09 2709.45,-135.09"/>
</g>
<!-- Node8 -->
<g id="node7" class="node">
<title>Node8</title>
<g id="a_node7"><a xlink:href="_low_mach_equation_system_8_c.html" target="_top" xlink:title=" ">
<polygon fill="white" stroke="black" points="1432,-0.5 1432,-19.5 1584,-19.5 1584,-0.5 1432,-0.5"/>
<text text-anchor="middle" x="1508" y="-7.5" font-family="Helvetica,sans-Serif" font-size="10.00">LowMachEquationSystem.C</text>
</a>
</g>
</g>
<!-- Node2&#45;&gt;Node8 -->
<g id="edge27" class="edge">
<title>Node2&#45;&gt;Node8</title>
<path fill="none" stroke="midnightblue" d="M2709.21,-131.83C2480.9,-130.89 1573.57,-124.74 1527,-87 1506.71,-70.56 1506.17,-36.03 1507.17,-19.79"/>
<polygon fill="midnightblue" stroke="midnightblue" points="2709.23,-135.33 2719.25,-131.87 2709.26,-128.33 2709.23,-135.33"/>
</g>
<!-- Node10 -->
<g id="node8" class="node">
<title>Node10</title>
<g id="a_node8"><a xlink:href="_actuator_model_8_c.html" target="_top" xlink:title=" ">
<polygon fill="white" stroke="black" points="1536,-62 1536,-81 1634,-81 1634,-62 1536,-62"/>
<text text-anchor="middle" x="1585" y="-69" font-family="Helvetica,sans-Serif" font-size="10.00">ActuatorModel.C</text>
</a>
</g>
</g>
<!-- Node2&#45;&gt;Node10 -->
<g id="edge7" class="edge">
<title>Node2&#45;&gt;Node10</title>
<path fill="none" stroke="midnightblue" d="M2709.21,-131.32C2518.13,-128.6 1852.93,-117.14 1643,-87 1633.55,-85.64 1623.4,-83.39 1614.27,-81.06"/>
<polygon fill="midnightblue" stroke="midnightblue" points="2709.22,-134.82 2719.27,-131.46 2709.32,-127.82 2709.22,-134.82"/>
</g>
<!-- Node11 -->
<g id="node9" class="node">
<title>Node11</title>
<g id="a_node9"><a xlink:href="_actuator_parsing_f_a_s_t_8_c.html" target="_top" xlink:title=" ">
<polygon fill="white" stroke="black" points="1652.5,-62 1652.5,-81 1777.5,-81 1777.5,-62 1652.5,-62"/>
<text text-anchor="middle" x="1715" y="-69" font-family="Helvetica,sans-Serif" font-size="10.00">ActuatorParsingFAST.C</text>
</a>
</g>
</g>
<!-- Node2&#45;&gt;Node11 -->
<g id="edge9" class="edge">
<title>Node2&#45;&gt;Node11</title>
<path fill="none" stroke="midnightblue" d="M2709.03,-132.43C2562.99,-133.04 2136.65,-130.63 1786,-87 1774.64,-85.59 1762.38,-83.35 1751.31,-81.04"/>
<polygon fill="midnightblue" stroke="midnightblue" points="2709.48,-135.93 2719.47,-132.38 2709.45,-128.93 2709.48,-135.93"/>
</g>
<!-- Node12 -->
<g id="node10" class="node">
<title>Node12</title>
<g id="a_node10"><a xlink:href="_actuator_parsing_simple_8_c.html" target="_top" xlink:title=" ">
<polygon fill="white" stroke="black" points="1795.5,-62 1795.5,-81 1932.5,-81 1932.5,-62 1795.5,-62"/>
<text text-anchor="middle" x="1864" y="-69" font-family="Helvetica,sans-Serif" font-size="10.00">ActuatorParsingSimple.C</text>
</a>
</g>
</g>
<!-- Node2&#45;&gt;Node12 -->
<g id="edge10" class="edge">
<title>Node2&#45;&gt;Node12</title>
<path fill="none" stroke="midnightblue" d="M2709.41,-131.52C2579.76,-129.79 2230.06,-121.99 1941,-87 1928.85,-85.53 1915.72,-83.3 1903.81,-81.03"/>
<polygon fill="midnightblue" stroke="midnightblue" points="2709.4,-135.02 2719.45,-131.64 2709.49,-128.02 2709.4,-135.02"/>
</g>
<!-- Node13 -->
<g id="node11" class="node">
<title>Node13</title>
<g id="a_node11"><a xlink:href="_utilities_actuator_8_c.html" target="_top" xlink:title=" ">
<polygon fill="white" stroke="black" points="1950.5,-62 1950.5,-81 2055.5,-81 2055.5,-62 1950.5,-62"/>
<text text-anchor="middle" x="2003" y="-69" font-family="Helvetica,sans-Serif" font-size="10.00">UtilitiesActuator.C</text>
</a>
</g>
</g>
<!-- Node2&#45;&gt;Node13 -->
<g id="edge11" class="edge">
<title>Node2&#45;&gt;Node13</title>
<path fill="none" stroke="midnightblue" d="M2709.48,-131.64C2593.54,-130.19 2303.5,-122.93 2064,-87 2054.31,-85.55 2043.9,-83.32 2034.46,-81.05"/>
<polygon fill="midnightblue" stroke="midnightblue" points="2709.46,-135.14 2719.5,-131.76 2709.54,-128.14 2709.46,-135.14"/>
</g>
<!-- Node14 -->
<g id="node12" class="node">
<title>Node14</title>
<g id="a_node12"><a xlink:href="_f_s_iturbine_8_c.html" target="_top" xlink:title=" ">
<polygon fill="white" stroke="black" points="2073.5,-62 2073.5,-81 2148.5,-81 2148.5,-62 2073.5,-62"/>
<text text-anchor="middle" x="2111" y="-69" font-family="Helvetica,sans-Serif" font-size="10.00">FSIturbine.C</text>
</a>
</g>
</g>
<!-- Node2&#45;&gt;Node14 -->
<g id="edge12" class="edge">
<title>Node2&#45;&gt;Node14</title>
<path fill="none" stroke="midnightblue" d="M2709.16,-132.15C2604.04,-131.57 2358.62,-125.75 2157,-87 2149.6,-85.58 2141.72,-83.36 2134.61,-81.09"/>
<polygon fill="midnightblue" stroke="midnightblue" points="2709.18,-135.65 2719.19,-132.19 2709.21,-128.65 2709.18,-135.65"/>
</g>
<!-- Node15 -->
<g id="node13" class="node">
<title>Node15</title>
<g id="a_node13"><a xlink:href="_openfast_f_s_i_8_c.html" target="_top" xlink:title=" ">
<polygon fill="white" stroke="black" points="2166.5,-62 2166.5,-81 2251.5,-81 2251.5,-62 2166.5,-62"/>
<text text-anchor="middle" x="2209" y="-69" font-family="Helvetica,sans-Serif" font-size="10.00">OpenfastFSI.C</text>
</a>
</g>
</g>
<!-- Node2&#45;&gt;Node15 -->
<g id="edge13" class="edge">
<title>Node2&#45;&gt;Node15</title>
<path fill="none" stroke="midnightblue" d="M2709.43,-130.45C2618.28,-127.03 2423.01,-116.62 2261,-87 2252.79,-85.5 2244.01,-83.29 2236.04,-81.05"/>
<polygon fill="midnightblue" stroke="midnightblue" points="2709.38,-133.95 2719.5,-130.82 2709.63,-126.96 2709.38,-133.95"/>
</g>
<!-- Node16 -->
<g id="node14" class="node">
<title>Node16</title>
<g id="a_node14"><a xlink:href="_averaging_info_8_c.html" target="_top" xlink:title=" ">
<polygon fill="white" stroke="black" points="2270,-62 2270,-81 2364,-81 2364,-62 2270,-62"/>
<text text-anchor="middle" x="2317" y="-69" font-family="Helvetica,sans-Serif" font-size="10.00">AveragingInfo.C</text>
</a>
</g>
</g>
<!-- Node2&#45;&gt;Node16 -->
<g id="edge14" class="edge">
<title>Node2&#45;&gt;Node16</title>
<path fill="none" stroke="midnightblue" d="M2709.29,-128.28C2634.6,-122.4 2492.38,-109.27 2373,-87 2364.41,-85.4 2355.19,-83.21 2346.76,-81.02"/>
<polygon fill="midnightblue" stroke="midnightblue" points="2709.13,-131.78 2719.37,-129.07 2709.67,-124.8 2709.13,-131.78"/>
</g>
<!-- Node17 -->
<g id="node15" class="node">
<title>Node17</title>
<g id="a_node15"><a xlink:href="_boundary_conditions_8_c.html" target="_top" xlink:title=" ">
<polygon fill="white" stroke="black" points="2382.5,-62 2382.5,-81 2507.5,-81 2507.5,-62 2382.5,-62"/>
<text text-anchor="middle" x="2445" y="-69" font-family="Helvetica,sans-Serif" font-size="10.00">BoundaryConditions.C</text>
</a>
</g>
</g>
<!-- Node2&#45;&gt;Node17 -->
<g id="edge15" class="edge">
<title>Node2&#45;&gt;Node17</title>
<path fill="none" stroke="midnightblue" d="M2708.95,-122.66C2659.52,-113.72 2583.14,-99.76 2517,-87 2507.23,-85.12 2496.74,-83.03 2486.86,-81.05"/>
<polygon fill="midnightblue" stroke="midnightblue" points="2708.62,-126.15 2719.08,-124.48 2709.86,-119.26 2708.62,-126.15"/>
</g>
<!-- Node18 -->
<g id="node16" class="node">
<title>Node18</title>
<g id="a_node16"><a xlink:href="_chien_k_epsilon_equation_system_8_c.html" target="_top" xlink:title=" ">
<polygon fill="white" stroke="black" points="5388,-62 5388,-81 5564,-81 5564,-62 5388,-62"/>
<text text-anchor="middle" x="5476" y="-69" font-family="Helvetica,sans-Serif" font-size="10.00">ChienKEpsilonEquationSystem.C</text>
</a>
</g>
</g>
<!-- Node2&#45;&gt;Node18 -->
<g id="edge16" class="edge">
<title>Node2&#45;&gt;Node18</title>
<path fill="none" stroke="midnightblue" d="M2812.92,-132.04C3134.15,-132.13 4854.07,-130.56 5379,-87 5394.78,-85.69 5411.9,-83.42 5427.3,-81.06"/>
<polygon fill="midnightblue" stroke="midnightblue" points="2812.52,-128.54 2802.52,-132.03 2812.52,-135.54 2812.52,-128.54"/>
</g>
<!-- Node19 -->
<g id="node17" class="node">
<title>Node19</title>
<g id="a_node17"><a xlink:href="_compute_wall_friction_velocity_algorithm_8_c.html" target="_top" xlink:title=" ">
<polygon fill="white" stroke="black" points="5582.5,-56.5 5582.5,-86.5 5739.5,-86.5 5739.5,-56.5 5582.5,-56.5"/>
<text text-anchor="start" x="5590.5" y="-74.5" font-family="Helvetica,sans-Serif" font-size="10.00">ComputeWallFrictionVelocity</text>
<text text-anchor="middle" x="5661" y="-63.5" font-family="Helvetica,sans-Serif" font-size="10.00">Algorithm.C</text>
</a>
</g>
</g>
<!-- Node2&#45;&gt;Node19 -->
<g id="edge17" class="edge">
<title>Node2&#45;&gt;Node19</title>
<path fill="none" stroke="midnightblue" d="M2813.02,-132.22C3148.19,-133.44 5007.44,-137.84 5573,-87 5576.08,-86.72 5579.22,-86.4 5582.39,-86.04"/>
<polygon fill="midnightblue" stroke="midnightblue" points="2812.65,-128.71 2802.64,-132.18 2812.63,-135.71 2812.65,-128.71"/>
</g>
<!-- Node20 -->
<g id="node18" class="node">
<title>Node20</title>
<g id="a_node18"><a xlink:href="_data_probe_post_processing_8_c.html" target="_top" xlink:title=" ">
<polygon fill="white" stroke="black" points="5757.5,-62 5757.5,-81 5908.5,-81 5908.5,-62 5757.5,-62"/>
<text text-anchor="middle" x="5833" y="-69" font-family="Helvetica,sans-Serif" font-size="10.00">DataProbePostProcessing.C</text>
</a>
</g>
</g>
<!-- Node2&#45;&gt;Node20 -->
<g id="edge18" class="edge">
<title>Node2&#45;&gt;Node20</title>
<path fill="none" stroke="midnightblue" d="M2812.8,-131.7C3184.93,-129.49 5444.84,-114.97 5748,-87 5762.01,-85.71 5777.19,-83.41 5790.8,-81.02"/>
<polygon fill="midnightblue" stroke="midnightblue" points="2812.57,-128.2 2802.59,-131.76 2812.61,-135.2 2812.57,-128.2"/>
</g>
<!-- Node21 -->
<g id="node19" class="node">
<title>Node21</title>
<g id="a_node19"><a xlink:href="_enthalpy_equation_system_8_c.html" target="_top" xlink:title=" ">
<polygon fill="white" stroke="black" points="3660.5,-62 3660.5,-81 3809.5,-81 3809.5,-62 3660.5,-62"/>
<text text-anchor="middle" x="3735" y="-69" font-family="Helvetica,sans-Serif" font-size="10.00">EnthalpyEquationSystem.C</text>
</a>
</g>
</g>
<!-- Node2&#45;&gt;Node21 -->
<g id="edge19" class="edge">
<title>Node2&#45;&gt;Node21</title>
<path fill="none" stroke="midnightblue" d="M2813.08,-131.55C2950.49,-129.9 3334.05,-122.24 3651,-87 3664.24,-85.53 3678.55,-83.3 3691.54,-81.03"/>
<polygon fill="midnightblue" stroke="midnightblue" points="2812.81,-128.06 2802.85,-131.67 2812.89,-135.06 2812.81,-128.06"/>
</g>
<!-- Node2&#45;&gt;Node22 -->
<g id="edge20" class="edge">
<title>Node2&#45;&gt;Node22</title>
<path fill="none" stroke="midnightblue" d="M2812.75,-132.18C3170.32,-133.31 5278.66,-137.69 5918,-87 5934.44,-85.7 5952.29,-83.4 5968.3,-81"/>
<polygon fill="midnightblue" stroke="midnightblue" points="2812.7,-128.68 2802.69,-132.15 2812.68,-135.68 2812.7,-128.68"/>
</g>
<!-- Node23 -->
<g id="node21" class="node">
<title>Node23</title>
<g id="a_node21"><a xlink:href="_equation_systems_8_c.html" target="_top" xlink:title=" ">
<polygon fill="white" stroke="black" points="3827.5,-62 3827.5,-81 3938.5,-81 3938.5,-62 3827.5,-62"/>
<text text-anchor="middle" x="3883" y="-69" font-family="Helvetica,sans-Serif" font-size="10.00">EquationSystems.C</text>
</a>
</g>
</g>
<!-- Node2&#45;&gt;Node23 -->
<g id="edge21" class="edge">
<title>Node2&#45;&gt;Node23</title>
<path fill="none" stroke="midnightblue" d="M2812.96,-131.01C2997.41,-127.29 3620.28,-113.05 3818,-87 3828.55,-85.61 3839.91,-83.35 3850.13,-81.02"/>
<polygon fill="midnightblue" stroke="midnightblue" points="2812.64,-127.51 2802.72,-131.21 2812.78,-134.51 2812.64,-127.51"/>
</g>
<!-- Node24 -->
<g id="node22" class="node">
<title>Node24</title>
<g id="a_node22"><a xlink:href="_gamma_equation_system_8_c.html" target="_top" xlink:title=" ">
<polygon fill="white" stroke="black" points="3956.5,-62 3956.5,-81 4101.5,-81 4101.5,-62 3956.5,-62"/>
<text text-anchor="middle" x="4029" y="-69" font-family="Helvetica,sans-Serif" font-size="10.00">GammaEquationSystem.C</text>
</a>
</g>
</g>
<!-- Node2&#45;&gt;Node24 -->
<g id="edge22" class="edge">
<title>Node2&#45;&gt;Node24</title>
<path fill="none" stroke="midnightblue" d="M2813.04,-132.56C2979,-133.82 3510.45,-133.66 3947,-87 3960.08,-85.6 3974.22,-83.37 3987.02,-81.06"/>
<polygon fill="midnightblue" stroke="midnightblue" points="2812.67,-129.06 2802.64,-132.48 2812.61,-136.06 2812.67,-129.06"/>
</g>
<!-- Node2&#45;&gt;Node25 -->
<g id="edge23" class="edge">
<title>Node2&#45;&gt;Node25</title>
<path fill="none" stroke="midnightblue" d="M2812.87,-131.97C3208.49,-131.69 5742.64,-128.24 6080,-87 6090.31,-85.74 6101.41,-83.45 6111.33,-81.06"/>
<polygon fill="midnightblue" stroke="midnightblue" points="2812.58,-128.47 2802.59,-131.98 2812.59,-135.47 2812.58,-128.47"/>
</g>
<!-- Node26 -->
<g id="node24" class="node">
<title>Node26</title>
<g id="a_node24"><a xlink:href="_input_output_realm_8_c.html" target="_top" xlink:title=" ">
<polygon fill="white" stroke="black" points="4120,-62 4120,-81 4236,-81 4236,-62 4120,-62"/>
<text text-anchor="middle" x="4178" y="-69" font-family="Helvetica,sans-Serif" font-size="10.00">InputOutputRealm.C</text>
</a>
</g>
</g>
<!-- Node2&#45;&gt;Node26 -->
<g id="edge24" class="edge">
<title>Node2&#45;&gt;Node26</title>
<path fill="none" stroke="midnightblue" d="M2812.79,-131.5C3027.95,-129.22 3851.97,-118.56 4110,-87 4121.02,-85.65 4132.91,-83.4 4143.61,-81.07"/>
<polygon fill="midnightblue" stroke="midnightblue" points="2812.68,-128 2802.71,-131.6 2812.75,-135 2812.68,-128"/>
</g>
<!-- Node27 -->
<g id="node25" class="node">
<title>Node27</title>
<g id="a_node25"><a xlink:href="_linear_solver_config_8_c.html" target="_top" xlink:title=" ">
<polygon fill="white" stroke="black" points="2526,-62 2526,-81 2644,-81 2644,-62 2526,-62"/>
<text text-anchor="middle" x="2585" y="-69" font-family="Helvetica,sans-Serif" font-size="10.00">LinearSolverConfig.C</text>
</a>
</g>
</g>
<!-- Node2&#45;&gt;Node27 -->
<g id="edge25" class="edge">
<title>Node2&#45;&gt;Node27</title>
<path fill="none" stroke="midnightblue" d="M2726.19,-120.23C2691.98,-108.67 2640.6,-91.3 2610.17,-81.01"/>
<polygon fill="midnightblue" stroke="midnightblue" points="2725.19,-123.59 2735.78,-123.48 2727.43,-116.96 2725.19,-123.59"/>
</g>
<!-- Node28 -->
<g id="node26" class="node">
<title>Node28</title>
<g id="a_node26"><a xlink:href="_linear_solvers_8_c.html" target="_top" xlink:title=" ">
<polygon fill="white" stroke="black" points="2662,-62 2662,-81 2754,-81 2754,-62 2662,-62"/>
<text text-anchor="middle" x="2708" y="-69" font-family="Helvetica,sans-Serif" font-size="10.00">LinearSolvers.C</text>
</a>
</g>
</g>
<!-- Node2&#45;&gt;Node28 -->
<g id="edge26" class="edge">
<title>Node2&#45;&gt;Node28</title>
<path fill="none" stroke="midnightblue" d="M2746.75,-116C2736.71,-104.74 2723.68,-90.1 2715.58,-81.01"/>
<polygon fill="midnightblue" stroke="midnightblue" points="2744.14,-118.34 2753.41,-123.48 2749.37,-113.68 2744.14,-118.34"/>
</g>
<!-- Node29 -->
<g id="node27" class="node">
<title>Node29</title>
<g id="a_node27"><a xlink:href="_material_property_8_c.html" target="_top" xlink:title=" ">
<polygon fill="white" stroke="black" points="4254.5,-62 4254.5,-81 4361.5,-81 4361.5,-62 4254.5,-62"/>
<text text-anchor="middle" x="4308" y="-69" font-family="Helvetica,sans-Serif" font-size="10.00">MaterialProperty.C</text>
</a>
</g>
</g>
<!-- Node2&#45;&gt;Node29 -->
<g id="edge28" class="edge">
<title>Node2&#45;&gt;Node29</title>
<path fill="none" stroke="midnightblue" d="M2812.67,-131.79C3040.82,-130.66 3959.24,-123.86 4245,-87 4255.35,-85.66 4266.5,-83.39 4276.49,-81.03"/>
<polygon fill="midnightblue" stroke="midnightblue" points="2812.63,-128.29 2802.65,-131.84 2812.66,-135.29 2812.63,-128.29"/>
</g>
<!-- Node30 -->
<g id="node28" class="node">
<title>Node30</title>
<g id="a_node28"><a xlink:href="_material_propertys_8_c.html" target="_top" xlink:title=" ">
<polygon fill="white" stroke="black" points="4379.5,-62 4379.5,-81 4492.5,-81 4492.5,-62 4379.5,-62"/>
<text text-anchor="middle" x="4436" y="-69" font-family="Helvetica,sans-Serif" font-size="10.00">MaterialPropertys.C</text>
</a>
</g>
</g>
<!-- Node2&#45;&gt;Node30 -->
<g id="edge29" class="edge">
<title>Node2&#45;&gt;Node30</title>
<path fill="none" stroke="midnightblue" d="M2813.03,-131.86C3053.45,-131.02 4058.26,-125.26 4370,-87 4380.83,-85.67 4392.5,-83.39 4402.97,-81.03"/>
<polygon fill="midnightblue" stroke="midnightblue" points="2812.81,-128.36 2802.82,-131.9 2812.83,-135.36 2812.81,-128.36"/>
</g>
<!-- Node31 -->
<g id="node29" class="node">
<title>Node31</title>
<g id="a_node29"><a xlink:href="_matrix_free_heat_cond_equation_system_8_c.html" target="_top" xlink:title=" ">
<polygon fill="white" stroke="black" points="4511,-56.5 4511,-86.5 4671,-86.5 4671,-56.5 4511,-56.5"/>
<text text-anchor="start" x="4519" y="-74.5" font-family="Helvetica,sans-Serif" font-size="10.00">MatrixFreeHeatCondEquation</text>
<text text-anchor="middle" x="4591" y="-63.5" font-family="Helvetica,sans-Serif" font-size="10.00">System.C</text>
</a>
</g>
</g>
<!-- Node2&#45;&gt;Node31 -->
<g id="edge30" class="edge">
<title>Node2&#45;&gt;Node31</title>
<path fill="none" stroke="midnightblue" d="M2813.07,-131.59C3065.19,-129.49 4161,-118.64 4501,-87 4504.15,-86.71 4507.36,-86.37 4510.6,-86"/>
<polygon fill="midnightblue" stroke="midnightblue" points="2812.7,-128.1 2802.73,-131.68 2812.76,-135.1 2812.7,-128.1"/>
</g>
<!-- Node32 -->
<g id="node30" class="node">
<title>Node32</title>
<g id="a_node30"><a xlink:href="_matrix_free_low_mach_equation_system_8_c.html" target="_top" xlink:title=" ">
<polygon fill="white" stroke="black" points="4689,-56.5 4689,-86.5 4847,-86.5 4847,-56.5 4689,-56.5"/>
<text text-anchor="start" x="4697" y="-74.5" font-family="Helvetica,sans-Serif" font-size="10.00">MatrixFreeLowMachEquation</text>
<text text-anchor="middle" x="4768" y="-63.5" font-family="Helvetica,sans-Serif" font-size="10.00">System.C</text>
</a>
</g>
</g>
<!-- Node2&#45;&gt;Node32 -->
<g id="edge31" class="edge">
<title>Node2&#45;&gt;Node32</title>
<path fill="none" stroke="midnightblue" d="M2812.73,-131.77C3079.55,-130.41 4302.44,-122.36 4680,-87 4682.93,-86.73 4685.91,-86.41 4688.91,-86.07"/>
<polygon fill="midnightblue" stroke="midnightblue" points="2812.53,-128.27 2802.55,-131.82 2812.56,-135.27 2812.53,-128.27"/>
</g>
<!-- Node33 -->
<g id="node31" class="node">
<title>Node33</title>
<g id="a_node31"><a xlink:href="_frame_base_8_c.html" target="_top" xlink:title=" ">
<polygon fill="white" stroke="black" points="2772.5,-62 2772.5,-81 2853.5,-81 2853.5,-62 2772.5,-62"/>
<text text-anchor="middle" x="2813" y="-69" font-family="Helvetica,sans-Serif" font-size="10.00">FrameBase.C</text>
</a>
</g>
</g>
<!-- Node2&#45;&gt;Node33 -->
<g id="edge32" class="edge">
<title>Node2&#45;&gt;Node33</title>
<path fill="none" stroke="midnightblue" d="M2775.27,-115.67C2785.08,-104.45 2797.69,-90.02 2805.56,-81.01"/>
<polygon fill="midnightblue" stroke="midnightblue" points="2772.4,-113.64 2768.45,-123.48 2777.67,-118.25 2772.4,-113.64"/>
</g>
<!-- Node34 -->
<g id="node32" class="node">
<title>Node34</title>
<g id="a_node32"><a xlink:href="_mesh_motion_alg_8_c.html" target="_top" xlink:title=" ">
<polygon fill="white" stroke="black" points="2872,-62 2872,-81 2974,-81 2974,-62 2872,-62"/>
<text text-anchor="middle" x="2923" y="-69" font-family="Helvetica,sans-Serif" font-size="10.00">MeshMotionAlg.C</text>
</a>
</g>
</g>
<!-- Node2&#45;&gt;Node34 -->
<g id="edge33" class="edge">
<title>Node2&#45;&gt;Node34</title>
<path fill="none" stroke="midnightblue" d="M2793.85,-119.93C2825.34,-108.37 2872.06,-91.21 2899.83,-81.01"/>
<polygon fill="midnightblue" stroke="midnightblue" points="2792.39,-116.74 2784.21,-123.48 2794.8,-123.31 2792.39,-116.74"/>
</g>
<!-- Node35 -->
<g id="node33" class="node">
<title>Node35</title>
<g id="a_node33"><a xlink:href="_mesh_transformation_alg_8_c.html" target="_top" xlink:title=" ">
<polygon fill="white" stroke="black" points="2992,-62 2992,-81 3134,-81 3134,-62 2992,-62"/>
<text text-anchor="middle" x="3063" y="-69" font-family="Helvetica,sans-Serif" font-size="10.00">MeshTransformationAlg.C</text>
</a>
</g>
</g>
<!-- Node2&#45;&gt;Node35 -->
<g id="edge34" class="edge">
<title>Node2&#45;&gt;Node35</title>
<path fill="none" stroke="midnightblue" d="M2812.8,-121.79C2871.22,-110.28 2965.18,-91.77 3019.8,-81.01"/>
<polygon fill="midnightblue" stroke="midnightblue" points="2811.81,-118.42 2802.67,-123.79 2813.16,-125.29 2811.81,-118.42"/>
</g>
<!-- Node36 -->
<g id="node34" class="node">
<title>Node36</title>
<g id="a_node34"><a xlink:href="_motion_deforming_interior_kernel_8_c.html" target="_top" xlink:title=" ">
<polygon fill="white" stroke="black" points="3152,-62 3152,-81 3330,-81 3330,-62 3152,-62"/>
<text text-anchor="middle" x="3241" y="-69" font-family="Helvetica,sans-Serif" font-size="10.00">MotionDeformingInteriorKernel.C</text>
</a>
</g>
</g>
<!-- Node2&#45;&gt;Node36 -->
<g id="edge35" class="edge">
<title>Node2&#45;&gt;Node36</title>
<path fill="none" stroke="midnightblue" d="M2812.97,-126.37C2886.52,-118.29 3025.17,-102.65 3143,-87 3156.72,-85.18 3171.51,-83.07 3185.33,-81.03"/>
<polygon fill="midnightblue" stroke="midnightblue" points="2812.16,-122.94 2802.6,-127.51 2812.92,-129.9 2812.16,-122.94"/>
</g>
<!-- Node37 -->
<g id="node35" class="node">
<title>Node37</title>
<g id="a_node35"><a xlink:href="_motion_oscillation_kernel_8_c.html" target="_top" xlink:title=" ">
<polygon fill="white" stroke="black" points="3348.5,-62 3348.5,-81 3491.5,-81 3491.5,-62 3348.5,-62"/>
<text text-anchor="middle" x="3420" y="-69" font-family="Helvetica,sans-Serif" font-size="10.00">MotionOscillationKernel.C</text>
</a>
</g>
</g>
<!-- Node2&#45;&gt;Node37 -->
<g id="edge36" class="edge">
<title>Node2&#45;&gt;Node37</title>
<path fill="none" stroke="midnightblue" d="M2813.14,-129.68C2914.67,-124.78 3145.91,-111.74 3339,-87 3351.33,-85.42 3364.63,-83.24 3376.82,-81.05"/>
<polygon fill="midnightblue" stroke="midnightblue" points="2812.67,-126.2 2802.85,-130.17 2813.01,-133.19 2812.67,-126.2"/>
</g>
<!-- Node38 -->
<g id="node36" class="node">
<title>Node38</title>
<g id="a_node36"><a xlink:href="_motion_rotation_kernel_8_c.html" target="_top" xlink:title=" ">
<polygon fill="white" stroke="black" points="3510,-62 3510,-81 3642,-81 3642,-62 3510,-62"/>
<text text-anchor="middle" x="3576" y="-69" font-family="Helvetica,sans-Serif" font-size="10.00">MotionRotationKernel.C</text>
</a>
</g>
</g>
<!-- Node2&#45;&gt;Node38 -->
<g id="edge37" class="edge">
<title>Node2&#45;&gt;Node38</title>
<path fill="none" stroke="midnightblue" d="M2812.93,-131.12C2933.85,-128.56 3243.47,-119.15 3500,-87 3511.86,-85.51 3524.66,-83.31 3536.31,-81.06"/>
<polygon fill="midnightblue" stroke="midnightblue" points="2812.77,-127.62 2802.84,-131.32 2812.91,-134.62 2812.77,-127.62"/>
</g>
<!-- Node39 -->
<g id="node37" class="node">
<title>Node39</title>
<g id="a_node37"><a xlink:href="_motion_scaling_kernel_8_c.html" target="_top" xlink:title=" ">
<polygon fill="white" stroke="black" points="0,-62 0,-81 126,-81 126,-62 0,-62"/>
<text text-anchor="middle" x="63" y="-69" font-family="Helvetica,sans-Serif" font-size="10.00">MotionScalingKernel.C</text>
</a>
</g>
</g>
<!-- Node2&#45;&gt;Node39 -->
<g id="edge38" class="edge">
<title>Node2&#45;&gt;Node39</title>
<path fill="none" stroke="midnightblue" d="M2709.1,-131.68C2363.38,-129.46 399.43,-115.65 135,-87 123.08,-85.71 110.21,-83.41 98.69,-81.02"/>
<polygon fill="midnightblue" stroke="midnightblue" points="2709.3,-135.18 2719.32,-131.74 2709.34,-128.18 2709.3,-135.18"/>
</g>
<!-- Node40 -->
<g id="node38" class="node">
<title>Node40</title>
<g id="a_node38"><a xlink:href="_motion_translation_kernel_8_c.html" target="_top" xlink:title=" ">
<polygon fill="white" stroke="black" points="144,-62 144,-81 288,-81 288,-62 144,-62"/>
<text text-anchor="middle" x="216" y="-69" font-family="Helvetica,sans-Serif" font-size="10.00">MotionTranslationKernel.C</text>
</a>
</g>
</g>
<!-- Node2&#45;&gt;Node40 -->
<g id="edge39" class="edge">
<title>Node2&#45;&gt;Node40</title>
<path fill="none" stroke="midnightblue" d="M2709.17,-132.18C2399.32,-133.05 788.81,-135.2 297,-87 283.78,-85.7 269.47,-83.44 256.62,-81.07"/>
<polygon fill="midnightblue" stroke="midnightblue" points="2709.23,-135.68 2719.22,-132.15 2709.21,-128.68 2709.23,-135.68"/>
</g>
<!-- Node41 -->
<g id="node39" class="node">
<title>Node41</title>
<g id="a_node39"><a xlink:href="_motion_waves_kernel_8_c.html" target="_top" xlink:title=" ">
<polygon fill="white" stroke="black" points="306.5,-62 306.5,-81 429.5,-81 429.5,-62 306.5,-62"/>
<text text-anchor="middle" x="368" y="-69" font-family="Helvetica,sans-Serif" font-size="10.00">MotionWavesKernel.C</text>
</a>
</g>
</g>
<!-- Node2&#45;&gt;Node41 -->
<g id="edge40" class="edge">
<title>Node2&#45;&gt;Node41</title>
<path fill="none" stroke="midnightblue" d="M2708.66,-131.56C2385.81,-128.75 671.17,-112.74 439,-87 427.25,-85.7 414.55,-83.4 403.19,-81.01"/>
<polygon fill="midnightblue" stroke="midnightblue" points="2709.09,-135.06 2719.12,-131.65 2709.15,-128.06 2709.09,-135.06"/>
</g>
<!-- Node42 -->
<g id="node40" class="node">
<title>Node42</title>
<g id="a_node40"><a xlink:href="_turbine_surrogate_kernel_8_c.html" target="_top" xlink:title=" ">
<polygon fill="white" stroke="black" points="448,-62 448,-81 588,-81 588,-62 448,-62"/>
<text text-anchor="middle" x="518" y="-69" font-family="Helvetica,sans-Serif" font-size="10.00">TurbineSurrogateKernel.C</text>
</a>
</g>
</g>
<!-- Node2&#45;&gt;Node42 -->
<g id="edge41" class="edge">
<title>Node2&#45;&gt;Node42</title>
<path fill="none" stroke="midnightblue" d="M2709.25,-132.05C2422.45,-132.18 1025.61,-130.51 597,-87 584.1,-85.69 570.14,-83.42 557.61,-81.06"/>
<polygon fill="midnightblue" stroke="midnightblue" points="2709.37,-135.55 2719.37,-132.05 2709.37,-128.55 2709.37,-135.55"/>
</g>
<!-- Node43 -->
<g id="node41" class="node">
<title>Node43</title>
<g id="a_node41"><a xlink:href="_nalu_parsing_8_c.html" target="_top" xlink:title=" ">
<polygon fill="white" stroke="black" points="606,-62 606,-81 690,-81 690,-62 606,-62"/>
<text text-anchor="middle" x="648" y="-69" font-family="Helvetica,sans-Serif" font-size="10.00">NaluParsing.C</text>
</a>
</g>
</g>
<!-- Node2&#45;&gt;Node43 -->
<g id="edge42" class="edge">
<title>Node2&#45;&gt;Node43</title>
<path fill="none" stroke="midnightblue" d="M2709.36,-131.66C2409.92,-129.59 902.95,-117.7 699,-87 690.44,-85.71 681.29,-83.41 673.14,-81.02"/>
<polygon fill="midnightblue" stroke="midnightblue" points="2709.47,-135.16 2719.49,-131.73 2709.52,-128.16 2709.47,-135.16"/>
</g>
<!-- Node44 -->
<g id="node42" class="node">
<title>Node44</title>
<g id="a_node42"><a xlink:href="_output_info_8_c.html" target="_top" xlink:title=" ">
<polygon fill="white" stroke="black" points="708,-62 708,-81 786,-81 786,-62 708,-62"/>
<text text-anchor="middle" x="747" y="-69" font-family="Helvetica,sans-Serif" font-size="10.00">OutputInfo.C</text>
</a>
</g>
</g>
<!-- Node2&#45;&gt;Node44 -->
<g id="edge43" class="edge">
<title>Node2&#45;&gt;Node44</title>
<path fill="none" stroke="midnightblue" d="M2709,-131.65C2417.1,-129.57 988.58,-117.87 795,-87 786.92,-85.71 778.3,-83.41 770.63,-81.02"/>
<polygon fill="midnightblue" stroke="midnightblue" points="2709.27,-135.15 2719.3,-131.72 2709.32,-128.15 2709.27,-135.15"/>
</g>
<!-- Node45 -->
<g id="node43" class="node">
<title>Node45</title>
<g id="a_node43"><a xlink:href="_post_processing_info_8_c.html" target="_top" xlink:title=" ">
<polygon fill="white" stroke="black" points="804.5,-62 804.5,-81 923.5,-81 923.5,-62 804.5,-62"/>
<text text-anchor="middle" x="864" y="-69" font-family="Helvetica,sans-Serif" font-size="10.00">PostProcessingInfo.C</text>
</a>
</g>
</g>
<!-- Node2&#45;&gt;Node45 -->
<g id="edge44" class="edge">
<title>Node2&#45;&gt;Node45</title>
<path fill="none" stroke="midnightblue" d="M2709.19,-132.02C2449.73,-131.94 1289.8,-129.18 932,-87 920.85,-85.69 908.83,-83.41 898.04,-81.05"/>
<polygon fill="midnightblue" stroke="midnightblue" points="2709.46,-135.52 2719.46,-132.03 2709.46,-128.52 2709.46,-135.52"/>
</g>
<!-- Node46 -->
<g id="node44" class="node">
<title>Node46</title>
<g id="a_node44"><a xlink:href="_realm_8_c.html" target="_top" xlink:title=" ">
<polygon fill="white" stroke="black" points="4865,-62 4865,-81 4923,-81 4923,-62 4865,-62"/>
<text text-anchor="middle" x="4894" y="-69" font-family="Helvetica,sans-Serif" font-size="10.00">Realm.C</text>
</a>
</g>
</g>
<!-- Node2&#45;&gt;Node46 -->
<g id="edge45" class="edge">
<title>Node2&#45;&gt;Node46</title>
<path fill="none" stroke="midnightblue" d="M2813.03,-131.95C3116.37,-131.49 4650.24,-127.21 4856,-87 4862.51,-85.73 4869.37,-83.43 4875.43,-81.04"/>
<polygon fill="midnightblue" stroke="midnightblue" points="2812.76,-128.45 2802.76,-131.96 2812.77,-135.45 2812.76,-128.45"/>
</g>
<!-- Node47 -->
<g id="node45" class="node">
<title>Node47</title>
<g id="a_node45"><a xlink:href="_realms_8_c.html" target="_top" xlink:title=" ">
<polygon fill="white" stroke="black" points="4941.5,-62 4941.5,-81 5004.5,-81 5004.5,-62 4941.5,-62"/>
<text text-anchor="middle" x="4973" y="-69" font-family="Helvetica,sans-Serif" font-size="10.00">Realms.C</text>
</a>
</g>
</g>
<!-- Node2&#45;&gt;Node47 -->
<g id="edge46" class="edge">
<title>Node2&#45;&gt;Node47</title>
<path fill="none" stroke="midnightblue" d="M2812.94,-131.91C3122.47,-131.27 4717.82,-126.05 4932,-87 4938.98,-85.73 4946.36,-83.43 4952.91,-81.04"/>
<polygon fill="midnightblue" stroke="midnightblue" points="2812.88,-128.41 2802.89,-131.93 2812.9,-135.41 2812.88,-128.41"/>
</g>
<!-- Node48 -->
<g id="node46" class="node">
<title>Node48</title>
<g id="a_node46"><a xlink:href="_shear_stress_transport_equation_system_8_c.html" target="_top" xlink:title=" ">
<polygon fill="white" stroke="black" points="5023,-56.5 5023,-86.5 5185,-86.5 5185,-56.5 5023,-56.5"/>
<text text-anchor="start" x="5031" y="-74.5" font-family="Helvetica,sans-Serif" font-size="10.00">ShearStressTransportEquation</text>
<text text-anchor="middle" x="5104" y="-63.5" font-family="Helvetica,sans-Serif" font-size="10.00">System.C</text>
</a>
</g>
</g>
<!-- Node2&#45;&gt;Node48 -->
<g id="edge47" class="edge">
<title>Node2&#45;&gt;Node48</title>
<path fill="none" stroke="midnightblue" d="M2812.93,-131.94C3106.95,-131.43 4565.49,-126.93 5013,-87 5016.19,-86.72 5019.43,-86.39 5022.7,-86.02"/>
<polygon fill="midnightblue" stroke="midnightblue" points="2812.56,-128.44 2802.57,-131.95 2812.57,-135.44 2812.56,-128.44"/>
</g>
<!-- Node49 -->
<g id="node47" class="node">
<title>Node49</title>
<g id="a_node47"><a xlink:href="_side_writer_8_c.html" target="_top" xlink:title=" ">
<polygon fill="white" stroke="black" points="941.5,-62 941.5,-81 1018.5,-81 1018.5,-62 941.5,-62"/>
<text text-anchor="middle" x="980" y="-69" font-family="Helvetica,sans-Serif" font-size="10.00">SideWriter.C</text>
</a>
</g>
</g>
<!-- Node2&#45;&gt;Node49 -->
<g id="edge48" class="edge">
<title>Node2&#45;&gt;Node49</title>
<path fill="none" stroke="midnightblue" d="M2708.78,-131.49C2437.65,-128.75 1196.26,-114.77 1027,-87 1019.08,-85.7 1010.64,-83.4 1003.13,-81.01"/>
<polygon fill="midnightblue" stroke="midnightblue" points="2709.09,-135 2719.13,-131.6 2709.16,-128 2709.09,-135"/>
</g>
<!-- Node50 -->
<g id="node48" class="node">
<title>Node50</title>
<g id="a_node48"><a xlink:href="_simulation_8_c.html" target="_top" xlink:title=" ">
<polygon fill="white" stroke="black" points="1036.5,-62 1036.5,-81 1115.5,-81 1115.5,-62 1036.5,-62"/>
<text text-anchor="middle" x="1076" y="-69" font-family="Helvetica,sans-Serif" font-size="10.00">Simulation.C</text>
</a>
</g>
</g>
<!-- Node2&#45;&gt;Node50 -->
<g id="edge49" class="edge">
<title>Node2&#45;&gt;Node50</title>
<path fill="none" stroke="midnightblue" d="M2708.83,-131.37C2447.2,-128.11 1284.23,-112.31 1125,-87 1116.85,-85.71 1108.16,-83.44 1100.39,-81.07"/>
<polygon fill="midnightblue" stroke="midnightblue" points="2709.14,-134.88 2719.19,-131.5 2709.23,-127.88 2709.14,-134.88"/>
</g>
<!-- Node51 -->
<g id="node49" class="node">
<title>Node51</title>
<g id="a_node49"><a xlink:href="_solution_norm_post_processing_8_c.html" target="_top" xlink:title=" ">
<polygon fill="white" stroke="black" points="5203.5,-62 5203.5,-81 5370.5,-81 5370.5,-62 5203.5,-62"/>
<text text-anchor="middle" x="5287" y="-69" font-family="Helvetica,sans-Serif" font-size="10.00">SolutionNormPostProcessing.C</text>
</a>
</g>
</g>
<!-- Node2&#45;&gt;Node51 -->
<g id="edge50" class="edge">
<title>Node2&#45;&gt;Node51</title>
<path fill="none" stroke="midnightblue" d="M2813.11,-132C3121.3,-131.88 4708.37,-129.15 5194,-87 5209.14,-85.69 5225.55,-83.41 5240.32,-81.05"/>
<polygon fill="midnightblue" stroke="midnightblue" points="2812.69,-128.5 2802.69,-132.01 2812.69,-135.5 2812.69,-128.5"/>
</g>
<!-- Node3&#45;&gt;Node5 -->
<g id="edge3" class="edge">
<title>Node3&#45;&gt;Node5</title>
<path fill="none" stroke="midnightblue" d="M1187.48,-53.17C1194.18,-42.11 1202.56,-28.25 1207.85,-19.51"/>
<polygon fill="midnightblue" stroke="midnightblue" points="1184.34,-51.61 1182.16,-61.98 1190.33,-55.23 1184.34,-51.61"/>
</g>
<!-- Node7&#45;&gt;Node8 -->
<g id="edge6" class="edge">
<title>Node7&#45;&gt;Node8</title>
<path fill="none" stroke="midnightblue" d="M1366.81,-58.73C1401.02,-47.17 1452.4,-29.8 1482.83,-19.51"/>
<polygon fill="midnightblue" stroke="midnightblue" points="1365.57,-55.46 1357.22,-61.98 1367.81,-62.09 1365.57,-55.46"/>
</g>
<!-- Node67&#45;&gt;Node8 -->
<g id="edge61" class="edge">
<title>Node67&#45;&gt;Node8</title>
<path fill="none" stroke="midnightblue" d="M5011.98,-131.63C5186.18,-129.78 5886.25,-120.29 5918,-87 5927.51,-77.03 5927.69,-65.79 5918,-56 5878.29,-15.88 2165.91,-11.49 1584.28,-11.05"/>
<polygon fill="midnightblue" stroke="midnightblue" points="5011.7,-128.13 5001.74,-131.73 5011.78,-135.13 5011.7,-128.13"/>
</g>
<!-- Node67&#45;&gt;Node18 -->
<g id="edge52" class="edge">
<title>Node67&#45;&gt;Node18</title>
<path fill="none" stroke="midnightblue" d="M5011.6,-128.22C5083.82,-121.02 5244.27,-104.53 5379,-87 5392.76,-85.21 5407.59,-83.09 5421.42,-81.03"/>
<polygon fill="midnightblue" stroke="midnightblue" points="5011.2,-124.74 5001.59,-129.21 5011.89,-131.7 5011.2,-124.74"/>
</g>
<!-- Node67&#45;&gt;Node19 -->
<g id="edge53" class="edge">
<title>Node67&#45;&gt;Node19</title>
<path fill="none" stroke="midnightblue" d="M5011.56,-130.29C5107,-125.81 5361.81,-112.27 5573,-87 5576.07,-86.63 5579.21,-86.23 5582.37,-85.81"/>
<polygon fill="midnightblue" stroke="midnightblue" points="5011.33,-126.8 5001.51,-130.76 5011.66,-133.79 5011.33,-126.8"/>
</g>
<!-- Node67&#45;&gt;Node20 -->
<g id="edge54" class="edge">
<title>Node67&#45;&gt;Node20</title>
<path fill="none" stroke="midnightblue" d="M5011.88,-131.27C5125.51,-128.8 5466.82,-119.05 5748,-87 5761.24,-85.49 5775.54,-83.28 5788.58,-81.03"/>
<polygon fill="midnightblue" stroke="midnightblue" points="5011.52,-127.77 5001.6,-131.48 5011.67,-134.77 5011.52,-127.77"/>
</g>
<!-- Node67&#45;&gt;Node21 -->
<g id="edge55" class="edge">
<title>Node67&#45;&gt;Node21</title>
<path fill="none" stroke="midnightblue" d="M4934.04,-132.37C4787.3,-133.37 4254.07,-133.37 3818,-87 3804.76,-85.59 3790.45,-83.35 3777.5,-81.05"/>
<polygon fill="midnightblue" stroke="midnightblue" points="4934.35,-135.87 4944.32,-132.29 4934.3,-128.87 4934.35,-135.87"/>
</g>
<!-- Node67&#45;&gt;Node22 -->
<g id="edge56" class="edge">
<title>Node67&#45;&gt;Node22</title>
<path fill="none" stroke="midnightblue" d="M5012.04,-131.08C5170.31,-127.2 5764.61,-111.28 5951,-87 5961.74,-85.6 5973.31,-83.36 5983.76,-81.06"/>
<polygon fill="midnightblue" stroke="midnightblue" points="5011.74,-127.58 5001.83,-131.32 5011.91,-134.58 5011.74,-127.58"/>
</g>
<!-- Node67&#45;&gt;Node23 -->
<g id="edge57" class="edge">
<title>Node67&#45;&gt;Node23</title>
<path fill="none" stroke="midnightblue" d="M4934.16,-131.23C4771.37,-127.84 4143.26,-113.32 3947,-87 3936.61,-85.61 3925.42,-83.34 3915.35,-81.01"/>
<polygon fill="midnightblue" stroke="midnightblue" points="4934.14,-134.73 4944.21,-131.43 4934.28,-127.73 4934.14,-134.73"/>
</g>
<!-- Node67&#45;&gt;Node24 -->
<g id="edge58" class="edge">
<title>Node67&#45;&gt;Node24</title>
<path fill="none" stroke="midnightblue" d="M4933.92,-131.67C4811.89,-130.26 4427.16,-123.07 4111,-87 4098.07,-85.53 4084.1,-83.3 4071.41,-81.02"/>
<polygon fill="midnightblue" stroke="midnightblue" points="4934.21,-135.17 4944.25,-131.78 4934.29,-128.17 4934.21,-135.17"/>
</g>
<!-- Node67&#45;&gt;Node25 -->
<g id="edge59" class="edge">
<title>Node67&#45;&gt;Node25</title>
<path fill="none" stroke="midnightblue" d="M5011.54,-131.41C5181.73,-128.66 5866.95,-115.98 6080,-87 6090.08,-85.63 6100.92,-83.37 6110.67,-81.04"/>
<polygon fill="midnightblue" stroke="midnightblue" points="5011.48,-127.91 5001.54,-131.57 5011.59,-134.91 5011.48,-127.91"/>
</g>
<!-- Node67&#45;&gt;Node26 -->
<g id="edge60" class="edge">
<title>Node67&#45;&gt;Node26</title>
<path fill="none" stroke="midnightblue" d="M4934.21,-131.66C4825.13,-130.28 4506.6,-123.18 4245,-87 4234.39,-85.53 4222.96,-83.3 4212.6,-81.03"/>
<polygon fill="midnightblue" stroke="midnightblue" points="4934.36,-135.17 4944.4,-131.78 4934.44,-128.17 4934.36,-135.17"/>
</g>
<!-- Node67&#45;&gt;Node29 -->
<g id="edge62" class="edge">
<title>Node67&#45;&gt;Node29</title>
<path fill="none" stroke="midnightblue" d="M4934.13,-131.19C4837.94,-128.72 4581.29,-119.39 4370,-87 4360.28,-85.51 4349.82,-83.3 4340.31,-81.06"/>
<polygon fill="midnightblue" stroke="midnightblue" points="4934.18,-134.69 4944.26,-131.44 4934.35,-127.69 4934.18,-134.69"/>
</g>
<!-- Node67&#45;&gt;Node30 -->
<g id="edge63" class="edge">
<title>Node67&#45;&gt;Node30</title>
<path fill="none" stroke="midnightblue" d="M4934.25,-129.89C4853.49,-125.14 4661.4,-112.03 4502,-87 4491.92,-85.42 4481.06,-83.23 4471.13,-81.04"/>
<polygon fill="midnightblue" stroke="midnightblue" points="4934.26,-133.4 4944.45,-130.48 4934.66,-126.41 4934.26,-133.4"/>
</g>
<!-- Node67&#45;&gt;Node31 -->
<g id="edge64" class="edge">
<title>Node67&#45;&gt;Node31</title>
<path fill="none" stroke="midnightblue" d="M4934.09,-126.14C4877.94,-117.66 4770.97,-101.4 4680,-87 4677.06,-86.54 4674.07,-86.06 4671.05,-85.58"/>
<polygon fill="midnightblue" stroke="midnightblue" points="4933.88,-129.65 4944.29,-127.68 4934.92,-122.73 4933.88,-129.65"/>
</g>
<!-- Node67&#45;&gt;Node32 -->
<g id="edge65" class="edge">
<title>Node67&#45;&gt;Node32</title>
<path fill="none" stroke="midnightblue" d="M4934.63,-120.86C4901.17,-111.15 4852.47,-97.02 4816.35,-86.53"/>
<polygon fill="midnightblue" stroke="midnightblue" points="4933.92,-124.3 4944.5,-123.73 4935.87,-117.58 4933.92,-124.3"/>
</g>
<!-- Node67&#45;&gt;Node46 -->
<g id="edge66" class="edge">
<title>Node67&#45;&gt;Node46</title>
<path fill="none" stroke="midnightblue" d="M4953.47,-117.29C4938.32,-105.88 4917.84,-90.46 4905.3,-81.01"/>
<polygon fill="midnightblue" stroke="midnightblue" points="4951.59,-120.25 4961.68,-123.48 4955.8,-114.66 4951.59,-120.25"/>
</g>
<!-- Node67&#45;&gt;Node47 -->
<g id="edge67" class="edge">
<title>Node67&#45;&gt;Node47</title>
<path fill="none" stroke="midnightblue" d="M4973,-113.32C4973,-102.5 4973,-89.4 4973,-81.01"/>
<polygon fill="midnightblue" stroke="midnightblue" points="4969.5,-113.48 4973,-123.48 4976.5,-113.48 4969.5,-113.48"/>
</g>
<!-- Node67&#45;&gt;Node48 -->
<g id="edge68" class="edge">
<title>Node67&#45;&gt;Node48</title>
<path fill="none" stroke="midnightblue" d="M5000.89,-119.33C5022.09,-109.7 5051.23,-96.47 5073.13,-86.52"/>
<polygon fill="midnightblue" stroke="midnightblue" points="4999.43,-116.15 4991.77,-123.48 5002.32,-122.53 4999.43,-116.15"/>
</g>
<!-- Node67&#45;&gt;Node51 -->
<g id="edge69" class="edge">
<title>Node67&#45;&gt;Node51</title>
<path fill="none" stroke="midnightblue" d="M5011.62,-124.68C5069.91,-113.64 5180.14,-92.75 5242,-81.03"/>
<polygon fill="midnightblue" stroke="midnightblue" points="5010.87,-121.26 5001.7,-126.56 5012.17,-128.14 5010.87,-121.26"/>
</g>
</g>
</svg>
