<?xml version="1.0" encoding="UTF-8" standalone="no"?>
<!DOCTYPE svg PUBLIC "-//W3C//DTD SVG 1.1//EN"
 "http://www.w3.org/Graphics/SVG/1.1/DTD/svg11.dtd">
<!-- Generated by graphviz version 2.43.0 (0)
 -->
<!-- Title: MaterialPropertys.h Pages: 1 -->
<svg width="6204pt" height="207pt"
 viewBox="0.00 0.00 6203.50 207.00" xmlns="http://www.w3.org/2000/svg" xmlns:xlink="http://www.w3.org/1999/xlink">
<g id="graph0" class="graph" transform="scale(1 1) rotate(0) translate(4 203)">
<title>MaterialPropertys.h</title>
<polygon fill="white" stroke="transparent" points="-4,4 -4,-203 6199.5,-203 6199.5,4 -4,4"/>
<!-- Node1 -->
<g id="node1" class="node">
<title>Node1</title>
<g id="a_node1"><a xlink:title=" ">
<polygon fill="#bfbfbf" stroke="black" points="5682.5,-179.5 5682.5,-198.5 5795.5,-198.5 5795.5,-179.5 5682.5,-179.5"/>
<text text-anchor="middle" x="5739" y="-186.5" font-family="Helvetica,sans-Serif" font-size="10.00">MaterialPropertys.h</text>
</a>
</g>
</g>
<!-- Node2 -->
<g id="node2" class="node">
<title>Node2</title>
<g id="a_node2"><a xlink:href="_nalu_parsing_8h.html" target="_top" xlink:title=" ">
<polygon fill="white" stroke="red" points="2682.5,-123.5 2682.5,-142.5 2765.5,-142.5 2765.5,-123.5 2682.5,-123.5"/>
<text text-anchor="middle" x="2724" y="-130.5" font-family="Helvetica,sans-Serif" font-size="10.00">NaluParsing.h</text>
</a>
</g>
</g>
<!-- Node1&#45;&gt;Node2 -->
<g id="edge1" class="edge">
<title>Node1&#45;&gt;Node2</title>
<path fill="none" stroke="midnightblue" d="M5672.26,-186.8C5262.5,-179.47 3094.15,-140.63 2765.7,-134.75"/>
<polygon fill="midnightblue" stroke="midnightblue" points="5672.4,-190.31 5682.46,-186.99 5672.52,-183.31 5672.4,-190.31"/>
</g>
<!-- Node21 -->
<g id="node19" class="node">
<title>Node21</title>
<g id="a_node19"><a xlink:href="_enthalpy_equation_system_8_c.html" target="_top" xlink:title=" ">
<polygon fill="white" stroke="black" points="6046.5,-62 6046.5,-81 6195.5,-81 6195.5,-62 6046.5,-62"/>
<text text-anchor="middle" x="6121" y="-69" font-family="Helvetica,sans-Serif" font-size="10.00">EnthalpyEquationSystem.C</text>
</a>
</g>
</g>
<!-- Node1&#45;&gt;Node21 -->
<g id="edge70" class="edge">
<title>Node1&#45;&gt;Node21</title>
<path fill="none" stroke="midnightblue" d="M5777.13,-176.47C5853.79,-153.29 6024.98,-101.53 6092.67,-81.06"/>
<polygon fill="midnightblue" stroke="midnightblue" points="5775.96,-173.17 5767.4,-179.41 5777.99,-179.87 5775.96,-173.17"/>
</g>
<!-- Node29 -->
<g id="node27" class="node">
<title>Node29</title>
<g id="a_node27"><a xlink:href="_material_property_8_c.html" target="_top" xlink:title=" ">
<polygon fill="white" stroke="black" points="5921.5,-62 5921.5,-81 6028.5,-81 6028.5,-62 5921.5,-62"/>
<text text-anchor="middle" x="5975" y="-69" font-family="Helvetica,sans-Serif" font-size="10.00">MaterialProperty.C</text>
</a>
</g>
</g>
<!-- Node1&#45;&gt;Node29 -->
<g id="edge71" class="edge">
<title>Node1&#45;&gt;Node29</title>
<path fill="none" stroke="midnightblue" d="M5765.74,-174.91C5814.45,-151.08 5916.39,-101.18 5957.38,-81.12"/>
<polygon fill="midnightblue" stroke="midnightblue" points="5764.18,-171.78 5756.74,-179.32 5767.26,-178.07 5764.18,-171.78"/>
</g>
<!-- Node30 -->
<g id="node28" class="node">
<title>Node30</title>
<g id="a_node28"><a xlink:href="_material_propertys_8_c.html" target="_top" xlink:title=" ">
<polygon fill="white" stroke="black" points="5751.5,-62 5751.5,-81 5864.5,-81 5864.5,-62 5751.5,-62"/>
<text text-anchor="middle" x="5808" y="-69" font-family="Helvetica,sans-Serif" font-size="10.00">MaterialPropertys.C</text>
</a>
</g>
</g>
<!-- Node1&#45;&gt;Node30 -->
<g id="edge72" class="edge">
<title>Node1&#45;&gt;Node30</title>
<path fill="none" stroke="midnightblue" d="M5749.45,-170.51C5764.42,-145.46 5791.41,-100.27 5802.75,-81.28"/>
<polygon fill="midnightblue" stroke="midnightblue" points="5746.31,-168.94 5744.19,-179.32 5752.32,-172.53 5746.31,-168.94"/>
</g>
<!-- Node46 -->
<g id="node44" class="node">
<title>Node46</title>
<g id="a_node44"><a xlink:href="_realm_8_c.html" target="_top" xlink:title=" ">
<polygon fill="white" stroke="black" points="5675,-62 5675,-81 5733,-81 5733,-62 5675,-62"/>
<text text-anchor="middle" x="5704" y="-69" font-family="Helvetica,sans-Serif" font-size="10.00">Realm.C</text>
</a>
</g>
</g>
<!-- Node1&#45;&gt;Node46 -->
<g id="edge73" class="edge">
<title>Node1&#45;&gt;Node46</title>
<path fill="none" stroke="midnightblue" d="M5733.4,-169.5C5725.75,-144.26 5712.34,-100.02 5706.66,-81.28"/>
<polygon fill="midnightblue" stroke="midnightblue" points="5730.12,-170.76 5736.37,-179.32 5736.82,-168.73 5730.12,-170.76"/>
</g>
<!-- Node67 -->
<g id="node50" class="node">
<title>Node67</title>
<g id="a_node50"><a xlink:href="_realm_8h.html" target="_top" xlink:title=" ">
<polygon fill="white" stroke="red" points="5135.5,-123.5 5135.5,-142.5 5192.5,-142.5 5192.5,-123.5 5135.5,-123.5"/>
<text text-anchor="middle" x="5164" y="-130.5" font-family="Helvetica,sans-Serif" font-size="10.00">Realm.h</text>
</a>
</g>
</g>
<!-- Node1&#45;&gt;Node67 -->
<g id="edge51" class="edge">
<title>Node1&#45;&gt;Node67</title>
<path fill="none" stroke="midnightblue" d="M5672.04,-181.71C5546.5,-169.92 5280.48,-144.94 5192.74,-136.7"/>
<polygon fill="midnightblue" stroke="midnightblue" points="5672.01,-185.22 5682.29,-182.67 5672.66,-178.25 5672.01,-185.22"/>
</g>
<!-- Node3 -->
<g id="node3" class="node">
<title>Node3</title>
<g id="a_node3"><a xlink:href="_actuator_info_8h.html" target="_top" xlink:title=" ">
<polygon fill="white" stroke="red" points="1028,-62 1028,-81 1114,-81 1114,-62 1028,-62"/>
<text text-anchor="middle" x="1071" y="-69" font-family="Helvetica,sans-Serif" font-size="10.00">ActuatorInfo.h</text>
</a>
</g>
</g>
<!-- Node2&#45;&gt;Node3 -->
<g id="edge2" class="edge">
<title>Node2&#45;&gt;Node3</title>
<path fill="none" stroke="midnightblue" d="M2672.17,-132.24C2432.71,-133.09 1432.01,-133.71 1123,-87 1114.38,-85.7 1105.16,-83.43 1096.92,-81.07"/>
<polygon fill="midnightblue" stroke="midnightblue" points="2672.36,-135.74 2682.34,-132.2 2672.33,-128.74 2672.36,-135.74"/>
</g>
<!-- Node5 -->
<g id="node4" class="node">
<title>Node5</title>
<g id="a_node4"><a xlink:href="_actuator_parsing_8_c.html" target="_top" xlink:title=" ">
<polygon fill="white" stroke="black" points="984.5,-0.5 984.5,-19.5 1087.5,-19.5 1087.5,-0.5 984.5,-0.5"/>
<text text-anchor="middle" x="1036" y="-7.5" font-family="Helvetica,sans-Serif" font-size="10.00">ActuatorParsing.C</text>
</a>
</g>
</g>
<!-- Node2&#45;&gt;Node5 -->
<g id="edge8" class="edge">
<title>Node2&#45;&gt;Node5</title>
<path fill="none" stroke="midnightblue" d="M2671.84,-131.62C2388.75,-129.41 1048.56,-117.35 1019,-87 1000.98,-68.5 1019.31,-35.3 1029.78,-19.63"/>
<polygon fill="midnightblue" stroke="midnightblue" points="2672.2,-135.12 2682.23,-131.7 2672.25,-128.12 2672.2,-135.12"/>
</g>
<!-- Node6 -->
<g id="node5" class="node">
<title>Node6</title>
<g id="a_node5"><a xlink:href="_hypre_n_g_p_8h.html" target="_top" xlink:title=" ">
<polygon fill="white" stroke="black" points="1132,-62 1132,-81 1206,-81 1206,-62 1132,-62"/>
<text text-anchor="middle" x="1169" y="-69" font-family="Helvetica,sans-Serif" font-size="10.00">HypreNGP.h</text>
</a>
</g>
</g>
<!-- Node2&#45;&gt;Node6 -->
<g id="edge4" class="edge">
<title>Node2&#45;&gt;Node6</title>
<path fill="none" stroke="midnightblue" d="M2672.34,-132.16C2442.2,-132.63 1508.89,-131.68 1220,-87 1211.54,-85.69 1202.5,-83.42 1194.41,-81.06"/>
<polygon fill="midnightblue" stroke="midnightblue" points="2672.46,-135.66 2682.45,-132.14 2672.44,-128.66 2672.46,-135.66"/>
</g>
<!-- Node7 -->
<g id="node6" class="node">
<title>Node7</title>
<g id="a_node6"><a xlink:href="_a_b_l_wall_fluxes_alg_8h.html" target="_top" xlink:title=" ">
<polygon fill="white" stroke="red" points="1262,-62 1262,-81 1374,-81 1374,-62 1262,-62"/>
<text text-anchor="middle" x="1318" y="-69" font-family="Helvetica,sans-Serif" font-size="10.00">ABLWallFluxesAlg.h</text>
</a>
</g>
</g>
<!-- Node2&#45;&gt;Node7 -->
<g id="edge5" class="edge">
<title>Node2&#45;&gt;Node7</title>
<path fill="none" stroke="midnightblue" d="M2672.15,-131.55C2457.69,-129.48 1639.2,-119.59 1383,-87 1372.45,-85.66 1361.09,-83.41 1350.86,-81.08"/>
<polygon fill="midnightblue" stroke="midnightblue" points="2672.17,-135.05 2682.2,-131.64 2672.23,-128.05 2672.17,-135.05"/>
</g>
<!-- Node8 -->
<g id="node7" class="node">
<title>Node8</title>
<g id="a_node7"><a xlink:href="_low_mach_equation_system_8_c.html" target="_top" xlink:title=" ">
<polygon fill="white" stroke="black" points="1242,-0.5 1242,-19.5 1394,-19.5 1394,-0.5 1242,-0.5"/>
<text text-anchor="middle" x="1318" y="-7.5" font-family="Helvetica,sans-Serif" font-size="10.00">LowMachEquationSystem.C</text>
</a>
</g>
</g>
<!-- Node2&#45;&gt;Node8 -->
<g id="edge27" class="edge">
<title>Node2&#45;&gt;Node8</title>
<path fill="none" stroke="midnightblue" d="M2672.13,-131.39C2413.87,-128.26 1278.22,-113 1253,-87 1243.41,-77.11 1246.61,-68.2 1253,-56 1262.05,-38.74 1281.06,-26.78 1296.19,-19.55"/>
<polygon fill="midnightblue" stroke="midnightblue" points="2672.31,-134.9 2682.35,-131.52 2672.4,-127.9 2672.31,-134.9"/>
</g>
<!-- Node10 -->
<g id="node8" class="node">
<title>Node10</title>
<g id="a_node8"><a xlink:href="_actuator_model_8_c.html" target="_top" xlink:title=" ">
<polygon fill="white" stroke="black" points="1392,-62 1392,-81 1490,-81 1490,-62 1392,-62"/>
<text text-anchor="middle" x="1441" y="-69" font-family="Helvetica,sans-Serif" font-size="10.00">ActuatorModel.C</text>
</a>
</g>
</g>
<!-- Node2&#45;&gt;Node10 -->
<g id="edge7" class="edge">
<title>Node2&#45;&gt;Node10</title>
<path fill="none" stroke="midnightblue" d="M2672.36,-131.54C2470.04,-129.49 1730.96,-119.89 1499,-87 1489.44,-85.64 1479.18,-83.36 1469.97,-81"/>
<polygon fill="midnightblue" stroke="midnightblue" points="2672.39,-135.04 2682.43,-131.63 2672.46,-128.04 2672.39,-135.04"/>
</g>
<!-- Node11 -->
<g id="node9" class="node">
<title>Node11</title>
<g id="a_node9"><a xlink:href="_actuator_parsing_f_a_s_t_8_c.html" target="_top" xlink:title=" ">
<polygon fill="white" stroke="black" points="1508.5,-62 1508.5,-81 1633.5,-81 1633.5,-62 1508.5,-62"/>
<text text-anchor="middle" x="1571" y="-69" font-family="Helvetica,sans-Serif" font-size="10.00">ActuatorParsingFAST.C</text>
</a>
</g>
</g>
<!-- Node2&#45;&gt;Node11 -->
<g id="edge9" class="edge">
<title>Node2&#45;&gt;Node11</title>
<path fill="none" stroke="midnightblue" d="M2672.38,-130.95C2485.59,-126.97 1845.19,-111.81 1642,-87 1630.51,-85.6 1618.11,-83.33 1606.94,-81"/>
<polygon fill="midnightblue" stroke="midnightblue" points="2672.41,-134.45 2682.48,-131.16 2672.56,-127.45 2672.41,-134.45"/>
</g>
<!-- Node12 -->
<g id="node10" class="node">
<title>Node12</title>
<g id="a_node10"><a xlink:href="_actuator_parsing_simple_8_c.html" target="_top" xlink:title=" ">
<polygon fill="white" stroke="black" points="1651.5,-62 1651.5,-81 1788.5,-81 1788.5,-62 1651.5,-62"/>
<text text-anchor="middle" x="1720" y="-69" font-family="Helvetica,sans-Serif" font-size="10.00">ActuatorParsingSimple.C</text>
</a>
</g>
</g>
<!-- Node2&#45;&gt;Node12 -->
<g id="edge10" class="edge">
<title>Node2&#45;&gt;Node12</title>
<path fill="none" stroke="midnightblue" d="M2672.16,-131.98C2531.11,-131.38 2128.74,-126.1 1797,-87 1784.71,-85.55 1771.42,-83.3 1759.41,-81"/>
<polygon fill="midnightblue" stroke="midnightblue" points="2672.24,-135.48 2682.25,-132.02 2672.27,-128.48 2672.24,-135.48"/>
</g>
<!-- Node13 -->
<g id="node11" class="node">
<title>Node13</title>
<g id="a_node11"><a xlink:href="_utilities_actuator_8_c.html" target="_top" xlink:title=" ">
<polygon fill="white" stroke="black" points="1806.5,-62 1806.5,-81 1911.5,-81 1911.5,-62 1806.5,-62"/>
<text text-anchor="middle" x="1859" y="-69" font-family="Helvetica,sans-Serif" font-size="10.00">UtilitiesActuator.C</text>
</a>
</g>
</g>
<!-- Node2&#45;&gt;Node13 -->
<g id="edge11" class="edge">
<title>Node2&#45;&gt;Node13</title>
<path fill="none" stroke="midnightblue" d="M2672,-132.27C2543.61,-132.26 2201.56,-128.01 1920,-87 1910.2,-85.57 1899.66,-83.33 1890.14,-81.03"/>
<polygon fill="midnightblue" stroke="midnightblue" points="2672.32,-135.77 2682.32,-132.26 2672.31,-128.77 2672.32,-135.77"/>
</g>
<!-- Node14 -->
<g id="node12" class="node">
<title>Node14</title>
<g id="a_node12"><a xlink:href="_f_s_iturbine_8_c.html" target="_top" xlink:title=" ">
<polygon fill="white" stroke="black" points="1929.5,-62 1929.5,-81 2004.5,-81 2004.5,-62 1929.5,-62"/>
<text text-anchor="middle" x="1967" y="-69" font-family="Helvetica,sans-Serif" font-size="10.00">FSIturbine.C</text>
</a>
</g>
</g>
<!-- Node2&#45;&gt;Node14 -->
<g id="edge12" class="edge">
<title>Node2&#45;&gt;Node14</title>
<path fill="none" stroke="midnightblue" d="M2672.31,-130.35C2530.87,-125.59 2139.63,-110.6 2013,-87 2005.59,-85.62 1997.71,-83.42 1990.6,-81.14"/>
<polygon fill="midnightblue" stroke="midnightblue" points="2672.34,-133.86 2682.45,-130.69 2672.57,-126.86 2672.34,-133.86"/>
</g>
<!-- Node15 -->
<g id="node13" class="node">
<title>Node15</title>
<g id="a_node13"><a xlink:href="_openfast_f_s_i_8_c.html" target="_top" xlink:title=" ">
<polygon fill="white" stroke="black" points="2022.5,-62 2022.5,-81 2107.5,-81 2107.5,-62 2022.5,-62"/>
<text text-anchor="middle" x="2065" y="-69" font-family="Helvetica,sans-Serif" font-size="10.00">OpenfastFSI.C</text>
</a>
</g>
</g>
<!-- Node2&#45;&gt;Node15 -->
<g id="edge13" class="edge">
<title>Node2&#45;&gt;Node15</title>
<path fill="none" stroke="midnightblue" d="M2672.4,-131.61C2567.16,-130.05 2320.49,-122.55 2117,-87 2108.69,-85.55 2099.8,-83.33 2091.76,-81.05"/>
<polygon fill="midnightblue" stroke="midnightblue" points="2672.39,-135.11 2682.44,-131.74 2672.49,-128.11 2672.39,-135.11"/>
</g>
<!-- Node16 -->
<g id="node14" class="node">
<title>Node16</title>
<g id="a_node14"><a xlink:href="_averaging_info_8_c.html" target="_top" xlink:title=" ">
<polygon fill="white" stroke="black" points="2126,-62 2126,-81 2220,-81 2220,-62 2126,-62"/>
<text text-anchor="middle" x="2173" y="-69" font-family="Helvetica,sans-Serif" font-size="10.00">AveragingInfo.C</text>
</a>
</g>
</g>
<!-- Node2&#45;&gt;Node16 -->
<g id="edge14" class="edge">
<title>Node2&#45;&gt;Node16</title>
<path fill="none" stroke="midnightblue" d="M2672.31,-130.07C2581.86,-126.08 2389.25,-114.84 2229,-87 2220.19,-85.47 2210.74,-83.25 2202.16,-81.01"/>
<polygon fill="midnightblue" stroke="midnightblue" points="2672.16,-133.57 2682.31,-130.5 2672.47,-126.57 2672.16,-133.57"/>
</g>
<!-- Node17 -->
<g id="node15" class="node">
<title>Node17</title>
<g id="a_node15"><a xlink:href="_boundary_conditions_8_c.html" target="_top" xlink:title=" ">
<polygon fill="white" stroke="black" points="2238.5,-62 2238.5,-81 2363.5,-81 2363.5,-62 2238.5,-62"/>
<text text-anchor="middle" x="2301" y="-69" font-family="Helvetica,sans-Serif" font-size="10.00">BoundaryConditions.C</text>
</a>
</g>
</g>
<!-- Node2&#45;&gt;Node17 -->
<g id="edge15" class="edge">
<title>Node2&#45;&gt;Node17</title>
<path fill="none" stroke="midnightblue" d="M2672.14,-126.52C2603.5,-119 2478.81,-104.41 2373,-87 2362.56,-85.28 2351.32,-83.15 2340.9,-81.06"/>
<polygon fill="midnightblue" stroke="midnightblue" points="2671.94,-130.02 2682.26,-127.62 2672.69,-123.06 2671.94,-130.02"/>
</g>
<!-- Node18 -->
<g id="node16" class="node">
<title>Node18</title>
<g id="a_node16"><a xlink:href="_chien_k_epsilon_equation_system_8_c.html" target="_top" xlink:title=" ">
<polygon fill="white" stroke="black" points="4719,-62 4719,-81 4895,-81 4895,-62 4719,-62"/>
<text text-anchor="middle" x="4807" y="-69" font-family="Helvetica,sans-Serif" font-size="10.00">ChienKEpsilonEquationSystem.C</text>
</a>
</g>
</g>
<!-- Node2&#45;&gt;Node18 -->
<g id="edge16" class="edge">
<title>Node2&#45;&gt;Node18</title>
<path fill="none" stroke="midnightblue" d="M2775.78,-131.71C3048.24,-130.05 4318.16,-120.59 4710,-87 4725.78,-85.65 4742.89,-83.36 4758.29,-81"/>
<polygon fill="midnightblue" stroke="midnightblue" points="2775.74,-128.21 2765.77,-131.77 2775.79,-135.21 2775.74,-128.21"/>
</g>
<!-- Node19 -->
<g id="node17" class="node">
<title>Node19</title>
<g id="a_node17"><a xlink:href="_compute_wall_friction_velocity_algorithm_8_c.html" target="_top" xlink:title=" ">
<polygon fill="white" stroke="black" points="4913.5,-56.5 4913.5,-86.5 5070.5,-86.5 5070.5,-56.5 4913.5,-56.5"/>
<text text-anchor="start" x="4921.5" y="-74.5" font-family="Helvetica,sans-Serif" font-size="10.00">ComputeWallFrictionVelocity</text>
<text text-anchor="middle" x="4992" y="-63.5" font-family="Helvetica,sans-Serif" font-size="10.00">Algorithm.C</text>
</a>
</g>
</g>
<!-- Node2&#45;&gt;Node19 -->
<g id="edge17" class="edge">
<title>Node2&#45;&gt;Node19</title>
<path fill="none" stroke="midnightblue" d="M2775.66,-131.94C3063.46,-131.42 4471.61,-126.88 4904,-87 4907.08,-86.72 4910.22,-86.39 4913.39,-86.02"/>
<polygon fill="midnightblue" stroke="midnightblue" points="2775.5,-128.44 2765.51,-131.95 2775.51,-135.44 2775.5,-128.44"/>
</g>
<!-- Node20 -->
<g id="node18" class="node">
<title>Node20</title>
<g id="a_node18"><a xlink:href="_data_probe_post_processing_8_c.html" target="_top" xlink:title=" ">
<polygon fill="white" stroke="black" points="5088.5,-62 5088.5,-81 5239.5,-81 5239.5,-62 5088.5,-62"/>
<text text-anchor="middle" x="5164" y="-69" font-family="Helvetica,sans-Serif" font-size="10.00">DataProbePostProcessing.C</text>
</a>
</g>
</g>
<!-- Node2&#45;&gt;Node20 -->
<g id="edge18" class="edge">
<title>Node2&#45;&gt;Node20</title>
<path fill="none" stroke="midnightblue" d="M2775.9,-132.07C3077.74,-132.3 4610.01,-131.23 5079,-87 5092.86,-85.69 5107.87,-83.42 5121.36,-81.06"/>
<polygon fill="midnightblue" stroke="midnightblue" points="2775.69,-128.57 2765.68,-132.06 2775.68,-135.57 2775.69,-128.57"/>
</g>
<!-- Node2&#45;&gt;Node21 -->
<g id="edge19" class="edge">
<title>Node2&#45;&gt;Node21</title>
<path fill="none" stroke="midnightblue" d="M2775.77,-131.8C3170.66,-130.17 5700.12,-118.6 6038,-87 6051.69,-85.72 6066.52,-83.42 6079.8,-81.03"/>
<polygon fill="midnightblue" stroke="midnightblue" points="2775.49,-128.3 2765.51,-131.84 2775.52,-135.3 2775.49,-128.3"/>
</g>
<!-- Node22 -->
<g id="node20" class="node">
<title>Node22</title>
<g id="a_node20"><a xlink:href="_equation_system_8_c.html" target="_top" xlink:title=" ">
<polygon fill="white" stroke="black" points="5258,-62 5258,-81 5364,-81 5364,-62 5258,-62"/>
<text text-anchor="middle" x="5311" y="-69" font-family="Helvetica,sans-Serif" font-size="10.00">EquationSystem.C</text>
</a>
</g>
</g>
<!-- Node2&#45;&gt;Node22 -->
<g id="edge20" class="edge">
<title>Node2&#45;&gt;Node22</title>
<path fill="none" stroke="midnightblue" d="M2775.99,-131.72C3114.11,-129.85 4994.78,-118.05 5248,-87 5258.47,-85.72 5269.75,-83.42 5279.82,-81.03"/>
<polygon fill="midnightblue" stroke="midnightblue" points="2775.51,-128.23 2765.53,-131.78 2775.54,-135.23 2775.51,-128.23"/>
</g>
<!-- Node23 -->
<g id="node21" class="node">
<title>Node23</title>
<g id="a_node21"><a xlink:href="_equation_systems_8_c.html" target="_top" xlink:title=" ">
<polygon fill="white" stroke="black" points="5382.5,-62 5382.5,-81 5493.5,-81 5493.5,-62 5382.5,-62"/>
<text text-anchor="middle" x="5438" y="-69" font-family="Helvetica,sans-Serif" font-size="10.00">EquationSystems.C</text>
</a>
</g>
</g>
<!-- Node2&#45;&gt;Node23 -->
<g id="edge21" class="edge">
<title>Node2&#45;&gt;Node23</title>
<path fill="none" stroke="midnightblue" d="M2775.55,-131.75C3122.08,-130.01 5106.36,-118.67 5373,-87 5383.79,-85.72 5395.42,-83.42 5405.82,-81.03"/>
<polygon fill="midnightblue" stroke="midnightblue" points="2775.53,-128.25 2765.55,-131.8 2775.56,-135.25 2775.53,-128.25"/>
</g>
<!-- Node24 -->
<g id="node22" class="node">
<title>Node24</title>
<g id="a_node22"><a xlink:href="_gamma_equation_system_8_c.html" target="_top" xlink:title=" ">
<polygon fill="white" stroke="black" points="5511.5,-62 5511.5,-81 5656.5,-81 5656.5,-62 5511.5,-62"/>
<text text-anchor="middle" x="5584" y="-69" font-family="Helvetica,sans-Serif" font-size="10.00">GammaEquationSystem.C</text>
</a>
</g>
</g>
<!-- Node2&#45;&gt;Node24 -->
<g id="edge22" class="edge">
<title>Node2&#45;&gt;Node24</title>
<path fill="none" stroke="midnightblue" d="M2775.78,-131.66C3132.59,-129.23 5221.11,-113.94 5502,-87 5515.53,-85.7 5530.18,-83.4 5543.3,-81.01"/>
<polygon fill="midnightblue" stroke="midnightblue" points="2775.71,-128.16 2765.73,-131.73 2775.75,-135.16 2775.71,-128.16"/>
</g>
<!-- Node25 -->
<g id="node23" class="node">
<title>Node25</title>
<g id="a_node23"><a xlink:href="_initial_conditions_8_c.html" target="_top" xlink:title=" ">
<polygon fill="white" stroke="black" points="3660,-62 3660,-81 3766,-81 3766,-62 3660,-62"/>
<text text-anchor="middle" x="3713" y="-69" font-family="Helvetica,sans-Serif" font-size="10.00">InitialConditions.C</text>
</a>
</g>
</g>
<!-- Node2&#45;&gt;Node25 -->
<g id="edge23" class="edge">
<title>Node2&#45;&gt;Node25</title>
<path fill="none" stroke="midnightblue" d="M2775.67,-130.73C2944.66,-126.36 3479.85,-110.97 3651,-87 3660.96,-85.61 3671.68,-83.37 3681.35,-81.07"/>
<polygon fill="midnightblue" stroke="midnightblue" points="2775.45,-127.23 2765.55,-130.98 2775.63,-134.23 2775.45,-127.23"/>
</g>
<!-- Node26 -->
<g id="node24" class="node">
<title>Node26</title>
<g id="a_node24"><a xlink:href="_input_output_realm_8_c.html" target="_top" xlink:title=" ">
<polygon fill="white" stroke="black" points="3784,-62 3784,-81 3900,-81 3900,-62 3784,-62"/>
<text text-anchor="middle" x="3842" y="-69" font-family="Helvetica,sans-Serif" font-size="10.00">InputOutputRealm.C</text>
</a>
</g>
</g>
<!-- Node2&#45;&gt;Node26 -->
<g id="edge24" class="edge">
<title>Node2&#45;&gt;Node26</title>
<path fill="none" stroke="midnightblue" d="M2775.97,-130.95C2959.74,-127.04 3578.43,-112.29 3775,-87 3785.86,-85.6 3797.57,-83.34 3808.11,-81.01"/>
<polygon fill="midnightblue" stroke="midnightblue" points="2775.69,-127.45 2765.76,-131.16 2775.83,-134.45 2775.69,-127.45"/>
</g>
<!-- Node27 -->
<g id="node25" class="node">
<title>Node27</title>
<g id="a_node25"><a xlink:href="_linear_solver_config_8_c.html" target="_top" xlink:title=" ">
<polygon fill="white" stroke="black" points="2382,-62 2382,-81 2500,-81 2500,-62 2382,-62"/>
<text text-anchor="middle" x="2441" y="-69" font-family="Helvetica,sans-Serif" font-size="10.00">LinearSolverConfig.C</text>
</a>
</g>
</g>
<!-- Node2&#45;&gt;Node27 -->
<g id="edge25" class="edge">
<title>Node2&#45;&gt;Node27</title>
<path fill="none" stroke="midnightblue" d="M2672.98,-121.38C2629.41,-112.29 2565.08,-98.85 2509,-87 2499.91,-85.08 2490.13,-83 2480.91,-81.04"/>
<polygon fill="midnightblue" stroke="midnightblue" points="2672.27,-124.8 2682.77,-123.42 2673.7,-117.95 2672.27,-124.8"/>
</g>
<!-- Node28 -->
<g id="node26" class="node">
<title>Node28</title>
<g id="a_node26"><a xlink:href="_linear_solvers_8_c.html" target="_top" xlink:title=" ">
<polygon fill="white" stroke="black" points="2518,-62 2518,-81 2610,-81 2610,-62 2518,-62"/>
<text text-anchor="middle" x="2564" y="-69" font-family="Helvetica,sans-Serif" font-size="10.00">LinearSolvers.C</text>
</a>
</g>
</g>
<!-- Node2&#45;&gt;Node28 -->
<g id="edge26" class="edge">
<title>Node2&#45;&gt;Node28</title>
<path fill="none" stroke="midnightblue" d="M2691.55,-119.93C2660.45,-108.37 2614.31,-91.21 2586.88,-81.01"/>
<polygon fill="midnightblue" stroke="midnightblue" points="2690.48,-123.27 2701.08,-123.48 2692.92,-116.71 2690.48,-123.27"/>
</g>
<!-- Node2&#45;&gt;Node29 -->
<g id="edge28" class="edge">
<title>Node2&#45;&gt;Node29</title>
<path fill="none" stroke="midnightblue" d="M2775.64,-132.17C3132.41,-133.22 5236.05,-137.14 5874,-87 5890.6,-85.7 5908.63,-83.39 5924.8,-81"/>
<polygon fill="midnightblue" stroke="midnightblue" points="2775.6,-128.67 2765.59,-132.14 2775.58,-135.67 2775.6,-128.67"/>
</g>
<!-- Node2&#45;&gt;Node30 -->
<g id="edge29" class="edge">
<title>Node2&#45;&gt;Node30</title>
<path fill="none" stroke="midnightblue" d="M2775.78,-131.86C3150.12,-130.74 5436.29,-122.49 5742,-87 5752.95,-85.73 5764.76,-83.44 5775.32,-81.04"/>
<polygon fill="midnightblue" stroke="midnightblue" points="2775.76,-128.36 2765.77,-131.89 2775.78,-135.36 2775.76,-128.36"/>
</g>
<!-- Node31 -->
<g id="node29" class="node">
<title>Node31</title>
<g id="a_node29"><a xlink:href="_matrix_free_heat_cond_equation_system_8_c.html" target="_top" xlink:title=" ">
<polygon fill="white" stroke="black" points="3918,-56.5 3918,-86.5 4078,-86.5 4078,-56.5 3918,-56.5"/>
<text text-anchor="start" x="3926" y="-74.5" font-family="Helvetica,sans-Serif" font-size="10.00">MatrixFreeHeatCondEquation</text>
<text text-anchor="middle" x="3998" y="-63.5" font-family="Helvetica,sans-Serif" font-size="10.00">System.C</text>
</a>
</g>
</g>
<!-- Node2&#45;&gt;Node31 -->
<g id="edge30" class="edge">
<title>Node2&#45;&gt;Node31</title>
<path fill="none" stroke="midnightblue" d="M2775.97,-132.31C2941.71,-132.82 3472.51,-130.68 3909,-87 3911.8,-86.72 3914.65,-86.41 3917.53,-86.07"/>
<polygon fill="midnightblue" stroke="midnightblue" points="2775.6,-128.81 2765.58,-132.28 2775.57,-135.81 2775.6,-128.81"/>
</g>
<!-- Node32 -->
<g id="node30" class="node">
<title>Node32</title>
<g id="a_node30"><a xlink:href="_matrix_free_low_mach_equation_system_8_c.html" target="_top" xlink:title=" ">
<polygon fill="white" stroke="black" points="4096,-56.5 4096,-86.5 4254,-86.5 4254,-56.5 4096,-56.5"/>
<text text-anchor="start" x="4104" y="-74.5" font-family="Helvetica,sans-Serif" font-size="10.00">MatrixFreeLowMachEquation</text>
<text text-anchor="middle" x="4175" y="-63.5" font-family="Helvetica,sans-Serif" font-size="10.00">System.C</text>
</a>
</g>
</g>
<!-- Node2&#45;&gt;Node32 -->
<g id="edge31" class="edge">
<title>Node2&#45;&gt;Node32</title>
<path fill="none" stroke="midnightblue" d="M2775.93,-131.19C2992.61,-127.68 3825.47,-112.75 4087,-87 4089.93,-86.71 4092.91,-86.39 4095.91,-86.03"/>
<polygon fill="midnightblue" stroke="midnightblue" points="2775.73,-127.69 2765.79,-131.36 2775.84,-134.69 2775.73,-127.69"/>
</g>
<!-- Node33 -->
<g id="node31" class="node">
<title>Node33</title>
<g id="a_node31"><a xlink:href="_frame_base_8_c.html" target="_top" xlink:title=" ">
<polygon fill="white" stroke="black" points="2628.5,-62 2628.5,-81 2709.5,-81 2709.5,-62 2628.5,-62"/>
<text text-anchor="middle" x="2669" y="-69" font-family="Helvetica,sans-Serif" font-size="10.00">FrameBase.C</text>
</a>
</g>
</g>
<!-- Node2&#45;&gt;Node33 -->
<g id="edge32" class="edge">
<title>Node2&#45;&gt;Node33</title>
<path fill="none" stroke="midnightblue" d="M2709.21,-116C2698.8,-104.74 2685.27,-90.1 2676.87,-81.01"/>
<polygon fill="midnightblue" stroke="midnightblue" points="2706.76,-118.51 2716.12,-123.48 2711.9,-113.76 2706.76,-118.51"/>
</g>
<!-- Node34 -->
<g id="node32" class="node">
<title>Node34</title>
<g id="a_node32"><a xlink:href="_mesh_motion_alg_8_c.html" target="_top" xlink:title=" ">
<polygon fill="white" stroke="black" points="2728,-62 2728,-81 2830,-81 2830,-62 2728,-62"/>
<text text-anchor="middle" x="2779" y="-69" font-family="Helvetica,sans-Serif" font-size="10.00">MeshMotionAlg.C</text>
</a>
</g>
</g>
<!-- Node2&#45;&gt;Node34 -->
<g id="edge33" class="edge">
<title>Node2&#45;&gt;Node34</title>
<path fill="none" stroke="midnightblue" d="M2738.79,-116C2749.2,-104.74 2762.73,-90.1 2771.13,-81.01"/>
<polygon fill="midnightblue" stroke="midnightblue" points="2736.1,-113.76 2731.88,-123.48 2741.24,-118.51 2736.1,-113.76"/>
</g>
<!-- Node35 -->
<g id="node33" class="node">
<title>Node35</title>
<g id="a_node33"><a xlink:href="_mesh_transformation_alg_8_c.html" target="_top" xlink:title=" ">
<polygon fill="white" stroke="black" points="2848,-62 2848,-81 2990,-81 2990,-62 2848,-62"/>
<text text-anchor="middle" x="2919" y="-69" font-family="Helvetica,sans-Serif" font-size="10.00">MeshTransformationAlg.C</text>
</a>
</g>
</g>
<!-- Node2&#45;&gt;Node35 -->
<g id="edge34" class="edge">
<title>Node2&#45;&gt;Node35</title>
<path fill="none" stroke="midnightblue" d="M2761.6,-120.53C2799.49,-108.96 2857.11,-91.38 2891.11,-81.01"/>
<polygon fill="midnightblue" stroke="midnightblue" points="2760.48,-117.21 2751.94,-123.48 2762.52,-123.9 2760.48,-117.21"/>
</g>
<!-- Node36 -->
<g id="node34" class="node">
<title>Node36</title>
<g id="a_node34"><a xlink:href="_motion_deforming_interior_kernel_8_c.html" target="_top" xlink:title=" ">
<polygon fill="white" stroke="black" points="3008,-62 3008,-81 3186,-81 3186,-62 3008,-62"/>
<text text-anchor="middle" x="3097" y="-69" font-family="Helvetica,sans-Serif" font-size="10.00">MotionDeformingInteriorKernel.C</text>
</a>
</g>
</g>
<!-- Node2&#45;&gt;Node36 -->
<g id="edge35" class="edge">
<title>Node2&#45;&gt;Node36</title>
<path fill="none" stroke="midnightblue" d="M2775.7,-123.75C2846.27,-112.5 2972.13,-92.42 3043.58,-81.02"/>
<polygon fill="midnightblue" stroke="midnightblue" points="2775.03,-120.32 2765.7,-125.35 2776.13,-127.23 2775.03,-120.32"/>
</g>
<!-- Node37 -->
<g id="node35" class="node">
<title>Node37</title>
<g id="a_node35"><a xlink:href="_motion_oscillation_kernel_8_c.html" target="_top" xlink:title=" ">
<polygon fill="white" stroke="black" points="3204.5,-62 3204.5,-81 3347.5,-81 3347.5,-62 3204.5,-62"/>
<text text-anchor="middle" x="3276" y="-69" font-family="Helvetica,sans-Serif" font-size="10.00">MotionOscillationKernel.C</text>
</a>
</g>
</g>
<!-- Node2&#45;&gt;Node37 -->
<g id="edge36" class="edge">
<title>Node2&#45;&gt;Node37</title>
<path fill="none" stroke="midnightblue" d="M2775.84,-128.44C2862.76,-122.16 3043.29,-107.79 3195,-87 3207.03,-85.35 3220,-83.2 3231.96,-81.06"/>
<polygon fill="midnightblue" stroke="midnightblue" points="2775.44,-124.96 2765.72,-129.17 2775.94,-131.94 2775.44,-124.96"/>
</g>
<!-- Node38 -->
<g id="node36" class="node">
<title>Node38</title>
<g id="a_node36"><a xlink:href="_motion_rotation_kernel_8_c.html" target="_top" xlink:title=" ">
<polygon fill="white" stroke="black" points="3366,-62 3366,-81 3498,-81 3498,-62 3366,-62"/>
<text text-anchor="middle" x="3432" y="-69" font-family="Helvetica,sans-Serif" font-size="10.00">MotionRotationKernel.C</text>
</a>
</g>
</g>
<!-- Node2&#45;&gt;Node38 -->
<g id="edge37" class="edge">
<title>Node2&#45;&gt;Node38</title>
<path fill="none" stroke="midnightblue" d="M2775.89,-130.37C2884.12,-126.51 3141.71,-114.97 3356,-87 3367.72,-85.47 3380.36,-83.28 3391.91,-81.06"/>
<polygon fill="midnightblue" stroke="midnightblue" points="2775.45,-126.88 2765.58,-130.73 2775.69,-133.88 2775.45,-126.88"/>
</g>
<!-- Node39 -->
<g id="node37" class="node">
<title>Node39</title>
<g id="a_node37"><a xlink:href="_motion_scaling_kernel_8_c.html" target="_top" xlink:title=" ">
<polygon fill="white" stroke="black" points="3516,-62 3516,-81 3642,-81 3642,-62 3516,-62"/>
<text text-anchor="middle" x="3579" y="-69" font-family="Helvetica,sans-Serif" font-size="10.00">MotionScalingKernel.C</text>
</a>
</g>
</g>
<!-- Node2&#45;&gt;Node39 -->
<g id="edge38" class="edge">
<title>Node2&#45;&gt;Node39</title>
<path fill="none" stroke="midnightblue" d="M2775.91,-131.55C2901.79,-129.9 3233.13,-122.27 3507,-87 3518.38,-85.53 3530.66,-83.31 3541.8,-81.03"/>
<polygon fill="midnightblue" stroke="midnightblue" points="2775.74,-128.05 2765.79,-131.67 2775.83,-135.05 2775.74,-128.05"/>
</g>
<!-- Node40 -->
<g id="node38" class="node">
<title>Node40</title>
<g id="a_node38"><a xlink:href="_motion_translation_kernel_8_c.html" target="_top" xlink:title=" ">
<polygon fill="white" stroke="black" points="0,-62 0,-81 144,-81 144,-62 0,-62"/>
<text text-anchor="middle" x="72" y="-69" font-family="Helvetica,sans-Serif" font-size="10.00">MotionTranslationKernel.C</text>
</a>
</g>
</g>
<!-- Node2&#45;&gt;Node40 -->
<g id="edge39" class="edge">
<title>Node2&#45;&gt;Node40</title>
<path fill="none" stroke="midnightblue" d="M2671.98,-132.22C2353.82,-133.41 667.28,-137.21 153,-87 139.63,-85.7 125.16,-83.39 112.2,-81"/>
<polygon fill="midnightblue" stroke="midnightblue" points="2672.3,-135.72 2682.28,-132.18 2672.27,-128.72 2672.3,-135.72"/>
</g>
<!-- Node41 -->
<g id="node39" class="node">
<title>Node41</title>
<g id="a_node39"><a xlink:href="_motion_waves_kernel_8_c.html" target="_top" xlink:title=" ">
<polygon fill="white" stroke="black" points="162.5,-62 162.5,-81 285.5,-81 285.5,-62 162.5,-62"/>
<text text-anchor="middle" x="224" y="-69" font-family="Helvetica,sans-Serif" font-size="10.00">MotionWavesKernel.C</text>
</a>
</g>
</g>
<!-- Node2&#45;&gt;Node41 -->
<g id="edge40" class="edge">
<title>Node2&#45;&gt;Node41</title>
<path fill="none" stroke="midnightblue" d="M2671.88,-131.61C2340.96,-129.04 538.52,-113.89 295,-87 283.25,-85.7 270.55,-83.4 259.19,-81.01"/>
<polygon fill="midnightblue" stroke="midnightblue" points="2672.11,-135.11 2682.14,-131.69 2672.17,-128.11 2672.11,-135.11"/>
</g>
<!-- Node42 -->
<g id="node40" class="node">
<title>Node42</title>
<g id="a_node40"><a xlink:href="_turbine_surrogate_kernel_8_c.html" target="_top" xlink:title=" ">
<polygon fill="white" stroke="black" points="304,-62 304,-81 444,-81 444,-62 304,-62"/>
<text text-anchor="middle" x="374" y="-69" font-family="Helvetica,sans-Serif" font-size="10.00">TurbineSurrogateKernel.C</text>
</a>
</g>
</g>
<!-- Node2&#45;&gt;Node42 -->
<g id="edge41" class="edge">
<title>Node2&#45;&gt;Node42</title>
<path fill="none" stroke="midnightblue" d="M2672.06,-132.11C2376.48,-132.58 904.01,-132.56 453,-87 440.1,-85.7 426.14,-83.43 413.6,-81.06"/>
<polygon fill="midnightblue" stroke="midnightblue" points="2672.08,-135.61 2682.07,-132.1 2672.06,-128.61 2672.08,-135.61"/>
</g>
<!-- Node43 -->
<g id="node41" class="node">
<title>Node43</title>
<g id="a_node41"><a xlink:href="_nalu_parsing_8_c.html" target="_top" xlink:title=" ">
<polygon fill="white" stroke="black" points="462,-62 462,-81 546,-81 546,-62 462,-62"/>
<text text-anchor="middle" x="504" y="-69" font-family="Helvetica,sans-Serif" font-size="10.00">NaluParsing.C</text>
</a>
</g>
</g>
<!-- Node2&#45;&gt;Node43 -->
<g id="edge42" class="edge">
<title>Node2&#45;&gt;Node43</title>
<path fill="none" stroke="midnightblue" d="M2672.14,-131.72C2363.08,-129.94 770.11,-119.26 555,-87 546.44,-85.72 537.29,-83.42 529.14,-81.03"/>
<polygon fill="midnightblue" stroke="midnightblue" points="2672.15,-135.22 2682.17,-131.78 2672.19,-128.22 2672.15,-135.22"/>
</g>
<!-- Node44 -->
<g id="node42" class="node">
<title>Node44</title>
<g id="a_node42"><a xlink:href="_output_info_8_c.html" target="_top" xlink:title=" ">
<polygon fill="white" stroke="black" points="564,-62 564,-81 642,-81 642,-62 564,-62"/>
<text text-anchor="middle" x="603" y="-69" font-family="Helvetica,sans-Serif" font-size="10.00">OutputInfo.C</text>
</a>
</g>
</g>
<!-- Node2&#45;&gt;Node44 -->
<g id="edge43" class="edge">
<title>Node2&#45;&gt;Node44</title>
<path fill="none" stroke="midnightblue" d="M2672.07,-131.72C2371,-129.96 855.78,-119.53 651,-87 642.92,-85.72 634.3,-83.42 626.63,-81.03"/>
<polygon fill="midnightblue" stroke="midnightblue" points="2672.25,-135.22 2682.27,-131.77 2672.29,-128.22 2672.25,-135.22"/>
</g>
<!-- Node45 -->
<g id="node43" class="node">
<title>Node45</title>
<g id="a_node43"><a xlink:href="_post_processing_info_8_c.html" target="_top" xlink:title=" ">
<polygon fill="white" stroke="black" points="660.5,-62 660.5,-81 779.5,-81 779.5,-62 660.5,-62"/>
<text text-anchor="middle" x="720" y="-69" font-family="Helvetica,sans-Serif" font-size="10.00">PostProcessingInfo.C</text>
</a>
</g>
</g>
<!-- Node2&#45;&gt;Node45 -->
<g id="edge44" class="edge">
<title>Node2&#45;&gt;Node45</title>
<path fill="none" stroke="midnightblue" d="M2672.22,-132.11C2403.76,-132.45 1168.18,-131.56 788,-87 776.85,-85.69 764.83,-83.42 754.04,-81.06"/>
<polygon fill="midnightblue" stroke="midnightblue" points="2672.46,-135.6 2682.46,-132.09 2672.45,-128.6 2672.46,-135.6"/>
</g>
<!-- Node2&#45;&gt;Node46 -->
<g id="edge45" class="edge">
<title>Node2&#45;&gt;Node46</title>
<path fill="none" stroke="midnightblue" d="M2775.7,-131.71C3156.58,-129.5 5517.39,-114.72 5665,-87 5671.67,-85.75 5678.7,-83.46 5684.93,-81.07"/>
<polygon fill="midnightblue" stroke="midnightblue" points="2775.5,-128.21 2765.52,-131.77 2775.54,-135.21 2775.5,-128.21"/>
</g>
<!-- Node47 -->
<g id="node45" class="node">
<title>Node47</title>
<g id="a_node45"><a xlink:href="_realms_8_c.html" target="_top" xlink:title=" ">
<polygon fill="white" stroke="black" points="4272.5,-62 4272.5,-81 4335.5,-81 4335.5,-62 4272.5,-62"/>
<text text-anchor="middle" x="4304" y="-69" font-family="Helvetica,sans-Serif" font-size="10.00">Realms.C</text>
</a>
</g>
</g>
<!-- Node2&#45;&gt;Node47 -->
<g id="edge46" class="edge">
<title>Node2&#45;&gt;Node47</title>
<path fill="none" stroke="midnightblue" d="M2775.91,-131.44C3027.55,-128.58 4114.46,-114.73 4263,-87 4269.98,-85.7 4277.36,-83.4 4283.91,-81.01"/>
<polygon fill="midnightblue" stroke="midnightblue" points="2775.55,-127.94 2765.59,-131.55 2775.63,-134.94 2775.55,-127.94"/>
</g>
<!-- Node48 -->
<g id="node46" class="node">
<title>Node48</title>
<g id="a_node46"><a xlink:href="_shear_stress_transport_equation_system_8_c.html" target="_top" xlink:title=" ">
<polygon fill="white" stroke="black" points="4354,-56.5 4354,-86.5 4516,-86.5 4516,-56.5 4354,-56.5"/>
<text text-anchor="start" x="4362" y="-74.5" font-family="Helvetica,sans-Serif" font-size="10.00">ShearStressTransportEquation</text>
<text text-anchor="middle" x="4435" y="-63.5" font-family="Helvetica,sans-Serif" font-size="10.00">System.C</text>
</a>
</g>
</g>
<!-- Node2&#45;&gt;Node48 -->
<g id="edge47" class="edge">
<title>Node2&#45;&gt;Node48</title>
<path fill="none" stroke="midnightblue" d="M2775.95,-131.47C3017.1,-128.86 4028.97,-116.35 4344,-87 4347.19,-86.7 4350.43,-86.36 4353.7,-85.99"/>
<polygon fill="midnightblue" stroke="midnightblue" points="2775.67,-127.97 2765.71,-131.58 2775.75,-134.97 2775.67,-127.97"/>
</g>
<!-- Node49 -->
<g id="node47" class="node">
<title>Node49</title>
<g id="a_node47"><a xlink:href="_side_writer_8_c.html" target="_top" xlink:title=" ">
<polygon fill="white" stroke="black" points="797.5,-62 797.5,-81 874.5,-81 874.5,-62 797.5,-62"/>
<text text-anchor="middle" x="836" y="-69" font-family="Helvetica,sans-Serif" font-size="10.00">SideWriter.C</text>
</a>
</g>
</g>
<!-- Node2&#45;&gt;Node49 -->
<g id="edge48" class="edge">
<title>Node2&#45;&gt;Node49</title>
<path fill="none" stroke="midnightblue" d="M2672.21,-131.58C2392.02,-129.21 1063.49,-116.47 883,-87 875.08,-85.71 866.64,-83.41 859.13,-81.02"/>
<polygon fill="midnightblue" stroke="midnightblue" points="2672.46,-135.08 2682.49,-131.67 2672.52,-128.08 2672.46,-135.08"/>
</g>
<!-- Node50 -->
<g id="node48" class="node">
<title>Node50</title>
<g id="a_node48"><a xlink:href="_simulation_8_c.html" target="_top" xlink:title=" ">
<polygon fill="white" stroke="black" points="892.5,-62 892.5,-81 971.5,-81 971.5,-62 892.5,-62"/>
<text text-anchor="middle" x="932" y="-69" font-family="Helvetica,sans-Serif" font-size="10.00">Simulation.C</text>
</a>
</g>
</g>
<!-- Node2&#45;&gt;Node50 -->
<g id="edge49" class="edge">
<title>Node2&#45;&gt;Node50</title>
<path fill="none" stroke="midnightblue" d="M2671.91,-132.31C2419.67,-133.55 1323.55,-135.98 986,-87 977.07,-85.7 967.5,-83.44 958.93,-81.07"/>
<polygon fill="midnightblue" stroke="midnightblue" points="2672.27,-135.81 2682.25,-132.26 2672.23,-128.81 2672.27,-135.81"/>
</g>
<!-- Node51 -->
<g id="node49" class="node">
<title>Node51</title>
<g id="a_node49"><a xlink:href="_solution_norm_post_processing_8_c.html" target="_top" xlink:title=" ">
<polygon fill="white" stroke="black" points="4534.5,-62 4534.5,-81 4701.5,-81 4701.5,-62 4534.5,-62"/>
<text text-anchor="middle" x="4618" y="-69" font-family="Helvetica,sans-Serif" font-size="10.00">SolutionNormPostProcessing.C</text>
</a>
</g>
</g>
<!-- Node2&#45;&gt;Node51 -->
<g id="edge50" class="edge">
<title>Node2&#45;&gt;Node51</title>
<path fill="none" stroke="midnightblue" d="M2775.81,-131.61C3032.76,-129.56 4172.05,-118.79 4525,-87 4539.97,-85.65 4556.2,-83.4 4570.83,-81.07"/>
<polygon fill="midnightblue" stroke="midnightblue" points="2775.61,-128.12 2765.64,-131.69 2775.67,-135.11 2775.61,-128.12"/>
</g>
<!-- Node3&#45;&gt;Node5 -->
<g id="edge3" class="edge">
<title>Node3&#45;&gt;Node5</title>
<path fill="none" stroke="midnightblue" d="M1060.81,-53.17C1054.3,-42.11 1046.15,-28.25 1041.01,-19.51"/>
<polygon fill="midnightblue" stroke="midnightblue" points="1057.9,-55.13 1065.99,-61.98 1063.93,-51.58 1057.9,-55.13"/>
</g>
<!-- Node7&#45;&gt;Node8 -->
<g id="edge6" class="edge">
<title>Node7&#45;&gt;Node8</title>
<path fill="none" stroke="midnightblue" d="M1318,-51.82C1318,-41 1318,-27.9 1318,-19.51"/>
<polygon fill="midnightblue" stroke="midnightblue" points="1314.5,-51.98 1318,-61.98 1321.5,-51.98 1314.5,-51.98"/>
</g>
<!-- Node67&#45;&gt;Node8 -->
<g id="edge61" class="edge">
<title>Node67&#45;&gt;Node8</title>
<path fill="none" stroke="midnightblue" d="M5202.72,-131C5347.63,-127.06 5850.86,-111.65 5874,-87 5883.43,-76.95 5883.69,-65.79 5874,-56 5832.91,-14.5 1987.52,-11.27 1394.43,-11.02"/>
<polygon fill="midnightblue" stroke="midnightblue" points="5202.43,-127.5 5192.53,-131.27 5202.62,-134.5 5202.43,-127.5"/>
</g>
<!-- Node67&#45;&gt;Node18 -->
<g id="edge52" class="edge">
<title>Node67&#45;&gt;Node18</title>
<path fill="none" stroke="midnightblue" d="M5125.2,-125.53C5060.4,-114.73 4930.19,-93.03 4858.04,-81.01"/>
<polygon fill="midnightblue" stroke="midnightblue" points="5124.95,-129.04 5135.39,-127.23 5126.1,-122.13 5124.95,-129.04"/>
</g>
<!-- Node67&#45;&gt;Node19 -->
<g id="edge53" class="edge">
<title>Node67&#45;&gt;Node19</title>
<path fill="none" stroke="midnightblue" d="M5129.61,-120.1C5101.62,-110.42 5062.06,-96.74 5032.54,-86.52"/>
<polygon fill="midnightblue" stroke="midnightblue" points="5128.76,-123.51 5139.36,-123.48 5131.05,-116.9 5128.76,-123.51"/>
</g>
<!-- Node67&#45;&gt;Node20 -->
<g id="edge54" class="edge">
<title>Node67&#45;&gt;Node20</title>
<path fill="none" stroke="midnightblue" d="M5164,-113.32C5164,-102.5 5164,-89.4 5164,-81.01"/>
<polygon fill="midnightblue" stroke="midnightblue" points="5160.5,-113.48 5164,-123.48 5167.5,-113.48 5160.5,-113.48"/>
</g>
<!-- Node67&#45;&gt;Node21 -->
<g id="edge55" class="edge">
<title>Node67&#45;&gt;Node21</title>
<path fill="none" stroke="midnightblue" d="M5202.82,-131.68C5325.66,-130.31 5716.71,-123.2 6038,-87 6051.08,-85.53 6065.22,-83.3 6078.06,-81.02"/>
<polygon fill="midnightblue" stroke="midnightblue" points="5202.74,-128.18 5192.77,-131.79 5202.81,-135.18 5202.74,-128.18"/>
</g>
<!-- Node67&#45;&gt;Node22 -->
<g id="edge56" class="edge">
<title>Node67&#45;&gt;Node22</title>
<path fill="none" stroke="midnightblue" d="M5194.56,-119.63C5223.12,-108.07 5265,-91.12 5289.98,-81.01"/>
<polygon fill="midnightblue" stroke="midnightblue" points="5193.02,-116.48 5185.06,-123.48 5195.64,-122.97 5193.02,-116.48"/>
</g>
<!-- Node67&#45;&gt;Node23 -->
<g id="edge57" class="edge">
<title>Node67&#45;&gt;Node23</title>
<path fill="none" stroke="midnightblue" d="M5202.55,-123.79C5244.51,-114.83 5313.55,-100.03 5373,-87 5381.7,-85.09 5391.04,-83.02 5399.86,-81.06"/>
<polygon fill="midnightblue" stroke="midnightblue" points="5201.8,-120.37 5192.75,-125.88 5203.26,-127.22 5201.8,-120.37"/>
</g>
<!-- Node67&#45;&gt;Node24 -->
<g id="edge58" class="edge">
<title>Node67&#45;&gt;Node24</title>
<path fill="none" stroke="midnightblue" d="M5202.8,-127.38C5265.72,-119.77 5393.89,-103.75 5502,-87 5513.57,-85.21 5526.03,-83.1 5537.66,-81.05"/>
<polygon fill="midnightblue" stroke="midnightblue" points="5202.06,-123.94 5192.55,-128.62 5202.89,-130.89 5202.06,-123.94"/>
</g>
<!-- Node67&#45;&gt;Node25 -->
<g id="edge59" class="edge">
<title>Node67&#45;&gt;Node25</title>
<path fill="none" stroke="midnightblue" d="M5125.2,-131.78C4929.2,-130.5 4046.58,-122.8 3775,-87 3764.81,-85.66 3753.84,-83.38 3744,-81.02"/>
<polygon fill="midnightblue" stroke="midnightblue" points="5125.29,-135.28 5135.32,-131.84 5125.34,-128.28 5125.29,-135.28"/>
</g>
<!-- Node67&#45;&gt;Node26 -->
<g id="edge60" class="edge">
<title>Node67&#45;&gt;Node26</title>
<path fill="none" stroke="midnightblue" d="M5125.48,-131.54C4941.73,-129.2 4153.05,-117.54 3909,-87 3898.14,-85.64 3886.43,-83.39 3875.88,-81.05"/>
<polygon fill="midnightblue" stroke="midnightblue" points="5125.45,-135.04 5135.49,-131.67 5125.54,-128.04 5125.45,-135.04"/>
</g>
<!-- Node67&#45;&gt;Node29 -->
<g id="edge62" class="edge">
<title>Node67&#45;&gt;Node29</title>
<path fill="none" stroke="midnightblue" d="M5202.86,-131.69C5313.48,-130.37 5639.37,-123.43 5907,-87 5917.76,-85.53 5929.36,-83.31 5939.88,-81.04"/>
<polygon fill="midnightblue" stroke="midnightblue" points="5202.8,-128.19 5192.84,-131.8 5202.88,-135.19 5202.8,-128.19"/>
</g>
<!-- Node67&#45;&gt;Node30 -->
<g id="edge63" class="edge">
<title>Node67&#45;&gt;Node30</title>
<path fill="none" stroke="midnightblue" d="M5202.84,-130.83C5296.2,-127.63 5540.43,-116.84 5742,-87 5752.33,-85.47 5763.45,-83.25 5773.57,-81.01"/>
<polygon fill="midnightblue" stroke="midnightblue" points="5202.6,-127.34 5192.72,-131.17 5202.84,-134.34 5202.6,-127.34"/>
</g>
<!-- Node67&#45;&gt;Node31 -->
<g id="edge64" class="edge">
<title>Node67&#45;&gt;Node31</title>
<path fill="none" stroke="midnightblue" d="M5124.94,-132.05C4984.37,-131.89 4491.18,-128.22 4087,-87 4084.2,-86.71 4081.35,-86.4 4078.47,-86.05"/>
<polygon fill="midnightblue" stroke="midnightblue" points="5125.2,-135.55 5135.2,-132.06 5125.2,-128.55 5125.2,-135.55"/>
</g>
<!-- Node67&#45;&gt;Node32 -->
<g id="edge65" class="edge">
<title>Node67&#45;&gt;Node32</title>
<path fill="none" stroke="midnightblue" d="M5124.86,-131.63C4999.25,-130.1 4595.15,-122.54 4263,-87 4260.07,-86.69 4257.1,-86.34 4254.1,-85.97"/>
<polygon fill="midnightblue" stroke="midnightblue" points="5125.08,-135.13 5135.12,-131.75 5125.16,-128.13 5125.08,-135.13"/>
</g>
<!-- Node67&#45;&gt;Node46 -->
<g id="edge66" class="edge">
<title>Node67&#45;&gt;Node46</title>
<path fill="none" stroke="midnightblue" d="M5202.87,-132.01C5287.82,-131.26 5495.93,-125.3 5665,-87 5671.34,-85.56 5678.04,-83.35 5684.07,-81.07"/>
<polygon fill="midnightblue" stroke="midnightblue" points="5202.64,-128.51 5192.66,-132.07 5202.68,-135.51 5202.64,-128.51"/>
</g>
<!-- Node67&#45;&gt;Node47 -->
<g id="edge67" class="edge">
<title>Node67&#45;&gt;Node47</title>
<path fill="none" stroke="midnightblue" d="M5124.94,-131.33C4983.31,-128.65 4497.08,-117.42 4345,-87 4338.19,-85.64 4330.98,-83.38 4324.53,-81.05"/>
<polygon fill="midnightblue" stroke="midnightblue" points="5125.23,-134.83 5135.3,-131.52 5125.36,-127.83 5125.23,-134.83"/>
</g>
<!-- Node67&#45;&gt;Node48 -->
<g id="edge68" class="edge">
<title>Node67&#45;&gt;Node48</title>
<path fill="none" stroke="midnightblue" d="M5125.03,-130.47C5025.07,-126.29 4751.51,-113.17 4525,-87 4522.17,-86.67 4519.29,-86.32 4516.39,-85.95"/>
<polygon fill="midnightblue" stroke="midnightblue" points="5125.12,-133.98 5135.26,-130.89 5125.41,-126.98 5125.12,-133.98"/>
</g>
<!-- Node67&#45;&gt;Node51 -->
<g id="edge69" class="edge">
<title>Node67&#45;&gt;Node51</title>
<path fill="none" stroke="midnightblue" d="M5124.85,-128.88C5046.12,-122.45 4863.07,-106.63 4710,-87 4696.53,-85.27 4681.99,-83.12 4668.54,-81"/>
<polygon fill="midnightblue" stroke="midnightblue" points="5125,-132.41 5135.25,-129.73 5125.57,-125.43 5125,-132.41"/>
</g>
</g>
</svg>
