<?xml version="1.0" encoding="UTF-8" standalone="no"?>
<!DOCTYPE svg PUBLIC "-//W3C//DTD SVG 1.1//EN"
 "http://www.w3.org/Graphics/SVG/1.1/DTD/svg11.dtd">
<!-- Generated by graphviz version 2.43.0 (0)
 -->
<!-- Title: NaluParsingHelper.h Pages: 1 -->
<!--zoomable 207 -->
<svg id="main" version="1.1" xmlns="http://www.w3.org/2000/svg" xmlns:xlink="http://www.w3.org/1999/xlink" xml:space="preserve" onload="init(evt)">
<style type="text/css"><![CDATA[
.edge:hover path { stroke: red; }
.edge:hover polygon { stroke: red; fill: red; }
]]></style>
<script type="text/javascript"><![CDATA[
var edges = document.getElementsByTagName('g');
if (edges && edges.length) {
  for (var i=0;i<edges.length;i++) {
    if (edges[i].id.substr(0,4)=='edge') {
      edges[i].setAttribute('class','edge');
    }
  }
}
]]></script>
        <defs>
                <circle id="rim" cx="0" cy="0" r="7"/>
                <circle id="rim2" cx="0" cy="0" r="3.5"/>
                <g id="zoomPlus">
                        <use xlink:href="#rim" fill="#404040">
                                <set attributeName="fill" to="#808080" begin="zoomplus.mouseover" end="zoomplus.mouseout"/>
                        </use>
                        <path d="M-4,0h8M0,-4v8" fill="none" stroke="white" stroke-width="1.5" pointer-events="none"/>
                </g>
                <g id="zoomMin">
                        <use xlink:href="#rim" fill="#404040">
                                <set attributeName="fill" to="#808080" begin="zoomminus.mouseover" end="zoomminus.mouseout"/>
                        </use>
                        <path d="M-4,0h8" fill="none" stroke="white" stroke-width="1.5" pointer-events="none"/>
                </g>
                <g id="dirArrow">
                        <path fill="none" stroke="white" stroke-width="1.5" d="M0,-3.0v7 M-2.5,-0.5L0,-3.0L2.5,-0.5"/>
                </g>
               <g id="resetDef">
                       <use xlink:href="#rim2" fill="#404040">
                               <set attributeName="fill" to="#808080" begin="reset.mouseover" end="reset.mouseout"/>
                       </use>
               </g>
        </defs>

<script type="text/javascript">
var viewWidth = 6111;
var viewHeight = 207;
var sectionId = 'dynsection-1';
</script>
<script xlink:href="svgpan.js"/>
<svg id="graph" class="graph">
<g id="viewport">
<title>NaluParsingHelper.h</title>
<polygon fill="white" stroke="transparent" points="-4,4 -4,-203 6107,-203 6107,4 -4,4"/>
<!-- Node1 -->
<g id="node1" class="node">
<title>Node1</title>
<g id="a_node1"><a xlink:title=" ">
<polygon fill="#bfbfbf" stroke="black" points="5903,-179.5 5903,-198.5 6018,-198.5 6018,-179.5 5903,-179.5"/>
<text text-anchor="middle" x="5960.5" y="-186.5" font-family="Helvetica,sans-Serif" font-size="10.00">NaluParsingHelper.h</text>
</a>
</g>
</g>
<!-- Node2 -->
<g id="node2" class="node">
<title>Node2</title>
<g id="a_node2"><a xlink:href="_nalu_parsing_8h.html" target="_top" xlink:title=" ">
<polygon fill="white" stroke="red" points="3290,-123.5 3290,-142.5 3373,-142.5 3373,-123.5 3290,-123.5"/>
<text text-anchor="middle" x="3331.5" y="-130.5" font-family="Helvetica,sans-Serif" font-size="10.00">NaluParsing.h</text>
</a>
</g>
</g>
<!-- Node1&#45;&gt;Node2 -->
<g id="edge1" class="edge">
<title>Node1&#45;&gt;Node2</title>
<path fill="none" stroke="midnightblue" d="M5892.6,-186.61C5514.53,-178.84 3675.2,-141.06 3373.43,-134.86"/>
<polygon fill="midnightblue" stroke="midnightblue" points="5892.77,-190.11 5902.84,-186.82 5892.91,-183.11 5892.77,-190.11"/>
</g>
<!-- Node46 -->
<g id="node44" class="node">
<title>Node46</title>
<g id="a_node44"><a xlink:href="_realm_8_c.html" target="_top" xlink:title=" ">
<polygon fill="white" stroke="black" points="5912.5,-62 5912.5,-81 5970.5,-81 5970.5,-62 5912.5,-62"/>
<text text-anchor="middle" x="5941.5" y="-69" font-family="Helvetica,sans-Serif" font-size="10.00">Realm.C</text>
</a>
</g>
</g>
<!-- Node1&#45;&gt;Node46 -->
<g id="edge52" class="edge">
<title>Node1&#45;&gt;Node46</title>
<path fill="none" stroke="midnightblue" d="M5957.4,-169.16C5953.24,-143.87 5946.01,-99.94 5942.94,-81.28"/>
<polygon fill="midnightblue" stroke="midnightblue" points="5954,-170.02 5959.07,-179.32 5960.9,-168.88 5954,-170.02"/>
</g>
<!-- Node66 -->
<g id="node49" class="node">
<title>Node66</title>
<g id="a_node49"><a xlink:href="_transfer_8_c.html" target="_top" xlink:title=" ">
<polygon fill="white" stroke="black" points="5989,-62 5989,-81 6054,-81 6054,-62 5989,-62"/>
<text text-anchor="middle" x="6021.5" y="-69" font-family="Helvetica,sans-Serif" font-size="10.00">Transfer.C</text>
</a>
</g>
</g>
<!-- Node1&#45;&gt;Node66 -->
<g id="edge53" class="edge">
<title>Node1&#45;&gt;Node66</title>
<path fill="none" stroke="midnightblue" d="M5969.91,-170.18C5983.18,-145.06 6006.88,-100.19 6016.86,-81.28"/>
<polygon fill="midnightblue" stroke="midnightblue" points="5966.66,-168.84 5965.08,-179.32 5972.85,-172.11 5966.66,-168.84"/>
</g>
<!-- Node67 -->
<g id="node50" class="node">
<title>Node67</title>
<g id="a_node50"><a xlink:href="_aero_container_8_c.html" target="_top" xlink:title=" ">
<polygon fill="white" stroke="black" points="6008,-123.5 6008,-142.5 6103,-142.5 6103,-123.5 6008,-123.5"/>
<text text-anchor="middle" x="6055.5" y="-130.5" font-family="Helvetica,sans-Serif" font-size="10.00">AeroContainer.C</text>
</a>
</g>
</g>
<!-- Node1&#45;&gt;Node67 -->
<g id="edge51" class="edge">
<title>Node1&#45;&gt;Node67</title>
<path fill="none" stroke="midnightblue" d="M5984.82,-174.18C6002.3,-164.24 6025.33,-151.15 6040.27,-142.65"/>
<polygon fill="midnightblue" stroke="midnightblue" points="5982.73,-171.34 5975.76,-179.32 5986.19,-177.43 5982.73,-171.34"/>
</g>
<!-- Node3 -->
<g id="node3" class="node">
<title>Node3</title>
<g id="a_node3"><a xlink:href="_actuator_info_8h.html" target="_top" xlink:title=" ">
<polygon fill="white" stroke="red" points="5654.5,-62 5654.5,-81 5740.5,-81 5740.5,-62 5654.5,-62"/>
<text text-anchor="middle" x="5697.5" y="-69" font-family="Helvetica,sans-Serif" font-size="10.00">ActuatorInfo.h</text>
</a>
</g>
</g>
<!-- Node2&#45;&gt;Node3 -->
<g id="edge2" class="edge">
<title>Node2&#45;&gt;Node3</title>
<path fill="none" stroke="midnightblue" d="M3383.69,-131.77C3705.6,-130.28 5415.17,-120.8 5645.5,-87 5654.22,-85.72 5663.54,-83.43 5671.86,-81.03"/>
<polygon fill="midnightblue" stroke="midnightblue" points="3383.24,-128.28 3373.26,-131.82 3383.28,-135.28 3383.24,-128.28"/>
</g>
<!-- Node5 -->
<g id="node4" class="node">
<title>Node5</title>
<g id="a_node4"><a xlink:href="_actuator_parsing_8_c.html" target="_top" xlink:title=" ">
<polygon fill="white" stroke="black" points="5681,-0.5 5681,-19.5 5784,-19.5 5784,-0.5 5681,-0.5"/>
<text text-anchor="middle" x="5732.5" y="-7.5" font-family="Helvetica,sans-Serif" font-size="10.00">ActuatorParsing.C</text>
</a>
</g>
</g>
<!-- Node2&#45;&gt;Node5 -->
<g id="edge8" class="edge">
<title>Node2&#45;&gt;Node5</title>
<path fill="none" stroke="midnightblue" d="M3383.2,-132.03C3730.08,-132.12 5706.58,-130.73 5749.5,-87 5767.59,-68.57 5749.22,-35.34 5738.73,-19.65"/>
<polygon fill="midnightblue" stroke="midnightblue" points="3383.18,-128.53 3373.18,-132.03 3383.18,-135.53 3383.18,-128.53"/>
</g>
<!-- Node6 -->
<g id="node5" class="node">
<title>Node6</title>
<g id="a_node5"><a xlink:href="_hypre_n_g_p_8h.html" target="_top" xlink:title=" ">
<polygon fill="white" stroke="black" points="5562.5,-62 5562.5,-81 5636.5,-81 5636.5,-62 5562.5,-62"/>
<text text-anchor="middle" x="5599.5" y="-69" font-family="Helvetica,sans-Serif" font-size="10.00">HypreNGP.h</text>
</a>
</g>
</g>
<!-- Node2&#45;&gt;Node6 -->
<g id="edge4" class="edge">
<title>Node2&#45;&gt;Node6</title>
<path fill="none" stroke="midnightblue" d="M3383.62,-131.83C3697.84,-130.71 5333.39,-123.16 5553.5,-87 5561.27,-85.72 5569.53,-83.43 5576.88,-81.04"/>
<polygon fill="midnightblue" stroke="midnightblue" points="3383.42,-128.33 3373.43,-131.87 3383.45,-135.33 3383.42,-128.33"/>
</g>
<!-- Node7 -->
<g id="node6" class="node">
<title>Node7</title>
<g id="a_node6"><a xlink:href="_a_b_l_wall_fluxes_alg_8h.html" target="_top" xlink:title=" ">
<polygon fill="white" stroke="red" points="5432.5,-62 5432.5,-81 5544.5,-81 5544.5,-62 5432.5,-62"/>
<text text-anchor="middle" x="5488.5" y="-69" font-family="Helvetica,sans-Serif" font-size="10.00">ABLWallFluxesAlg.h</text>
</a>
</g>
</g>
<!-- Node2&#45;&gt;Node7 -->
<g id="edge5" class="edge">
<title>Node2&#45;&gt;Node7</title>
<path fill="none" stroke="midnightblue" d="M3383.65,-132.17C3665.24,-132.87 5006.75,-133.69 5418.5,-87 5429.97,-85.7 5442.34,-83.43 5453.45,-81.07"/>
<polygon fill="midnightblue" stroke="midnightblue" points="3383.32,-128.67 3373.32,-132.14 3383.31,-135.67 3383.32,-128.67"/>
</g>
<!-- Node8 -->
<g id="node7" class="node">
<title>Node8</title>
<g id="a_node7"><a xlink:href="_low_mach_equation_system_8_c.html" target="_top" xlink:title=" ">
<polygon fill="white" stroke="black" points="5370.5,-0.5 5370.5,-19.5 5522.5,-19.5 5522.5,-0.5 5370.5,-0.5"/>
<text text-anchor="middle" x="5446.5" y="-7.5" font-family="Helvetica,sans-Serif" font-size="10.00">LowMachEquationSystem.C</text>
</a>
</g>
</g>
<!-- Node2&#45;&gt;Node8 -->
<g id="edge27" class="edge">
<title>Node2&#45;&gt;Node8</title>
<path fill="none" stroke="midnightblue" d="M3383.26,-132.09C3693.1,-132.46 5291.95,-132.19 5384.5,-87 5414.19,-72.51 5434.48,-36.33 5442.58,-19.66"/>
<polygon fill="midnightblue" stroke="midnightblue" points="3383.21,-128.59 3373.21,-132.08 3383.2,-135.59 3383.21,-128.59"/>
</g>
<!-- Node10 -->
<g id="node8" class="node">
<title>Node10</title>
<g id="a_node8"><a xlink:href="_actuator_model_8_c.html" target="_top" xlink:title=" ">
<polygon fill="white" stroke="black" points="5796.5,-62 5796.5,-81 5894.5,-81 5894.5,-62 5796.5,-62"/>
<text text-anchor="middle" x="5845.5" y="-69" font-family="Helvetica,sans-Serif" font-size="10.00">ActuatorModel.C</text>
</a>
</g>
</g>
<!-- Node2&#45;&gt;Node10 -->
<g id="edge7" class="edge">
<title>Node2&#45;&gt;Node10</title>
<path fill="none" stroke="midnightblue" d="M3383.57,-131.69C3716.14,-129.65 5537,-117.17 5782.5,-87 5792.97,-85.71 5804.25,-83.42 5814.32,-81.02"/>
<polygon fill="midnightblue" stroke="midnightblue" points="3383.24,-128.2 3373.26,-131.76 3383.28,-135.2 3383.24,-128.2"/>
</g>
<!-- Node11 -->
<g id="node9" class="node">
<title>Node11</title>
<g id="a_node9"><a xlink:href="_actuator_parsing_f_a_s_t_8_c.html" target="_top" xlink:title=" ">
<polygon fill="white" stroke="black" points="0,-62 0,-81 125,-81 125,-62 0,-62"/>
<text text-anchor="middle" x="62.5" y="-69" font-family="Helvetica,sans-Serif" font-size="10.00">ActuatorParsingFAST.C</text>
</a>
</g>
</g>
<!-- Node2&#45;&gt;Node11 -->
<g id="edge9" class="edge">
<title>Node2&#45;&gt;Node11</title>
<path fill="none" stroke="midnightblue" d="M3279.71,-131.86C2892.72,-130.72 458.57,-122.17 133.5,-87 121.74,-85.73 109.05,-83.44 97.69,-81.04"/>
<polygon fill="midnightblue" stroke="midnightblue" points="3279.77,-135.36 3289.78,-131.89 3279.79,-128.36 3279.77,-135.36"/>
</g>
<!-- Node12 -->
<g id="node10" class="node">
<title>Node12</title>
<g id="a_node10"><a xlink:href="_actuator_parsing_simple_8_c.html" target="_top" xlink:title=" ">
<polygon fill="white" stroke="black" points="143,-62 143,-81 280,-81 280,-62 143,-62"/>
<text text-anchor="middle" x="211.5" y="-69" font-family="Helvetica,sans-Serif" font-size="10.00">ActuatorParsingSimple.C</text>
</a>
</g>
</g>
<!-- Node2&#45;&gt;Node12 -->
<g id="edge10" class="edge">
<title>Node2&#45;&gt;Node12</title>
<path fill="none" stroke="midnightblue" d="M3279.9,-131.77C2904.37,-130.03 597.41,-118.14 288.5,-87 275.78,-85.72 262.02,-83.42 249.69,-81.03"/>
<polygon fill="midnightblue" stroke="midnightblue" points="3279.92,-135.27 3289.94,-131.82 3279.95,-128.27 3279.92,-135.27"/>
</g>
<!-- Node13 -->
<g id="node11" class="node">
<title>Node13</title>
<g id="a_node11"><a xlink:href="_utilities_actuator_8_c.html" target="_top" xlink:title=" ">
<polygon fill="white" stroke="black" points="298,-62 298,-81 403,-81 403,-62 298,-62"/>
<text text-anchor="middle" x="350.5" y="-69" font-family="Helvetica,sans-Serif" font-size="10.00">UtilitiesActuator.C</text>
</a>
</g>
</g>
<!-- Node2&#45;&gt;Node13 -->
<g id="edge11" class="edge">
<title>Node2&#45;&gt;Node13</title>
<path fill="none" stroke="midnightblue" d="M3279.68,-131.88C2912.25,-130.96 706.51,-123.89 411.5,-87 401.35,-85.73 390.43,-83.44 380.67,-81.05"/>
<polygon fill="midnightblue" stroke="midnightblue" points="3279.76,-135.38 3289.77,-131.91 3279.78,-128.38 3279.76,-135.38"/>
</g>
<!-- Node14 -->
<g id="node12" class="node">
<title>Node14</title>
<g id="a_node12"><a xlink:href="_f_s_iturbine_8_c.html" target="_top" xlink:title=" ">
<polygon fill="white" stroke="black" points="421,-62 421,-81 496,-81 496,-62 421,-62"/>
<text text-anchor="middle" x="458.5" y="-69" font-family="Helvetica,sans-Serif" font-size="10.00">FSIturbine.C</text>
</a>
</g>
</g>
<!-- Node2&#45;&gt;Node14 -->
<g id="edge12" class="edge">
<title>Node2&#45;&gt;Node14</title>
<path fill="none" stroke="midnightblue" d="M3279.62,-132.08C2918.67,-132.49 788.19,-132.97 504.5,-87 496.73,-85.74 488.46,-83.45 481.11,-81.06"/>
<polygon fill="midnightblue" stroke="midnightblue" points="3279.78,-135.58 3289.78,-132.06 3279.77,-128.58 3279.78,-135.58"/>
</g>
<!-- Node15 -->
<g id="node13" class="node">
<title>Node15</title>
<g id="a_node13"><a xlink:href="_openfast_f_s_i_8_c.html" target="_top" xlink:title=" ">
<polygon fill="white" stroke="black" points="514,-62 514,-81 599,-81 599,-62 514,-62"/>
<text text-anchor="middle" x="556.5" y="-69" font-family="Helvetica,sans-Serif" font-size="10.00">OpenfastFSI.C</text>
</a>
</g>
</g>
<!-- Node2&#45;&gt;Node15 -->
<g id="edge13" class="edge">
<title>Node2&#45;&gt;Node15</title>
<path fill="none" stroke="midnightblue" d="M3279.61,-131.94C2926.47,-131.42 881.94,-126.71 608.5,-87 599.78,-85.73 590.45,-83.44 582.14,-81.05"/>
<polygon fill="midnightblue" stroke="midnightblue" points="3279.8,-135.44 3289.8,-131.95 3279.81,-128.44 3279.8,-135.44"/>
</g>
<!-- Node16 -->
<g id="node14" class="node">
<title>Node16</title>
<g id="a_node14"><a xlink:href="_averaging_info_8_c.html" target="_top" xlink:title=" ">
<polygon fill="white" stroke="black" points="617.5,-62 617.5,-81 711.5,-81 711.5,-62 617.5,-62"/>
<text text-anchor="middle" x="664.5" y="-69" font-family="Helvetica,sans-Serif" font-size="10.00">AveragingInfo.C</text>
</a>
</g>
</g>
<!-- Node2&#45;&gt;Node16 -->
<g id="edge14" class="edge">
<title>Node2&#45;&gt;Node16</title>
<path fill="none" stroke="midnightblue" d="M3279.33,-131.84C2933.93,-130.69 982.41,-122.65 720.5,-87 711.15,-85.73 701.11,-83.43 692.16,-81.04"/>
<polygon fill="midnightblue" stroke="midnightblue" points="3279.53,-135.34 3289.54,-131.87 3279.55,-128.34 3279.53,-135.34"/>
</g>
<!-- Node17 -->
<g id="node15" class="node">
<title>Node17</title>
<g id="a_node15"><a xlink:href="_boundary_conditions_8_c.html" target="_top" xlink:title=" ">
<polygon fill="white" stroke="black" points="730,-62 730,-81 855,-81 855,-62 730,-62"/>
<text text-anchor="middle" x="792.5" y="-69" font-family="Helvetica,sans-Serif" font-size="10.00">BoundaryConditions.C</text>
</a>
</g>
</g>
<!-- Node2&#45;&gt;Node17 -->
<g id="edge15" class="edge">
<title>Node2&#45;&gt;Node17</title>
<path fill="none" stroke="midnightblue" d="M3279.64,-131.62C2946.37,-129.08 1112.13,-113.97 864.5,-87 852.58,-85.7 839.71,-83.4 828.19,-81.01"/>
<polygon fill="midnightblue" stroke="midnightblue" points="3279.93,-135.12 3289.96,-131.69 3279.98,-128.12 3279.93,-135.12"/>
</g>
<!-- Node18 -->
<g id="node16" class="node">
<title>Node18</title>
<g id="a_node16"><a xlink:href="_chien_k_epsilon_equation_system_8_c.html" target="_top" xlink:title=" ">
<polygon fill="white" stroke="black" points="873.5,-62 873.5,-81 1049.5,-81 1049.5,-62 873.5,-62"/>
<text text-anchor="middle" x="961.5" y="-69" font-family="Helvetica,sans-Serif" font-size="10.00">ChienKEpsilonEquationSystem.C</text>
</a>
</g>
</g>
<!-- Node2&#45;&gt;Node18 -->
<g id="edge16" class="edge">
<title>Node2&#45;&gt;Node18</title>
<path fill="none" stroke="midnightblue" d="M3279.57,-131.88C2983.95,-131.06 1510.62,-125.11 1058.5,-87 1042.72,-85.67 1025.6,-83.39 1010.21,-81.03"/>
<polygon fill="midnightblue" stroke="midnightblue" points="3279.98,-135.38 3289.99,-131.91 3280,-128.38 3279.98,-135.38"/>
</g>
<!-- Node19 -->
<g id="node17" class="node">
<title>Node19</title>
<g id="a_node17"><a xlink:href="_compute_wall_friction_velocity_algorithm_8_c.html" target="_top" xlink:title=" ">
<polygon fill="white" stroke="black" points="1068,-56.5 1068,-86.5 1225,-86.5 1225,-56.5 1068,-56.5"/>
<text text-anchor="start" x="1076" y="-74.5" font-family="Helvetica,sans-Serif" font-size="10.00">ComputeWallFrictionVelocity</text>
<text text-anchor="middle" x="1146.5" y="-63.5" font-family="Helvetica,sans-Serif" font-size="10.00">Algorithm.C</text>
</a>
</g>
</g>
<!-- Node2&#45;&gt;Node19 -->
<g id="edge17" class="edge">
<title>Node2&#45;&gt;Node19</title>
<path fill="none" stroke="midnightblue" d="M3279.56,-131.9C2997.63,-131.2 1648.48,-125.83 1233.5,-87 1230.76,-86.74 1227.97,-86.45 1225.15,-86.13"/>
<polygon fill="midnightblue" stroke="midnightblue" points="3279.9,-135.4 3289.9,-131.92 3279.91,-128.4 3279.9,-135.4"/>
</g>
<!-- Node20 -->
<g id="node18" class="node">
<title>Node20</title>
<g id="a_node18"><a xlink:href="_data_probe_post_processing_8_c.html" target="_top" xlink:title=" ">
<polygon fill="white" stroke="black" points="1243,-62 1243,-81 1394,-81 1394,-62 1243,-62"/>
<text text-anchor="middle" x="1318.5" y="-69" font-family="Helvetica,sans-Serif" font-size="10.00">DataProbePostProcessing.C</text>
</a>
</g>
</g>
<!-- Node2&#45;&gt;Node20 -->
<g id="edge18" class="edge">
<title>Node2&#45;&gt;Node20</title>
<path fill="none" stroke="midnightblue" d="M3279.5,-131.83C3011.26,-130.77 1781.89,-123.97 1402.5,-87 1388.8,-85.67 1373.97,-83.39 1360.64,-81.03"/>
<polygon fill="midnightblue" stroke="midnightblue" points="3279.72,-135.33 3289.73,-131.87 3279.75,-128.33 3279.72,-135.33"/>
</g>
<!-- Node21 -->
<g id="node19" class="node">
<title>Node21</title>
<g id="a_node19"><a xlink:href="_enthalpy_equation_system_8_c.html" target="_top" xlink:title=" ">
<polygon fill="white" stroke="black" points="1412,-62 1412,-81 1561,-81 1561,-62 1412,-62"/>
<text text-anchor="middle" x="1486.5" y="-69" font-family="Helvetica,sans-Serif" font-size="10.00">EnthalpyEquationSystem.C</text>
</a>
</g>
</g>
<!-- Node2&#45;&gt;Node21 -->
<g id="edge19" class="edge">
<title>Node2&#45;&gt;Node21</title>
<path fill="none" stroke="midnightblue" d="M3279.98,-131.71C3026.93,-130.13 1914.13,-121.32 1569.5,-87 1555.96,-85.65 1541.31,-83.37 1528.13,-81.01"/>
<polygon fill="midnightblue" stroke="midnightblue" points="3279.98,-135.21 3290,-131.77 3280.02,-128.21 3279.98,-135.21"/>
</g>
<!-- Node22 -->
<g id="node20" class="node">
<title>Node22</title>
<g id="a_node20"><a xlink:href="_equation_system_8_c.html" target="_top" xlink:title=" ">
<polygon fill="white" stroke="black" points="1578.5,-62 1578.5,-81 1684.5,-81 1684.5,-62 1578.5,-62"/>
<text text-anchor="middle" x="1631.5" y="-69" font-family="Helvetica,sans-Serif" font-size="10.00">EquationSystem.C</text>
</a>
</g>
</g>
<!-- Node2&#45;&gt;Node22 -->
<g id="edge20" class="edge">
<title>Node2&#45;&gt;Node22</title>
<path fill="none" stroke="midnightblue" d="M3279.32,-131.99C3035.96,-131.7 2010.94,-128.05 1693.5,-87 1683.3,-85.68 1672.33,-83.41 1662.5,-81.05"/>
<polygon fill="midnightblue" stroke="midnightblue" points="3279.65,-135.49 3289.65,-132 3279.65,-128.49 3279.65,-135.49"/>
</g>
<!-- Node23 -->
<g id="node21" class="node">
<title>Node23</title>
<g id="a_node21"><a xlink:href="_equation_systems_8_c.html" target="_top" xlink:title=" ">
<polygon fill="white" stroke="black" points="1703,-62 1703,-81 1814,-81 1814,-62 1703,-62"/>
<text text-anchor="middle" x="1758.5" y="-69" font-family="Helvetica,sans-Serif" font-size="10.00">EquationSystems.C</text>
</a>
</g>
</g>
<!-- Node2&#45;&gt;Node23 -->
<g id="edge21" class="edge">
<title>Node2&#45;&gt;Node23</title>
<path fill="none" stroke="midnightblue" d="M3279.73,-131.8C3049.04,-130.69 2113.46,-123.95 1822.5,-87 1811.99,-85.67 1800.67,-83.39 1790.51,-81.03"/>
<polygon fill="midnightblue" stroke="midnightblue" points="3279.84,-135.3 3289.86,-131.84 3279.87,-128.3 3279.84,-135.3"/>
</g>
<!-- Node24 -->
<g id="node22" class="node">
<title>Node24</title>
<g id="a_node22"><a xlink:href="_gamma_equation_system_8_c.html" target="_top" xlink:title=" ">
<polygon fill="white" stroke="black" points="1832,-62 1832,-81 1977,-81 1977,-62 1832,-62"/>
<text text-anchor="middle" x="1904.5" y="-69" font-family="Helvetica,sans-Serif" font-size="10.00">GammaEquationSystem.C</text>
</a>
</g>
</g>
<!-- Node2&#45;&gt;Node24 -->
<g id="edge22" class="edge">
<title>Node2&#45;&gt;Node24</title>
<path fill="none" stroke="midnightblue" d="M3279.89,-131.25C3065.48,-127.99 2244.28,-113.97 1986.5,-87 1973.27,-85.62 1958.96,-83.35 1946.05,-81.02"/>
<polygon fill="midnightblue" stroke="midnightblue" points="3279.88,-134.75 3289.93,-131.4 3279.99,-127.75 3279.88,-134.75"/>
</g>
<!-- Node25 -->
<g id="node23" class="node">
<title>Node25</title>
<g id="a_node23"><a xlink:href="_initial_conditions_8_c.html" target="_top" xlink:title=" ">
<polygon fill="white" stroke="black" points="1995.5,-62 1995.5,-81 2101.5,-81 2101.5,-62 1995.5,-62"/>
<text text-anchor="middle" x="2048.5" y="-69" font-family="Helvetica,sans-Serif" font-size="10.00">InitialConditions.C</text>
</a>
</g>
</g>
<!-- Node2&#45;&gt;Node25 -->
<g id="edge23" class="edge">
<title>Node2&#45;&gt;Node25</title>
<path fill="none" stroke="midnightblue" d="M3279.71,-131.42C3077.61,-128.96 2341.82,-118.02 2110.5,-87 2100.42,-85.65 2089.58,-83.4 2079.82,-81.06"/>
<polygon fill="midnightblue" stroke="midnightblue" points="3279.72,-134.92 3289.76,-131.54 3279.8,-127.92 3279.72,-134.92"/>
</g>
<!-- Node26 -->
<g id="node24" class="node">
<title>Node26</title>
<g id="a_node24"><a xlink:href="_input_output_realm_8_c.html" target="_top" xlink:title=" ">
<polygon fill="white" stroke="black" points="2119.5,-62 2119.5,-81 2235.5,-81 2235.5,-62 2119.5,-62"/>
<text text-anchor="middle" x="2177.5" y="-69" font-family="Helvetica,sans-Serif" font-size="10.00">InputOutputRealm.C</text>
</a>
</g>
</g>
<!-- Node2&#45;&gt;Node26 -->
<g id="edge24" class="edge">
<title>Node2&#45;&gt;Node26</title>
<path fill="none" stroke="midnightblue" d="M3279.63,-131.03C3091.94,-127.36 2448.48,-113.1 2244.5,-87 2233.64,-85.61 2221.93,-83.35 2211.39,-81.02"/>
<polygon fill="midnightblue" stroke="midnightblue" points="3279.72,-134.54 3289.78,-131.23 3279.85,-127.54 3279.72,-134.54"/>
</g>
<!-- Node27 -->
<g id="node25" class="node">
<title>Node27</title>
<g id="a_node25"><a xlink:href="_linear_solver_config_8_c.html" target="_top" xlink:title=" ">
<polygon fill="white" stroke="black" points="2253.5,-62 2253.5,-81 2371.5,-81 2371.5,-62 2253.5,-62"/>
<text text-anchor="middle" x="2312.5" y="-69" font-family="Helvetica,sans-Serif" font-size="10.00">LinearSolverConfig.C</text>
</a>
</g>
</g>
<!-- Node2&#45;&gt;Node27 -->
<g id="edge25" class="edge">
<title>Node2&#45;&gt;Node27</title>
<path fill="none" stroke="midnightblue" d="M3279.28,-132.5C3135.37,-133.25 2721.13,-131.08 2380.5,-87 2369.61,-85.59 2357.86,-83.35 2347.26,-81.05"/>
<polygon fill="midnightblue" stroke="midnightblue" points="3279.59,-136 3289.57,-132.44 3279.55,-129 3279.59,-136"/>
</g>
<!-- Node28 -->
<g id="node26" class="node">
<title>Node28</title>
<g id="a_node26"><a xlink:href="_linear_solvers_8_c.html" target="_top" xlink:title=" ">
<polygon fill="white" stroke="black" points="2389.5,-62 2389.5,-81 2481.5,-81 2481.5,-62 2389.5,-62"/>
<text text-anchor="middle" x="2435.5" y="-69" font-family="Helvetica,sans-Serif" font-size="10.00">LinearSolvers.C</text>
</a>
</g>
</g>
<!-- Node2&#45;&gt;Node28 -->
<g id="edge26" class="edge">
<title>Node2&#45;&gt;Node28</title>
<path fill="none" stroke="midnightblue" d="M3279.36,-130.61C3120.45,-126.14 2643.71,-111.04 2490.5,-87 2481.62,-85.61 2472.11,-83.37 2463.53,-81.07"/>
<polygon fill="midnightblue" stroke="midnightblue" points="3279.71,-134.12 3289.8,-130.9 3279.91,-127.12 3279.71,-134.12"/>
</g>
<!-- Node29 -->
<g id="node27" class="node">
<title>Node29</title>
<g id="a_node27"><a xlink:href="_material_property_8_c.html" target="_top" xlink:title=" ">
<polygon fill="white" stroke="black" points="2500,-62 2500,-81 2607,-81 2607,-62 2500,-62"/>
<text text-anchor="middle" x="2553.5" y="-69" font-family="Helvetica,sans-Serif" font-size="10.00">MaterialProperty.C</text>
</a>
</g>
</g>
<!-- Node2&#45;&gt;Node29 -->
<g id="edge28" class="edge">
<title>Node2&#45;&gt;Node29</title>
<path fill="none" stroke="midnightblue" d="M3279.45,-131.7C3160.95,-130.36 2862.2,-123.34 2615.5,-87 2605.66,-85.55 2595.07,-83.33 2585.48,-81.05"/>
<polygon fill="midnightblue" stroke="midnightblue" points="3279.65,-135.2 3289.68,-131.8 3279.72,-128.2 3279.65,-135.2"/>
</g>
<!-- Node30 -->
<g id="node28" class="node">
<title>Node30</title>
<g id="a_node28"><a xlink:href="_material_propertys_8_c.html" target="_top" xlink:title=" ">
<polygon fill="white" stroke="black" points="2625,-62 2625,-81 2738,-81 2738,-62 2625,-62"/>
<text text-anchor="middle" x="2681.5" y="-69" font-family="Helvetica,sans-Serif" font-size="10.00">MaterialPropertys.C</text>
</a>
</g>
</g>
<!-- Node2&#45;&gt;Node30 -->
<g id="edge29" class="edge">
<title>Node2&#45;&gt;Node30</title>
<path fill="none" stroke="midnightblue" d="M3279.8,-130.44C3177.62,-126.81 2942.75,-115.83 2747.5,-87 2737.17,-85.47 2726.05,-83.26 2715.93,-81.01"/>
<polygon fill="midnightblue" stroke="midnightblue" points="3279.74,-133.93 3289.86,-130.78 3279.98,-126.94 3279.74,-133.93"/>
</g>
<!-- Node31 -->
<g id="node29" class="node">
<title>Node31</title>
<g id="a_node29"><a xlink:href="_matrix_free_heat_cond_equation_system_8_c.html" target="_top" xlink:title=" ">
<polygon fill="white" stroke="black" points="2756.5,-56.5 2756.5,-86.5 2916.5,-86.5 2916.5,-56.5 2756.5,-56.5"/>
<text text-anchor="start" x="2764.5" y="-74.5" font-family="Helvetica,sans-Serif" font-size="10.00">MatrixFreeHeatCondEquation</text>
<text text-anchor="middle" x="2836.5" y="-63.5" font-family="Helvetica,sans-Serif" font-size="10.00">System.C</text>
</a>
</g>
</g>
<!-- Node2&#45;&gt;Node31 -->
<g id="edge30" class="edge">
<title>Node2&#45;&gt;Node31</title>
<path fill="none" stroke="midnightblue" d="M3279.5,-127.09C3202.16,-119.61 3052.33,-104.35 2925.5,-87 2922.55,-86.6 2919.55,-86.17 2916.52,-85.74"/>
<polygon fill="midnightblue" stroke="midnightblue" points="3279.63,-130.62 3289.92,-128.1 3280.3,-123.66 3279.63,-130.62"/>
</g>
<!-- Node32 -->
<g id="node30" class="node">
<title>Node32</title>
<g id="a_node30"><a xlink:href="_matrix_free_low_mach_equation_system_8_c.html" target="_top" xlink:title=" ">
<polygon fill="white" stroke="black" points="2934.5,-56.5 2934.5,-86.5 3092.5,-86.5 3092.5,-56.5 2934.5,-56.5"/>
<text text-anchor="start" x="2942.5" y="-74.5" font-family="Helvetica,sans-Serif" font-size="10.00">MatrixFreeLowMachEquation</text>
<text text-anchor="middle" x="3013.5" y="-63.5" font-family="Helvetica,sans-Serif" font-size="10.00">System.C</text>
</a>
</g>
</g>
<!-- Node2&#45;&gt;Node32 -->
<g id="edge31" class="edge">
<title>Node2&#45;&gt;Node32</title>
<path fill="none" stroke="midnightblue" d="M3279.95,-122.35C3228.08,-112.65 3147.54,-97.58 3088.58,-86.55"/>
<polygon fill="midnightblue" stroke="midnightblue" points="3279.45,-125.82 3289.93,-124.22 3280.74,-118.94 3279.45,-125.82"/>
</g>
<!-- Node33 -->
<g id="node31" class="node">
<title>Node33</title>
<g id="a_node31"><a xlink:href="_frame_base_8_c.html" target="_top" xlink:title=" ">
<polygon fill="white" stroke="black" points="3111,-62 3111,-81 3192,-81 3192,-62 3111,-62"/>
<text text-anchor="middle" x="3151.5" y="-69" font-family="Helvetica,sans-Serif" font-size="10.00">FrameBase.C</text>
</a>
</g>
</g>
<!-- Node2&#45;&gt;Node33 -->
<g id="edge32" class="edge">
<title>Node2&#45;&gt;Node33</title>
<path fill="none" stroke="midnightblue" d="M3295.9,-120.23C3260.91,-108.67 3208.36,-91.3 3177.24,-81.01"/>
<polygon fill="midnightblue" stroke="midnightblue" points="3295.12,-123.66 3305.71,-123.48 3297.31,-117.01 3295.12,-123.66"/>
</g>
<!-- Node34 -->
<g id="node32" class="node">
<title>Node34</title>
<g id="a_node32"><a xlink:href="_mesh_motion_alg_8_c.html" target="_top" xlink:title=" ">
<polygon fill="white" stroke="black" points="3210.5,-62 3210.5,-81 3312.5,-81 3312.5,-62 3210.5,-62"/>
<text text-anchor="middle" x="3261.5" y="-69" font-family="Helvetica,sans-Serif" font-size="10.00">MeshMotionAlg.C</text>
</a>
</g>
</g>
<!-- Node2&#45;&gt;Node34 -->
<g id="edge33" class="edge">
<title>Node2&#45;&gt;Node34</title>
<path fill="none" stroke="midnightblue" d="M3313.82,-116.97C3300.43,-105.59 3282.52,-90.37 3271.51,-81.01"/>
<polygon fill="midnightblue" stroke="midnightblue" points="3311.58,-119.67 3321.47,-123.48 3316.12,-114.33 3311.58,-119.67"/>
</g>
<!-- Node35 -->
<g id="node33" class="node">
<title>Node35</title>
<g id="a_node33"><a xlink:href="_mesh_transformation_alg_8_c.html" target="_top" xlink:title=" ">
<polygon fill="white" stroke="black" points="3330.5,-62 3330.5,-81 3472.5,-81 3472.5,-62 3330.5,-62"/>
<text text-anchor="middle" x="3401.5" y="-69" font-family="Helvetica,sans-Serif" font-size="10.00">MeshTransformationAlg.C</text>
</a>
</g>
</g>
<!-- Node2&#45;&gt;Node35 -->
<g id="edge34" class="edge">
<title>Node2&#45;&gt;Node35</title>
<path fill="none" stroke="midnightblue" d="M3349.18,-116.97C3362.57,-105.59 3380.48,-90.37 3391.49,-81.01"/>
<polygon fill="midnightblue" stroke="midnightblue" points="3346.88,-114.33 3341.53,-123.48 3351.42,-119.67 3346.88,-114.33"/>
</g>
<!-- Node36 -->
<g id="node34" class="node">
<title>Node36</title>
<g id="a_node34"><a xlink:href="_motion_deforming_interior_kernel_8_c.html" target="_top" xlink:title=" ">
<polygon fill="white" stroke="black" points="3490.5,-62 3490.5,-81 3668.5,-81 3668.5,-62 3490.5,-62"/>
<text text-anchor="middle" x="3579.5" y="-69" font-family="Helvetica,sans-Serif" font-size="10.00">MotionDeformingInteriorKernel.C</text>
</a>
</g>
</g>
<!-- Node2&#45;&gt;Node36 -->
<g id="edge35" class="edge">
<title>Node2&#45;&gt;Node36</title>
<path fill="none" stroke="midnightblue" d="M3376.87,-121.11C3425.01,-109.57 3500.05,-91.56 3544.03,-81.01"/>
<polygon fill="midnightblue" stroke="midnightblue" points="3375.94,-117.74 3367.03,-123.48 3377.57,-124.55 3375.94,-117.74"/>
</g>
<!-- Node37 -->
<g id="node35" class="node">
<title>Node37</title>
<g id="a_node35"><a xlink:href="_motion_oscillation_kernel_8_c.html" target="_top" xlink:title=" ">
<polygon fill="white" stroke="black" points="3687,-62 3687,-81 3830,-81 3830,-62 3687,-62"/>
<text text-anchor="middle" x="3758.5" y="-69" font-family="Helvetica,sans-Serif" font-size="10.00">MotionOscillationKernel.C</text>
</a>
</g>
</g>
<!-- Node2&#45;&gt;Node37 -->
<g id="edge36" class="edge">
<title>Node2&#45;&gt;Node37</title>
<path fill="none" stroke="midnightblue" d="M3383.12,-126.07C3450.83,-118.11 3573.3,-103.09 3677.5,-87 3689.08,-85.21 3701.55,-83.08 3713.15,-81.01"/>
<polygon fill="midnightblue" stroke="midnightblue" points="3382.66,-122.6 3373.13,-127.24 3383.47,-129.55 3382.66,-122.6"/>
</g>
<!-- Node38 -->
<g id="node36" class="node">
<title>Node38</title>
<g id="a_node36"><a xlink:href="_motion_rotation_kernel_8_c.html" target="_top" xlink:title=" ">
<polygon fill="white" stroke="black" points="3848.5,-62 3848.5,-81 3980.5,-81 3980.5,-62 3848.5,-62"/>
<text text-anchor="middle" x="3914.5" y="-69" font-family="Helvetica,sans-Serif" font-size="10.00">MotionRotationKernel.C</text>
</a>
</g>
</g>
<!-- Node2&#45;&gt;Node38 -->
<g id="edge37" class="edge">
<title>Node2&#45;&gt;Node38</title>
<path fill="none" stroke="midnightblue" d="M3383.21,-129.12C3475.14,-123.63 3672.9,-110.09 3838.5,-87 3850.07,-85.39 3862.56,-83.19 3874,-81"/>
<polygon fill="midnightblue" stroke="midnightblue" points="3382.84,-125.64 3373.06,-129.72 3383.25,-132.63 3382.84,-125.64"/>
</g>
<!-- Node39 -->
<g id="node37" class="node">
<title>Node39</title>
<g id="a_node37"><a xlink:href="_motion_scaling_kernel_8_c.html" target="_top" xlink:title=" ">
<polygon fill="white" stroke="black" points="3998.5,-62 3998.5,-81 4124.5,-81 4124.5,-62 3998.5,-62"/>
<text text-anchor="middle" x="4061.5" y="-69" font-family="Helvetica,sans-Serif" font-size="10.00">MotionScalingKernel.C</text>
</a>
</g>
</g>
<!-- Node2&#45;&gt;Node39 -->
<g id="edge38" class="edge">
<title>Node2&#45;&gt;Node39</title>
<path fill="none" stroke="midnightblue" d="M3383.55,-130.75C3495.09,-127.55 3765.23,-117.12 3989.5,-87 4000.75,-85.49 4012.88,-83.28 4023.92,-81.03"/>
<polygon fill="midnightblue" stroke="midnightblue" points="3383.16,-127.26 3373.26,-131.03 3383.36,-134.25 3383.16,-127.26"/>
</g>
<!-- Node40 -->
<g id="node38" class="node">
<title>Node40</title>
<g id="a_node38"><a xlink:href="_motion_translation_kernel_8_c.html" target="_top" xlink:title=" ">
<polygon fill="white" stroke="black" points="4142.5,-62 4142.5,-81 4286.5,-81 4286.5,-62 4142.5,-62"/>
<text text-anchor="middle" x="4214.5" y="-69" font-family="Helvetica,sans-Serif" font-size="10.00">MotionTranslationKernel.C</text>
</a>
</g>
</g>
<!-- Node2&#45;&gt;Node40 -->
<g id="edge39" class="edge">
<title>Node2&#45;&gt;Node40</title>
<path fill="none" stroke="midnightblue" d="M3383.7,-131.26C3511.83,-128.96 3851.93,-119.98 4133.5,-87 4146.13,-85.52 4159.77,-83.32 4172.18,-81.07"/>
<polygon fill="midnightblue" stroke="midnightblue" points="3383.34,-127.76 3373.4,-131.44 3383.46,-134.76 3383.34,-127.76"/>
</g>
<!-- Node41 -->
<g id="node39" class="node">
<title>Node41</title>
<g id="a_node39"><a xlink:href="_motion_waves_kernel_8_c.html" target="_top" xlink:title=" ">
<polygon fill="white" stroke="black" points="4305,-62 4305,-81 4428,-81 4428,-62 4305,-62"/>
<text text-anchor="middle" x="4366.5" y="-69" font-family="Helvetica,sans-Serif" font-size="10.00">MotionWavesKernel.C</text>
</a>
</g>
</g>
<!-- Node2&#45;&gt;Node41 -->
<g id="edge40" class="edge">
<title>Node2&#45;&gt;Node41</title>
<path fill="none" stroke="midnightblue" d="M3383.39,-132.39C3528.27,-132.88 3949.21,-130.18 4295.5,-87 4306.86,-85.58 4319.12,-83.34 4330.19,-81.04"/>
<polygon fill="midnightblue" stroke="midnightblue" points="3383.05,-128.89 3373.04,-132.35 3383.02,-135.89 3383.05,-128.89"/>
</g>
<!-- Node42 -->
<g id="node40" class="node">
<title>Node42</title>
<g id="a_node40"><a xlink:href="_turbine_surrogate_kernel_8_c.html" target="_top" xlink:title=" ">
<polygon fill="white" stroke="black" points="4446.5,-62 4446.5,-81 4586.5,-81 4586.5,-62 4446.5,-62"/>
<text text-anchor="middle" x="4516.5" y="-69" font-family="Helvetica,sans-Serif" font-size="10.00">TurbineSurrogateKernel.C</text>
</a>
</g>
</g>
<!-- Node2&#45;&gt;Node42 -->
<g id="edge41" class="edge">
<title>Node2&#45;&gt;Node42</title>
<path fill="none" stroke="midnightblue" d="M3383.44,-132.43C3541.88,-133.21 4032.85,-131.58 4436.5,-87 4449.27,-85.59 4463.07,-83.35 4475.55,-81.05"/>
<polygon fill="midnightblue" stroke="midnightblue" points="3383.07,-128.93 3373.05,-132.38 3383.03,-135.93 3383.07,-128.93"/>
</g>
<!-- Node43 -->
<g id="node41" class="node">
<title>Node43</title>
<g id="a_node41"><a xlink:href="_nalu_parsing_8_c.html" target="_top" xlink:title=" ">
<polygon fill="white" stroke="black" points="4604.5,-62 4604.5,-81 4688.5,-81 4688.5,-62 4604.5,-62"/>
<text text-anchor="middle" x="4646.5" y="-69" font-family="Helvetica,sans-Serif" font-size="10.00">NaluParsing.C</text>
</a>
</g>
</g>
<!-- Node2&#45;&gt;Node43 -->
<g id="edge42" class="edge">
<title>Node2&#45;&gt;Node43</title>
<path fill="none" stroke="midnightblue" d="M3383.42,-131.82C3590.3,-130.85 4356.18,-124.71 4595.5,-87 4603.96,-85.67 4613,-83.39 4621.09,-81.03"/>
<polygon fill="midnightblue" stroke="midnightblue" points="3383.13,-128.32 3373.14,-131.87 3383.16,-135.32 3383.13,-128.32"/>
</g>
<!-- Node44 -->
<g id="node42" class="node">
<title>Node44</title>
<g id="a_node42"><a xlink:href="_output_info_8_c.html" target="_top" xlink:title=" ">
<polygon fill="white" stroke="black" points="4706.5,-62 4706.5,-81 4784.5,-81 4784.5,-62 4706.5,-62"/>
<text text-anchor="middle" x="4745.5" y="-69" font-family="Helvetica,sans-Serif" font-size="10.00">OutputInfo.C</text>
</a>
</g>
</g>
<!-- Node2&#45;&gt;Node44 -->
<g id="edge43" class="edge">
<title>Node2&#45;&gt;Node44</title>
<path fill="none" stroke="midnightblue" d="M3383.3,-132.09C3600.37,-132.21 4437.48,-129.8 4697.5,-87 4705.4,-85.7 4713.82,-83.46 4721.37,-81.13"/>
<polygon fill="midnightblue" stroke="midnightblue" points="3383.14,-128.59 3373.14,-132.09 3383.14,-135.59 3383.14,-128.59"/>
</g>
<!-- Node45 -->
<g id="node43" class="node">
<title>Node45</title>
<g id="a_node43"><a xlink:href="_post_processing_info_8_c.html" target="_top" xlink:title=" ">
<polygon fill="white" stroke="black" points="4803,-62 4803,-81 4922,-81 4922,-62 4803,-62"/>
<text text-anchor="middle" x="4862.5" y="-69" font-family="Helvetica,sans-Serif" font-size="10.00">PostProcessingInfo.C</text>
</a>
</g>
</g>
<!-- Node2&#45;&gt;Node45 -->
<g id="edge44" class="edge">
<title>Node2&#45;&gt;Node45</title>
<path fill="none" stroke="midnightblue" d="M3383.47,-131.63C3609.97,-129.83 4512.1,-120.63 4793.5,-87 4804.8,-85.65 4817,-83.37 4827.95,-81.01"/>
<polygon fill="midnightblue" stroke="midnightblue" points="3383.17,-128.13 3373.2,-131.71 3383.23,-135.13 3383.17,-128.13"/>
</g>
<!-- Node2&#45;&gt;Node46 -->
<g id="edge45" class="edge">
<title>Node2&#45;&gt;Node46</title>
<path fill="none" stroke="midnightblue" d="M3383.49,-132.17C3725.6,-133.15 5648,-136.41 5903.5,-87 5910.02,-85.74 5916.87,-83.45 5922.94,-81.06"/>
<polygon fill="midnightblue" stroke="midnightblue" points="3383.38,-128.67 3373.37,-132.14 3383.36,-135.67 3383.38,-128.67"/>
</g>
<!-- Node47 -->
<g id="node45" class="node">
<title>Node47</title>
<g id="a_node45"><a xlink:href="_realms_8_c.html" target="_top" xlink:title=" ">
<polygon fill="white" stroke="black" points="4940,-62 4940,-81 5003,-81 5003,-62 4940,-62"/>
<text text-anchor="middle" x="4971.5" y="-69" font-family="Helvetica,sans-Serif" font-size="10.00">Realms.C</text>
</a>
</g>
</g>
<!-- Node2&#45;&gt;Node47 -->
<g id="edge46" class="edge">
<title>Node2&#45;&gt;Node47</title>
<path fill="none" stroke="midnightblue" d="M3383.35,-131.5C3640.83,-128.89 4775.74,-115.81 4930.5,-87 4937.48,-85.7 4944.86,-83.4 4951.41,-81.01"/>
<polygon fill="midnightblue" stroke="midnightblue" points="3383.12,-128 3373.16,-131.6 3383.19,-135 3383.12,-128"/>
</g>
<!-- Node48 -->
<g id="node46" class="node">
<title>Node48</title>
<g id="a_node46"><a xlink:href="_shear_stress_transport_equation_system_8_c.html" target="_top" xlink:title=" ">
<polygon fill="white" stroke="black" points="5021.5,-56.5 5021.5,-86.5 5183.5,-86.5 5183.5,-56.5 5021.5,-56.5"/>
<text text-anchor="start" x="5029.5" y="-74.5" font-family="Helvetica,sans-Serif" font-size="10.00">ShearStressTransportEquation</text>
<text text-anchor="middle" x="5102.5" y="-63.5" font-family="Helvetica,sans-Serif" font-size="10.00">System.C</text>
</a>
</g>
</g>
<!-- Node2&#45;&gt;Node48 -->
<g id="edge47" class="edge">
<title>Node2&#45;&gt;Node48</title>
<path fill="none" stroke="midnightblue" d="M3383.37,-131.53C3629.81,-129.15 4683.92,-117.35 5011.5,-87 5014.69,-86.7 5017.93,-86.37 5021.2,-86"/>
<polygon fill="midnightblue" stroke="midnightblue" points="3383.22,-128.03 3373.26,-131.63 3383.29,-135.03 3383.22,-128.03"/>
</g>
<!-- Node49 -->
<g id="node47" class="node">
<title>Node49</title>
<g id="a_node47"><a xlink:href="_side_writer_8_c.html" target="_top" xlink:title=" ">
<polygon fill="white" stroke="black" points="5202,-62 5202,-81 5279,-81 5279,-62 5202,-62"/>
<text text-anchor="middle" x="5240.5" y="-69" font-family="Helvetica,sans-Serif" font-size="10.00">SideWriter.C</text>
</a>
</g>
</g>
<!-- Node2&#45;&gt;Node49 -->
<g id="edge48" class="edge">
<title>Node2&#45;&gt;Node49</title>
<path fill="none" stroke="midnightblue" d="M3383.39,-131.58C3665.62,-129.17 5009.86,-116.24 5192.5,-87 5200.58,-85.71 5209.2,-83.41 5216.87,-81.02"/>
<polygon fill="midnightblue" stroke="midnightblue" points="3383.01,-128.08 3373.04,-131.67 3383.07,-135.08 3383.01,-128.08"/>
</g>
<!-- Node50 -->
<g id="node48" class="node">
<title>Node50</title>
<g id="a_node48"><a xlink:href="_simulation_8_c.html" target="_top" xlink:title=" ">
<polygon fill="white" stroke="black" points="5297,-62 5297,-81 5376,-81 5376,-62 5297,-62"/>
<text text-anchor="middle" x="5336.5" y="-69" font-family="Helvetica,sans-Serif" font-size="10.00">Simulation.C</text>
</a>
</g>
</g>
<!-- Node2&#45;&gt;Node50 -->
<g id="edge49" class="edge">
<title>Node2&#45;&gt;Node50</title>
<path fill="none" stroke="midnightblue" d="M3383.7,-131.62C3675.16,-129.41 5094.93,-117.16 5287.5,-87 5295.74,-85.71 5304.53,-83.41 5312.37,-81.02"/>
<polygon fill="midnightblue" stroke="midnightblue" points="3383.39,-128.13 3373.42,-131.7 3383.45,-135.13 3383.39,-128.13"/>
</g>
<!-- Node2&#45;&gt;Node66 -->
<g id="edge50" class="edge">
<title>Node2&#45;&gt;Node66</title>
<path fill="none" stroke="midnightblue" d="M3383.08,-132.1C3729.81,-132.64 5715.17,-133.66 5979.5,-87 5986.64,-85.74 5994.2,-83.45 6000.91,-81.06"/>
<polygon fill="midnightblue" stroke="midnightblue" points="3383.08,-128.6 3373.07,-132.08 3383.07,-135.6 3383.08,-128.6"/>
</g>
<!-- Node3&#45;&gt;Node5 -->
<g id="edge3" class="edge">
<title>Node3&#45;&gt;Node5</title>
<path fill="none" stroke="midnightblue" d="M5707.69,-53.17C5714.2,-42.11 5722.35,-28.25 5727.49,-19.51"/>
<polygon fill="midnightblue" stroke="midnightblue" points="5704.57,-51.58 5702.51,-61.98 5710.6,-55.13 5704.57,-51.58"/>
</g>
<!-- Node7&#45;&gt;Node8 -->
<g id="edge6" class="edge">
<title>Node7&#45;&gt;Node8</title>
<path fill="none" stroke="midnightblue" d="M5476.5,-53.51C5468.66,-42.39 5458.74,-28.34 5452.51,-19.51"/>
<polygon fill="midnightblue" stroke="midnightblue" points="5473.86,-55.82 5482.48,-61.98 5479.57,-51.79 5473.86,-55.82"/>
</g>
</g>
</svg>
        <g id="navigator" transform="translate(0 0)" fill="#404254">
                <rect fill="#f2f5e9" fill-opacity="0.5" stroke="#606060" stroke-width=".5" x="0" y="0" width="60" height="60"/>
                <use id="zoomplus" xlink:href="#zoomPlus" x="17" y="9" onmousedown="handleZoom(evt,'in')"/>
                <use id="zoomminus" xlink:href="#zoomMin" x="42" y="9" onmousedown="handleZoom(evt,'out')"/>
                <use id="reset" xlink:href="#resetDef" x="30" y="36" onmousedown="handleReset()"/>
                <g id="arrowUp" xlink:href="#dirArrow" transform="translate(30 24)" onmousedown="handlePan(0,-1)">
                  <use xlink:href="#rim" fill="#404040">
                        <set attributeName="fill" to="#808080" begin="arrowUp.mouseover" end="arrowUp.mouseout"/>
                  </use>
                  <path fill="none" stroke="white" stroke-width="1.5" d="M0,-3.0v7 M-2.5,-0.5L0,-3.0L2.5,-0.5"/>
                </g>
                <g id="arrowRight" xlink:href="#dirArrow" transform="rotate(90) translate(36 -43)" onmousedown="handlePan(1,0)">
                  <use xlink:href="#rim" fill="#404040">
                        <set attributeName="fill" to="#808080" begin="arrowRight.mouseover" end="arrowRight.mouseout"/>
                  </use>
                  <path fill="none" stroke="white" stroke-width="1.5" d="M0,-3.0v7 M-2.5,-0.5L0,-3.0L2.5,-0.5"/>
                </g>
                <g id="arrowDown" xlink:href="#dirArrow" transform="rotate(180) translate(-30 -48)" onmousedown="handlePan(0,1)">
                  <use xlink:href="#rim" fill="#404040">
                        <set attributeName="fill" to="#808080" begin="arrowDown.mouseover" end="arrowDown.mouseout"/>
                  </use>
                  <path fill="none" stroke="white" stroke-width="1.5" d="M0,-3.0v7 M-2.5,-0.5L0,-3.0L2.5,-0.5"/>
                </g>
                <g id="arrowLeft" xlink:href="#dirArrow" transform="rotate(270) translate(-36 17)" onmousedown="handlePan(-1,0)">
                  <use xlink:href="#rim" fill="#404040">
                        <set attributeName="fill" to="#808080" begin="arrowLeft.mouseover" end="arrowLeft.mouseout"/>
                  </use>
                  <path fill="none" stroke="white" stroke-width="1.5" d="M0,-3.0v7 M-2.5,-0.5L0,-3.0L2.5,-0.5"/>
                </g>
        </g>
        <svg viewBox="0 0 15 15" width="100%" height="30px" preserveAspectRatio="xMaxYMin meet">
         <g id="arrow_out" transform="scale(0.3 0.3)">
          <a xlink:href="_nalu_parsing_helper_8h__dep__incl_org.svg" target="_base">
           <rect id="button" ry="5" rx="5" y="6" x="6" height="38" width="38"
                fill="#f2f5e9" fill-opacity="0.5" stroke="#606060" stroke-width="1.0"/>
           <path id="arrow"
             d="M 11.500037,31.436501 C 11.940474,20.09759 22.043105,11.32322 32.158766,21.979434 L 37.068811,17.246167 C 37.068811,17.246167 37.088388,32 37.088388,32 L 22.160133,31.978069 C 22.160133,31.978069 26.997745,27.140456 26.997745,27.140456 C 18.528582,18.264221 13.291696,25.230495 11.500037,31.436501 z"
             style="fill:#404040;"/>
          </a>
         </g>
        </svg>
</svg>
