<?xml version="1.0" encoding="UTF-8" standalone="no"?>
<!DOCTYPE svg PUBLIC "-//W3C//DTD SVG 1.1//EN"
 "http://www.w3.org/Graphics/SVG/1.1/DTD/svg11.dtd">
<!-- Generated by graphviz version 2.43.0 (0)
 -->
<!-- Title: NgpMotion.h Pages: 1 -->
<!--zoomable 252 -->
<svg id="main" version="1.1" xmlns="http://www.w3.org/2000/svg" xmlns:xlink="http://www.w3.org/1999/xlink" xml:space="preserve" onload="init(evt)">
<style type="text/css"><![CDATA[
.edge:hover path { stroke: red; }
.edge:hover polygon { stroke: red; fill: red; }
]]></style>
<script type="text/javascript"><![CDATA[
var edges = document.getElementsByTagName('g');
if (edges && edges.length) {
  for (var i=0;i<edges.length;i++) {
    if (edges[i].id.substr(0,4)=='edge') {
      edges[i].setAttribute('class','edge');
    }
  }
}
]]></script>
        <defs>
                <circle id="rim" cx="0" cy="0" r="7"/>
                <circle id="rim2" cx="0" cy="0" r="3.5"/>
                <g id="zoomPlus">
                        <use xlink:href="#rim" fill="#404040">
                                <set attributeName="fill" to="#808080" begin="zoomplus.mouseover" end="zoomplus.mouseout"/>
                        </use>
                        <path d="M-4,0h8M0,-4v8" fill="none" stroke="white" stroke-width="1.5" pointer-events="none"/>
                </g>
                <g id="zoomMin">
                        <use xlink:href="#rim" fill="#404040">
                                <set attributeName="fill" to="#808080" begin="zoomminus.mouseover" end="zoomminus.mouseout"/>
                        </use>
                        <path d="M-4,0h8" fill="none" stroke="white" stroke-width="1.5" pointer-events="none"/>
                </g>
                <g id="dirArrow">
                        <path fill="none" stroke="white" stroke-width="1.5" d="M0,-3.0v7 M-2.5,-0.5L0,-3.0L2.5,-0.5"/>
                </g>
               <g id="resetDef">
                       <use xlink:href="#rim2" fill="#404040">
                               <set attributeName="fill" to="#808080" begin="reset.mouseover" end="reset.mouseout"/>
                       </use>
               </g>
        </defs>

<script type="text/javascript">
var viewWidth = 1704;
var viewHeight = 252;
var sectionId = 'dynsection-1';
</script>
<script xlink:href="svgpan.js"/>
<svg id="graph" class="graph">
<g id="viewport">
<title>NgpMotion.h</title>
<polygon fill="white" stroke="transparent" points="-4,4 -4,-248 1700,-248 1700,4 -4,4"/>
<!-- Node1 -->
<g id="node1" class="node">
<title>Node1</title>
<g id="a_node1"><a xlink:title=" ">
<polygon fill="#bfbfbf" stroke="black" points="957.5,-224.5 957.5,-243.5 1036.5,-243.5 1036.5,-224.5 957.5,-224.5"/>
<text text-anchor="middle" x="997" y="-231.5" font-family="Helvetica,sans-Serif" font-size="10.00">NgpMotion.h</text>
</a>
</g>
</g>
<!-- Node2 -->
<g id="node2" class="node">
<title>Node2</title>
<g id="a_node2"><a xlink:href="_frame_base_8h.html" target="_top" xlink:title=" ">
<polygon fill="white" stroke="black" points="397,-168.5 397,-187.5 477,-187.5 477,-168.5 397,-168.5"/>
<text text-anchor="middle" x="437" y="-175.5" font-family="Helvetica,sans-Serif" font-size="10.00">FrameBase.h</text>
</a>
</g>
</g>
<!-- Node1&#45;&gt;Node2 -->
<g id="edge1" class="edge">
<title>Node1&#45;&gt;Node2</title>
<path fill="none" stroke="midnightblue" d="M947.39,-229.73C856.88,-223.51 658.98,-208.72 493,-188 487.82,-187.35 482.39,-186.59 477.02,-185.78"/>
<polygon fill="midnightblue" stroke="midnightblue" points="947.15,-233.22 957.37,-230.41 947.63,-226.24 947.15,-233.22"/>
</g>
<!-- Node14 -->
<g id="node14" class="node">
<title>Node14</title>
<g id="a_node14"><a xlink:href="_motion_deforming_interior_kernel_8h.html" target="_top" xlink:title=" ">
<polygon fill="white" stroke="black" points="502.5,-168.5 502.5,-187.5 679.5,-187.5 679.5,-168.5 502.5,-168.5"/>
<text text-anchor="middle" x="591" y="-175.5" font-family="Helvetica,sans-Serif" font-size="10.00">MotionDeformingInteriorKernel.h</text>
</a>
</g>
</g>
<!-- Node1&#45;&gt;Node14 -->
<g id="edge16" class="edge">
<title>Node1&#45;&gt;Node14</title>
<path fill="none" stroke="midnightblue" d="M947.4,-226.4C873.9,-216.63 736.06,-198.29 655.03,-187.52"/>
<polygon fill="midnightblue" stroke="midnightblue" points="946.96,-229.87 957.33,-227.72 947.88,-222.94 946.96,-229.87"/>
</g>
<!-- Node16 -->
<g id="node16" class="node">
<title>Node16</title>
<g id="a_node16"><a xlink:href="_motion_oscillation_kernel_8h.html" target="_top" xlink:title=" ">
<polygon fill="white" stroke="black" points="698,-168.5 698,-187.5 840,-187.5 840,-168.5 698,-168.5"/>
<text text-anchor="middle" x="769" y="-175.5" font-family="Helvetica,sans-Serif" font-size="10.00">MotionOscillationKernel.h</text>
</a>
</g>
</g>
<!-- Node1&#45;&gt;Node16 -->
<g id="edge19" class="edge">
<title>Node1&#45;&gt;Node16</title>
<path fill="none" stroke="midnightblue" d="M950.93,-222.09C907.85,-211.89 844.41,-196.86 804.96,-187.52"/>
<polygon fill="midnightblue" stroke="midnightblue" points="950.34,-225.54 960.87,-224.44 951.95,-218.73 950.34,-225.54"/>
</g>
<!-- Node18 -->
<g id="node18" class="node">
<title>Node18</title>
<g id="a_node18"><a xlink:href="_motion_rotation_kernel_8h.html" target="_top" xlink:title=" ">
<polygon fill="white" stroke="black" points="858.5,-168.5 858.5,-187.5 989.5,-187.5 989.5,-168.5 858.5,-168.5"/>
<text text-anchor="middle" x="924" y="-175.5" font-family="Helvetica,sans-Serif" font-size="10.00">MotionRotationKernel.h</text>
</a>
</g>
</g>
<!-- Node1&#45;&gt;Node18 -->
<g id="edge22" class="edge">
<title>Node1&#45;&gt;Node18</title>
<path fill="none" stroke="midnightblue" d="M976.86,-218.1C963.72,-208.38 947.02,-196.03 935.94,-187.83"/>
<polygon fill="midnightblue" stroke="midnightblue" points="975.15,-221.19 985.27,-224.32 979.31,-215.56 975.15,-221.19"/>
</g>
<!-- Node20 -->
<g id="node20" class="node">
<title>Node20</title>
<g id="a_node20"><a xlink:href="_motion_scaling_kernel_8h.html" target="_top" xlink:title=" ">
<polygon fill="white" stroke="black" points="1007.5,-168.5 1007.5,-187.5 1132.5,-187.5 1132.5,-168.5 1007.5,-168.5"/>
<text text-anchor="middle" x="1070" y="-175.5" font-family="Helvetica,sans-Serif" font-size="10.00">MotionScalingKernel.h</text>
</a>
</g>
</g>
<!-- Node1&#45;&gt;Node20 -->
<g id="edge25" class="edge">
<title>Node1&#45;&gt;Node20</title>
<path fill="none" stroke="midnightblue" d="M1017.14,-218.1C1030.28,-208.38 1046.98,-196.03 1058.06,-187.83"/>
<polygon fill="midnightblue" stroke="midnightblue" points="1014.69,-215.56 1008.73,-224.32 1018.85,-221.19 1014.69,-215.56"/>
</g>
<!-- Node22 -->
<g id="node22" class="node">
<title>Node22</title>
<g id="a_node22"><a xlink:href="_motion_translation_kernel_8h.html" target="_top" xlink:title=" ">
<polygon fill="white" stroke="black" points="1150.5,-168.5 1150.5,-187.5 1293.5,-187.5 1293.5,-168.5 1150.5,-168.5"/>
<text text-anchor="middle" x="1222" y="-175.5" font-family="Helvetica,sans-Serif" font-size="10.00">MotionTranslationKernel.h</text>
</a>
</g>
</g>
<!-- Node1&#45;&gt;Node22 -->
<g id="edge28" class="edge">
<title>Node1&#45;&gt;Node22</title>
<path fill="none" stroke="midnightblue" d="M1042.47,-222.09C1084.97,-211.89 1147.58,-196.86 1186.51,-187.52"/>
<polygon fill="midnightblue" stroke="midnightblue" points="1041.56,-218.71 1032.65,-224.44 1043.19,-225.51 1041.56,-218.71"/>
</g>
<!-- Node24 -->
<g id="node24" class="node">
<title>Node24</title>
<g id="a_node24"><a xlink:href="_motion_waves_kernel_8h.html" target="_top" xlink:title=" ">
<polygon fill="white" stroke="black" points="1312,-168.5 1312,-187.5 1434,-187.5 1434,-168.5 1312,-168.5"/>
<text text-anchor="middle" x="1373" y="-175.5" font-family="Helvetica,sans-Serif" font-size="10.00">MotionWavesKernel.h</text>
</a>
</g>
</g>
<!-- Node1&#45;&gt;Node24 -->
<g id="edge31" class="edge">
<title>Node1&#45;&gt;Node24</title>
<path fill="none" stroke="midnightblue" d="M1046.69,-225.86C1115.62,-215.96 1240.06,-198.09 1313.74,-187.51"/>
<polygon fill="midnightblue" stroke="midnightblue" points="1045.93,-222.44 1036.53,-227.32 1046.92,-229.37 1045.93,-222.44"/>
</g>
<!-- Node26 -->
<g id="node26" class="node">
<title>Node26</title>
<g id="a_node26"><a xlink:href="_turbine_surrogate_kernel_8h.html" target="_top" xlink:title=" ">
<polygon fill="white" stroke="black" points="1452.5,-168.5 1452.5,-187.5 1591.5,-187.5 1591.5,-168.5 1452.5,-168.5"/>
<text text-anchor="middle" x="1522" y="-175.5" font-family="Helvetica,sans-Serif" font-size="10.00">TurbineSurrogateKernel.h</text>
</a>
</g>
</g>
<!-- Node1&#45;&gt;Node26 -->
<g id="edge34" class="edge">
<title>Node1&#45;&gt;Node26</title>
<path fill="none" stroke="midnightblue" d="M1046.78,-228.19C1129.21,-220.17 1299.23,-203.44 1443,-188 1446.02,-187.68 1449.1,-187.34 1452.22,-187"/>
<polygon fill="midnightblue" stroke="midnightblue" points="1046.31,-224.72 1036.7,-229.17 1046.99,-231.68 1046.31,-224.72"/>
</g>
<!-- Node3 -->
<g id="node3" class="node">
<title>Node3</title>
<g id="a_node3"><a xlink:href="_frame_moving_8h.html" target="_top" xlink:title=" ">
<polygon fill="white" stroke="black" points="142,-112.5 142,-131.5 234,-131.5 234,-112.5 142,-112.5"/>
<text text-anchor="middle" x="188" y="-119.5" font-family="Helvetica,sans-Serif" font-size="10.00">FrameMoving.h</text>
</a>
</g>
</g>
<!-- Node2&#45;&gt;Node3 -->
<g id="edge2" class="edge">
<title>Node2&#45;&gt;Node3</title>
<path fill="none" stroke="midnightblue" d="M387.58,-166.28C340.52,-156.08 270.63,-140.92 227.27,-131.52"/>
<polygon fill="midnightblue" stroke="midnightblue" points="387.03,-169.74 397.55,-168.44 388.51,-162.9 387.03,-169.74"/>
</g>
<!-- Node9 -->
<g id="node9" class="node">
<title>Node9</title>
<g id="a_node9"><a xlink:href="_frame_reference_8h.html" target="_top" xlink:title=" ">
<polygon fill="white" stroke="black" points="376,-112.5 376,-131.5 482,-131.5 482,-112.5 376,-112.5"/>
<text text-anchor="middle" x="429" y="-119.5" font-family="Helvetica,sans-Serif" font-size="10.00">FrameReference.h</text>
</a>
</g>
</g>
<!-- Node2&#45;&gt;Node9 -->
<g id="edge9" class="edge">
<title>Node2&#45;&gt;Node9</title>
<path fill="none" stroke="midnightblue" d="M434.2,-158.1C432.87,-149.14 431.35,-138.86 430.3,-131.75"/>
<polygon fill="midnightblue" stroke="midnightblue" points="430.75,-158.7 435.68,-168.08 437.68,-157.68 430.75,-158.7"/>
</g>
<!-- Node13 -->
<g id="node13" class="node">
<title>Node13</title>
<g id="a_node13"><a xlink:href="_frame_base_8_c.html" target="_top" xlink:title=" ">
<polygon fill="white" stroke="black" points="1008.5,-112.5 1008.5,-131.5 1089.5,-131.5 1089.5,-112.5 1008.5,-112.5"/>
<text text-anchor="middle" x="1049" y="-119.5" font-family="Helvetica,sans-Serif" font-size="10.00">FrameBase.C</text>
</a>
</g>
</g>
<!-- Node2&#45;&gt;Node13 -->
<g id="edge15" class="edge">
<title>Node2&#45;&gt;Node13</title>
<path fill="none" stroke="midnightblue" d="M487.08,-168.73C489.08,-168.47 491.06,-168.22 493,-168 716.96,-142.09 775.29,-160.01 999,-132 1002.06,-131.62 1005.22,-131.17 1008.4,-130.68"/>
<polygon fill="midnightblue" stroke="midnightblue" points="486.44,-165.28 477.01,-170.13 487.4,-172.22 486.44,-165.28"/>
</g>
<!-- Node4 -->
<g id="node4" class="node">
<title>Node4</title>
<g id="a_node4"><a xlink:href="_mesh_motion_alg_8h.html" target="_top" xlink:title=" ">
<polygon fill="white" stroke="black" points="79.5,-56.5 79.5,-75.5 180.5,-75.5 180.5,-56.5 79.5,-56.5"/>
<text text-anchor="middle" x="130" y="-63.5" font-family="Helvetica,sans-Serif" font-size="10.00">MeshMotionAlg.h</text>
</a>
</g>
</g>
<!-- Node3&#45;&gt;Node4 -->
<g id="edge3" class="edge">
<title>Node3&#45;&gt;Node4</title>
<path fill="none" stroke="midnightblue" d="M171.09,-105.25C160.8,-95.67 148.03,-83.79 139.49,-75.83"/>
<polygon fill="midnightblue" stroke="midnightblue" points="168.98,-108.07 178.68,-112.32 173.75,-102.95 168.98,-108.07"/>
</g>
<!-- Node5 -->
<g id="node5" class="node">
<title>Node5</title>
<g id="a_node5"><a xlink:href="_mesh_motion_alg_8_c.html" target="_top" xlink:title=" ">
<polygon fill="white" stroke="black" points="0,-0.5 0,-19.5 102,-19.5 102,-0.5 0,-0.5"/>
<text text-anchor="middle" x="51" y="-7.5" font-family="Helvetica,sans-Serif" font-size="10.00">MeshMotionAlg.C</text>
</a>
</g>
</g>
<!-- Node3&#45;&gt;Node5 -->
<g id="edge8" class="edge">
<title>Node3&#45;&gt;Node5</title>
<path fill="none" stroke="midnightblue" d="M131.89,-110.87C109.93,-104.29 86.18,-93.53 70,-76 55.33,-60.1 51.93,-33.48 51.18,-19.76"/>
<polygon fill="midnightblue" stroke="midnightblue" points="131.25,-114.32 141.82,-113.6 133.11,-107.57 131.25,-114.32"/>
</g>
<!-- Node8 -->
<g id="node8" class="node">
<title>Node8</title>
<g id="a_node8"><a xlink:href="_frame_moving_8_c.html" target="_top" xlink:title=" ">
<polygon fill="white" stroke="black" points="198.5,-56.5 198.5,-75.5 291.5,-75.5 291.5,-56.5 198.5,-56.5"/>
<text text-anchor="middle" x="245" y="-63.5" font-family="Helvetica,sans-Serif" font-size="10.00">FrameMoving.C</text>
</a>
</g>
</g>
<!-- Node3&#45;&gt;Node8 -->
<g id="edge7" class="edge">
<title>Node3&#45;&gt;Node8</title>
<path fill="none" stroke="midnightblue" d="M204.62,-105.25C214.73,-95.67 227.28,-83.79 235.68,-75.83"/>
<polygon fill="midnightblue" stroke="midnightblue" points="202.01,-102.91 197.16,-112.32 206.82,-107.99 202.01,-102.91"/>
</g>
<!-- Node4&#45;&gt;Node5 -->
<g id="edge4" class="edge">
<title>Node4&#45;&gt;Node5</title>
<path fill="none" stroke="midnightblue" d="M108.97,-50.62C94.53,-40.76 75.86,-27.99 63.66,-19.65"/>
<polygon fill="midnightblue" stroke="midnightblue" points="107.08,-53.57 117.31,-56.32 111.03,-47.79 107.08,-53.57"/>
</g>
<!-- Node6 -->
<g id="node6" class="node">
<title>Node6</title>
<g id="a_node6"><a xlink:href="_realm_8_c.html" target="_top" xlink:title=" ">
<polygon fill="white" stroke="black" points="284,-0.5 284,-19.5 342,-19.5 342,-0.5 284,-0.5"/>
<text text-anchor="middle" x="313" y="-7.5" font-family="Helvetica,sans-Serif" font-size="10.00">Realm.C</text>
</a>
</g>
</g>
<!-- Node4&#45;&gt;Node6 -->
<g id="edge5" class="edge">
<title>Node4&#45;&gt;Node6</title>
<path fill="none" stroke="midnightblue" d="M168.74,-53.57C203.26,-43.38 253.01,-28.7 284.14,-19.52"/>
<polygon fill="midnightblue" stroke="midnightblue" points="167.6,-50.26 159,-56.44 169.58,-56.97 167.6,-50.26"/>
</g>
<!-- Node7 -->
<g id="node7" class="node">
<title>Node7</title>
<g id="a_node7"><a xlink:href="_time_integrator_8_c.html" target="_top" xlink:title=" ">
<polygon fill="white" stroke="black" points="120,-0.5 120,-19.5 218,-19.5 218,-0.5 120,-0.5"/>
<text text-anchor="middle" x="169" y="-7.5" font-family="Helvetica,sans-Serif" font-size="10.00">TimeIntegrator.C</text>
</a>
</g>
</g>
<!-- Node4&#45;&gt;Node7 -->
<g id="edge6" class="edge">
<title>Node4&#45;&gt;Node7</title>
<path fill="none" stroke="midnightblue" d="M142.38,-47.86C149.14,-38.5 157.21,-27.33 162.68,-19.75"/>
<polygon fill="midnightblue" stroke="midnightblue" points="139.46,-45.93 136.44,-56.08 145.13,-50.03 139.46,-45.93"/>
</g>
<!-- Node10 -->
<g id="node10" class="node">
<title>Node10</title>
<g id="a_node10"><a xlink:href="_mesh_transformation_alg_8h.html" target="_top" xlink:title=" ">
<polygon fill="white" stroke="black" points="309.5,-56.5 309.5,-75.5 450.5,-75.5 450.5,-56.5 309.5,-56.5"/>
<text text-anchor="middle" x="380" y="-63.5" font-family="Helvetica,sans-Serif" font-size="10.00">MeshTransformationAlg.h</text>
</a>
</g>
</g>
<!-- Node9&#45;&gt;Node10 -->
<g id="edge10" class="edge">
<title>Node9&#45;&gt;Node10</title>
<path fill="none" stroke="midnightblue" d="M413.97,-104.43C405.38,-94.97 394.96,-83.48 387.94,-75.75"/>
<polygon fill="midnightblue" stroke="midnightblue" points="411.6,-107.03 420.91,-112.08 416.78,-102.33 411.6,-107.03"/>
</g>
<!-- Node11 -->
<g id="node11" class="node">
<title>Node11</title>
<g id="a_node11"><a xlink:href="_mesh_transformation_alg_8_c.html" target="_top" xlink:title=" ">
<polygon fill="white" stroke="black" points="384,-0.5 384,-19.5 526,-19.5 526,-0.5 384,-0.5"/>
<text text-anchor="middle" x="455" y="-7.5" font-family="Helvetica,sans-Serif" font-size="10.00">MeshTransformationAlg.C</text>
</a>
</g>
</g>
<!-- Node9&#45;&gt;Node11 -->
<g id="edge14" class="edge">
<title>Node9&#45;&gt;Node11</title>
<path fill="none" stroke="midnightblue" d="M443.5,-104.4C449.55,-96.39 455.88,-86.3 459,-76 464.9,-56.52 460.52,-32.3 457.41,-19.63"/>
<polygon fill="midnightblue" stroke="midnightblue" points="440.77,-102.2 437.21,-112.18 446.22,-106.6 440.77,-102.2"/>
</g>
<!-- Node12 -->
<g id="node12" class="node">
<title>Node12</title>
<g id="a_node12"><a xlink:href="_frame_reference_8_c.html" target="_top" xlink:title=" ">
<polygon fill="white" stroke="black" points="507.5,-56.5 507.5,-75.5 614.5,-75.5 614.5,-56.5 507.5,-56.5"/>
<text text-anchor="middle" x="561" y="-63.5" font-family="Helvetica,sans-Serif" font-size="10.00">FrameReference.C</text>
</a>
</g>
</g>
<!-- Node9&#45;&gt;Node12 -->
<g id="edge13" class="edge">
<title>Node9&#45;&gt;Node12</title>
<path fill="none" stroke="midnightblue" d="M459.22,-108.64C483.99,-98.5 518.4,-84.43 540.18,-75.52"/>
<polygon fill="midnightblue" stroke="midnightblue" points="457.85,-105.42 449.92,-112.44 460.5,-111.9 457.85,-105.42"/>
</g>
<!-- Node10&#45;&gt;Node6 -->
<g id="edge12" class="edge">
<title>Node10&#45;&gt;Node6</title>
<path fill="none" stroke="midnightblue" d="M361.17,-49.82C349.16,-40.15 334.03,-27.95 323.96,-19.83"/>
<polygon fill="midnightblue" stroke="midnightblue" points="359.25,-52.77 369.24,-56.32 363.65,-47.32 359.25,-52.77"/>
</g>
<!-- Node10&#45;&gt;Node11 -->
<g id="edge11" class="edge">
<title>Node10&#45;&gt;Node11</title>
<path fill="none" stroke="midnightblue" d="M400.31,-50.38C413.86,-40.62 431.24,-28.11 442.73,-19.83"/>
<polygon fill="midnightblue" stroke="midnightblue" points="398.12,-47.64 392.05,-56.32 402.21,-53.32 398.12,-47.64"/>
</g>
<!-- Node14&#45;&gt;Node13 -->
<g id="edge17" class="edge">
<title>Node14&#45;&gt;Node13</title>
<path fill="none" stroke="midnightblue" d="M684.59,-167.43C785.75,-156.95 940.36,-140.5 999,-132 1002.06,-131.56 1005.21,-131.07 1008.38,-130.55"/>
<polygon fill="midnightblue" stroke="midnightblue" points="683.95,-163.97 674.37,-168.48 684.67,-170.94 683.95,-163.97"/>
</g>
<!-- Node15 -->
<g id="node15" class="node">
<title>Node15</title>
<g id="a_node15"><a xlink:href="_motion_deforming_interior_kernel_8_c.html" target="_top" xlink:title=" ">
<polygon fill="white" stroke="black" points="500,-112.5 500,-131.5 678,-131.5 678,-112.5 500,-112.5"/>
<text text-anchor="middle" x="589" y="-119.5" font-family="Helvetica,sans-Serif" font-size="10.00">MotionDeformingInteriorKernel.C</text>
</a>
</g>
</g>
<!-- Node14&#45;&gt;Node15 -->
<g id="edge18" class="edge">
<title>Node14&#45;&gt;Node15</title>
<path fill="none" stroke="midnightblue" d="M590.29,-157.8C589.96,-148.91 589.58,-138.78 589.32,-131.75"/>
<polygon fill="midnightblue" stroke="midnightblue" points="586.8,-158.22 590.67,-168.08 593.8,-157.96 586.8,-158.22"/>
</g>
<!-- Node16&#45;&gt;Node13 -->
<g id="edge20" class="edge">
<title>Node16&#45;&gt;Node13</title>
<path fill="none" stroke="midnightblue" d="M823.49,-166.49C877.74,-156.03 959.74,-140.21 1008.48,-130.82"/>
<polygon fill="midnightblue" stroke="midnightblue" points="822.52,-163.11 813.37,-168.44 823.85,-169.99 822.52,-163.11"/>
</g>
<!-- Node17 -->
<g id="node17" class="node">
<title>Node17</title>
<g id="a_node17"><a xlink:href="_motion_oscillation_kernel_8_c.html" target="_top" xlink:title=" ">
<polygon fill="white" stroke="black" points="696.5,-112.5 696.5,-131.5 839.5,-131.5 839.5,-112.5 696.5,-112.5"/>
<text text-anchor="middle" x="768" y="-119.5" font-family="Helvetica,sans-Serif" font-size="10.00">MotionOscillationKernel.C</text>
</a>
</g>
</g>
<!-- Node16&#45;&gt;Node17 -->
<g id="edge21" class="edge">
<title>Node16&#45;&gt;Node17</title>
<path fill="none" stroke="midnightblue" d="M768.64,-157.8C768.48,-148.91 768.29,-138.78 768.16,-131.75"/>
<polygon fill="midnightblue" stroke="midnightblue" points="765.15,-158.15 768.83,-168.08 772.15,-158.02 765.15,-158.15"/>
</g>
<!-- Node18&#45;&gt;Node13 -->
<g id="edge23" class="edge">
<title>Node18&#45;&gt;Node13</title>
<path fill="none" stroke="midnightblue" d="M953.24,-164.37C976.65,-154.26 1008.84,-140.35 1029.29,-131.52"/>
<polygon fill="midnightblue" stroke="midnightblue" points="951.6,-161.26 943.81,-168.44 954.37,-167.69 951.6,-161.26"/>
</g>
<!-- Node19 -->
<g id="node19" class="node">
<title>Node19</title>
<g id="a_node19"><a xlink:href="_motion_rotation_kernel_8_c.html" target="_top" xlink:title=" ">
<polygon fill="white" stroke="black" points="858,-112.5 858,-131.5 990,-131.5 990,-112.5 858,-112.5"/>
<text text-anchor="middle" x="924" y="-119.5" font-family="Helvetica,sans-Serif" font-size="10.00">MotionRotationKernel.C</text>
</a>
</g>
</g>
<!-- Node18&#45;&gt;Node19 -->
<g id="edge24" class="edge">
<title>Node18&#45;&gt;Node19</title>
<path fill="none" stroke="midnightblue" d="M924,-157.8C924,-148.91 924,-138.78 924,-131.75"/>
<polygon fill="midnightblue" stroke="midnightblue" points="920.5,-158.08 924,-168.08 927.5,-158.08 920.5,-158.08"/>
</g>
<!-- Node20&#45;&gt;Node13 -->
<g id="edge26" class="edge">
<title>Node20&#45;&gt;Node13</title>
<path fill="none" stroke="midnightblue" d="M1062.88,-158.69C1059.34,-149.59 1055.23,-139.01 1052.4,-131.75"/>
<polygon fill="midnightblue" stroke="midnightblue" points="1059.65,-160.03 1066.53,-168.08 1066.17,-157.49 1059.65,-160.03"/>
</g>
<!-- Node21 -->
<g id="node21" class="node">
<title>Node21</title>
<g id="a_node21"><a xlink:href="_motion_scaling_kernel_8_c.html" target="_top" xlink:title=" ">
<polygon fill="white" stroke="black" points="1108,-112.5 1108,-131.5 1234,-131.5 1234,-112.5 1108,-112.5"/>
<text text-anchor="middle" x="1171" y="-119.5" font-family="Helvetica,sans-Serif" font-size="10.00">MotionScalingKernel.C</text>
</a>
</g>
</g>
<!-- Node20&#45;&gt;Node21 -->
<g id="edge27" class="edge">
<title>Node20&#45;&gt;Node21</title>
<path fill="none" stroke="midnightblue" d="M1095.08,-163.59C1113.76,-153.61 1138.7,-140.27 1154.81,-131.65"/>
<polygon fill="midnightblue" stroke="midnightblue" points="1093.4,-160.52 1086.23,-168.32 1096.7,-166.7 1093.4,-160.52"/>
</g>
<!-- Node22&#45;&gt;Node13 -->
<g id="edge29" class="edge">
<title>Node22&#45;&gt;Node13</title>
<path fill="none" stroke="midnightblue" d="M1184.95,-165.44C1152.34,-155.26 1105.59,-140.66 1076.28,-131.52"/>
<polygon fill="midnightblue" stroke="midnightblue" points="1184,-168.8 1194.59,-168.44 1186.08,-162.12 1184,-168.8"/>
</g>
<!-- Node23 -->
<g id="node23" class="node">
<title>Node23</title>
<g id="a_node23"><a xlink:href="_motion_translation_kernel_8_c.html" target="_top" xlink:title=" ">
<polygon fill="white" stroke="black" points="1252,-112.5 1252,-131.5 1396,-131.5 1396,-112.5 1252,-112.5"/>
<text text-anchor="middle" x="1324" y="-119.5" font-family="Helvetica,sans-Serif" font-size="10.00">MotionTranslationKernel.C</text>
</a>
</g>
</g>
<!-- Node22&#45;&gt;Node23 -->
<g id="edge30" class="edge">
<title>Node22&#45;&gt;Node23</title>
<path fill="none" stroke="midnightblue" d="M1247.33,-163.59C1266.19,-153.61 1291.38,-140.27 1307.65,-131.65"/>
<polygon fill="midnightblue" stroke="midnightblue" points="1245.59,-160.55 1238.39,-168.32 1248.86,-166.74 1245.59,-160.55"/>
</g>
<!-- Node24&#45;&gt;Node13 -->
<g id="edge32" class="edge">
<title>Node24&#45;&gt;Node13</title>
<path fill="none" stroke="midnightblue" d="M1309.62,-166.87C1254.05,-157.93 1171.12,-144.41 1099,-132 1095.96,-131.48 1092.81,-130.93 1089.65,-130.37"/>
<polygon fill="midnightblue" stroke="midnightblue" points="1309.23,-170.36 1319.66,-168.49 1310.35,-163.44 1309.23,-170.36"/>
</g>
<!-- Node25 -->
<g id="node25" class="node">
<title>Node25</title>
<g id="a_node25"><a xlink:href="_motion_waves_kernel_8_c.html" target="_top" xlink:title=" ">
<polygon fill="white" stroke="black" points="1414.5,-112.5 1414.5,-131.5 1537.5,-131.5 1537.5,-112.5 1414.5,-112.5"/>
<text text-anchor="middle" x="1476" y="-119.5" font-family="Helvetica,sans-Serif" font-size="10.00">MotionWavesKernel.C</text>
</a>
</g>
</g>
<!-- Node24&#45;&gt;Node25 -->
<g id="edge33" class="edge">
<title>Node24&#45;&gt;Node25</title>
<path fill="none" stroke="midnightblue" d="M1398.58,-163.59C1417.62,-153.61 1443.06,-140.27 1459.49,-131.65"/>
<polygon fill="midnightblue" stroke="midnightblue" points="1396.78,-160.58 1389.55,-168.32 1400.03,-166.78 1396.78,-160.58"/>
</g>
<!-- Node26&#45;&gt;Node13 -->
<g id="edge35" class="edge">
<title>Node26&#45;&gt;Node13</title>
<path fill="none" stroke="midnightblue" d="M1441.94,-167.9C1288.46,-151.39 1247.92,-153.17 1099,-132 1095.94,-131.57 1092.79,-131.08 1089.62,-130.57"/>
<polygon fill="midnightblue" stroke="midnightblue" points="1441.9,-171.42 1452.22,-169.01 1442.65,-164.46 1441.9,-171.42"/>
</g>
<!-- Node27 -->
<g id="node27" class="node">
<title>Node27</title>
<g id="a_node27"><a xlink:href="_turbine_surrogate_kernel_8_c.html" target="_top" xlink:title=" ">
<polygon fill="white" stroke="black" points="1556,-112.5 1556,-131.5 1696,-131.5 1696,-112.5 1556,-112.5"/>
<text text-anchor="middle" x="1626" y="-119.5" font-family="Helvetica,sans-Serif" font-size="10.00">TurbineSurrogateKernel.C</text>
</a>
</g>
</g>
<!-- Node26&#45;&gt;Node27 -->
<g id="edge36" class="edge">
<title>Node26&#45;&gt;Node27</title>
<path fill="none" stroke="midnightblue" d="M1547.83,-163.59C1567.06,-153.61 1592.74,-140.27 1609.33,-131.65"/>
<polygon fill="midnightblue" stroke="midnightblue" points="1545.97,-160.61 1538.71,-168.32 1549.2,-166.82 1545.97,-160.61"/>
</g>
</g>
</svg>
        <g id="navigator" transform="translate(0 0)" fill="#404254">
                <rect fill="#f2f5e9" fill-opacity="0.5" stroke="#606060" stroke-width=".5" x="0" y="0" width="60" height="60"/>
                <use id="zoomplus" xlink:href="#zoomPlus" x="17" y="9" onmousedown="handleZoom(evt,'in')"/>
                <use id="zoomminus" xlink:href="#zoomMin" x="42" y="9" onmousedown="handleZoom(evt,'out')"/>
                <use id="reset" xlink:href="#resetDef" x="30" y="36" onmousedown="handleReset()"/>
                <g id="arrowUp" xlink:href="#dirArrow" transform="translate(30 24)" onmousedown="handlePan(0,-1)">
                  <use xlink:href="#rim" fill="#404040">
                        <set attributeName="fill" to="#808080" begin="arrowUp.mouseover" end="arrowUp.mouseout"/>
                  </use>
                  <path fill="none" stroke="white" stroke-width="1.5" d="M0,-3.0v7 M-2.5,-0.5L0,-3.0L2.5,-0.5"/>
                </g>
                <g id="arrowRight" xlink:href="#dirArrow" transform="rotate(90) translate(36 -43)" onmousedown="handlePan(1,0)">
                  <use xlink:href="#rim" fill="#404040">
                        <set attributeName="fill" to="#808080" begin="arrowRight.mouseover" end="arrowRight.mouseout"/>
                  </use>
                  <path fill="none" stroke="white" stroke-width="1.5" d="M0,-3.0v7 M-2.5,-0.5L0,-3.0L2.5,-0.5"/>
                </g>
                <g id="arrowDown" xlink:href="#dirArrow" transform="rotate(180) translate(-30 -48)" onmousedown="handlePan(0,1)">
                  <use xlink:href="#rim" fill="#404040">
                        <set attributeName="fill" to="#808080" begin="arrowDown.mouseover" end="arrowDown.mouseout"/>
                  </use>
                  <path fill="none" stroke="white" stroke-width="1.5" d="M0,-3.0v7 M-2.5,-0.5L0,-3.0L2.5,-0.5"/>
                </g>
                <g id="arrowLeft" xlink:href="#dirArrow" transform="rotate(270) translate(-36 17)" onmousedown="handlePan(-1,0)">
                  <use xlink:href="#rim" fill="#404040">
                        <set attributeName="fill" to="#808080" begin="arrowLeft.mouseover" end="arrowLeft.mouseout"/>
                  </use>
                  <path fill="none" stroke="white" stroke-width="1.5" d="M0,-3.0v7 M-2.5,-0.5L0,-3.0L2.5,-0.5"/>
                </g>
        </g>
        <svg viewBox="0 0 15 15" width="100%" height="30px" preserveAspectRatio="xMaxYMin meet">
         <g id="arrow_out" transform="scale(0.3 0.3)">
          <a xlink:href="_ngp_motion_8h__dep__incl_org.svg" target="_base">
           <rect id="button" ry="5" rx="5" y="6" x="6" height="38" width="38"
                fill="#f2f5e9" fill-opacity="0.5" stroke="#606060" stroke-width="1.0"/>
           <path id="arrow"
             d="M 11.500037,31.436501 C 11.940474,20.09759 22.043105,11.32322 32.158766,21.979434 L 37.068811,17.246167 C 37.068811,17.246167 37.088388,32 37.088388,32 L 22.160133,31.978069 C 22.160133,31.978069 26.997745,27.140456 26.997745,27.140456 C 18.528582,18.264221 13.291696,25.230495 11.500037,31.436501 z"
             style="fill:#404040;"/>
          </a>
         </g>
        </svg>
</svg>
