<?xml version="1.0" encoding="UTF-8" standalone="no"?>
<!DOCTYPE svg PUBLIC "-//W3C//DTD SVG 1.1//EN"
 "http://www.w3.org/Graphics/SVG/1.1/DTD/svg11.dtd">
<!-- Generated by graphviz version 2.43.0 (0)
 -->
<!-- Title: sierra::nalu::NgpMotionKernel&lt; T &gt; Pages: 1 -->
<svg width="938pt" height="333pt"
 viewBox="0.00 0.00 938.00 333.00" xmlns="http://www.w3.org/2000/svg" xmlns:xlink="http://www.w3.org/1999/xlink">
<g id="graph0" class="graph" transform="scale(1 1) rotate(0) translate(4 329)">
<title>sierra::nalu::NgpMotionKernel&lt; T &gt;</title>
<polygon fill="white" stroke="transparent" points="-4,4 -4,-329 934,-329 934,4 -4,4"/>
<!-- Node1 -->
<g id="node1" class="node">
<title>Node1</title>
<g id="a_node1"><a xlink:title=" ">
<polygon fill="#bfbfbf" stroke="black" points="168,-153 168,-172 358,-172 358,-153 168,-153"/>
<text text-anchor="middle" x="263" y="-160" font-family="Helvetica,sans-Serif" font-size="10.00">sierra::nalu::NgpMotionKernel&lt; T &gt;</text>
</a>
</g>
</g>
<!-- Node3 -->
<g id="node3" class="node">
<title>Node3</title>
<g id="a_node3"><a xlink:href="classsierra_1_1nalu_1_1_ngp_motion_kernel.html" target="_top" xlink:title=" ">
<polygon fill="white" stroke="black" points="553,-294.5 553,-324.5 714,-324.5 714,-294.5 553,-294.5"/>
<text text-anchor="start" x="561" y="-312.5" font-family="Helvetica,sans-Serif" font-size="10.00">sierra::nalu::NgpMotionKernel</text>
<text text-anchor="middle" x="633.5" y="-301.5" font-family="Helvetica,sans-Serif" font-size="10.00">&lt; MotionTranslationKernel &gt;</text>
</a>
</g>
</g>
<!-- Node1&#45;&gt;Node3 -->
<g id="edge2" class="edge">
<title>Node1&#45;&gt;Node3</title>
<path fill="none" stroke="orange" stroke-dasharray="5,2" d="M278.9,-179.61C298.78,-201.29 336.13,-238.16 376,-257.5 431.6,-284.48 500.51,-297.46 552.91,-303.72"/>
<polygon fill="orange" stroke="orange" points="281.45,-177.22 272.16,-172.11 276.24,-181.89 281.45,-177.22"/>
<text text-anchor="middle" x="448" y="-301.5" font-family="Helvetica,sans-Serif" font-size="10.00"> &lt; MotionTranslationKernel &gt;</text>
</g>
<!-- Node5 -->
<g id="node5" class="node">
<title>Node5</title>
<g id="a_node5"><a xlink:href="classsierra_1_1nalu_1_1_ngp_motion_kernel.html" target="_top" xlink:title=" ">
<polygon fill="white" stroke="black" points="553,-245.5 553,-275.5 714,-275.5 714,-245.5 553,-245.5"/>
<text text-anchor="start" x="561" y="-263.5" font-family="Helvetica,sans-Serif" font-size="10.00">sierra::nalu::NgpMotionKernel</text>
<text text-anchor="middle" x="633.5" y="-252.5" font-family="Helvetica,sans-Serif" font-size="10.00">&lt; MotionWavesKernel &gt;</text>
</a>
</g>
</g>
<!-- Node1&#45;&gt;Node5 -->
<g id="edge4" class="edge">
<title>Node1&#45;&gt;Node5</title>
<path fill="none" stroke="orange" stroke-dasharray="5,2" d="M292.16,-176.55C314.44,-187.18 346.59,-201.44 376,-210.5 434.1,-228.39 501.66,-241.25 552.85,-249.45"/>
<polygon fill="orange" stroke="orange" points="293.48,-173.3 282.96,-172.1 290.43,-179.61 293.48,-173.3"/>
<text text-anchor="middle" x="448" y="-245.5" font-family="Helvetica,sans-Serif" font-size="10.00"> &lt; MotionWavesKernel &gt;</text>
</g>
<!-- Node7 -->
<g id="node7" class="node">
<title>Node7</title>
<g id="a_node7"><a xlink:href="classsierra_1_1nalu_1_1_ngp_motion_kernel.html" target="_top" xlink:title=" ">
<polygon fill="white" stroke="black" points="553,-196.5 553,-226.5 714,-226.5 714,-196.5 553,-196.5"/>
<text text-anchor="start" x="561" y="-214.5" font-family="Helvetica,sans-Serif" font-size="10.00">sierra::nalu::NgpMotionKernel</text>
<text text-anchor="middle" x="633.5" y="-203.5" font-family="Helvetica,sans-Serif" font-size="10.00">&lt; MotionScalingKernel &gt;</text>
</a>
</g>
</g>
<!-- Node1&#45;&gt;Node7 -->
<g id="edge6" class="edge">
<title>Node1&#45;&gt;Node7</title>
<path fill="none" stroke="orange" stroke-dasharray="5,2" d="M345.03,-173.37C355.45,-174.76 365.98,-176.16 376,-177.5 435.22,-185.39 502.14,-194.26 552.77,-200.96"/>
<polygon fill="orange" stroke="orange" points="345.47,-169.89 335.1,-172.04 344.54,-176.83 345.47,-169.89"/>
<text text-anchor="middle" x="448" y="-198.5" font-family="Helvetica,sans-Serif" font-size="10.00"> &lt; MotionScalingKernel &gt;</text>
</g>
<!-- Node9 -->
<g id="node9" class="node">
<title>Node9</title>
<g id="a_node9"><a xlink:href="classsierra_1_1nalu_1_1_ngp_motion_kernel.html" target="_top" xlink:title=" ">
<polygon fill="white" stroke="black" points="553,-147.5 553,-177.5 714,-177.5 714,-147.5 553,-147.5"/>
<text text-anchor="start" x="561" y="-165.5" font-family="Helvetica,sans-Serif" font-size="10.00">sierra::nalu::NgpMotionKernel</text>
<text text-anchor="middle" x="633.5" y="-154.5" font-family="Helvetica,sans-Serif" font-size="10.00">&lt; MotionOscillationKernel &gt;</text>
</a>
</g>
</g>
<!-- Node1&#45;&gt;Node9 -->
<g id="edge8" class="edge">
<title>Node1&#45;&gt;Node9</title>
<path fill="none" stroke="orange" stroke-dasharray="5,2" d="M368.45,-162.5C427.05,-162.5 498.99,-162.5 552.97,-162.5"/>
<polygon fill="orange" stroke="orange" points="368.42,-159 358.42,-162.5 368.42,-166 368.42,-159"/>
<text text-anchor="middle" x="448" y="-165.5" font-family="Helvetica,sans-Serif" font-size="10.00"> &lt; MotionOscillationKernel &gt;</text>
</g>
<!-- Node11 -->
<g id="node11" class="node">
<title>Node11</title>
<g id="a_node11"><a xlink:href="classsierra_1_1nalu_1_1_ngp_motion_kernel.html" target="_top" xlink:title=" ">
<polygon fill="white" stroke="black" points="538,-98.5 538,-128.5 729,-128.5 729,-98.5 538,-98.5"/>
<text text-anchor="start" x="546" y="-116.5" font-family="Helvetica,sans-Serif" font-size="10.00">sierra::nalu::NgpMotionKernel</text>
<text text-anchor="middle" x="633.5" y="-105.5" font-family="Helvetica,sans-Serif" font-size="10.00">&lt; MotionDeformingInteriorKernel &gt;</text>
</a>
</g>
</g>
<!-- Node1&#45;&gt;Node11 -->
<g id="edge10" class="edge">
<title>Node1&#45;&gt;Node11</title>
<path fill="none" stroke="orange" stroke-dasharray="5,2" d="M309.22,-150.5C329.51,-145.5 353.83,-140.05 376,-136.5 429.2,-127.98 489.15,-122.39 537.7,-118.85"/>
<polygon fill="orange" stroke="orange" points="308.16,-147.15 299.31,-152.98 309.86,-153.94 308.16,-147.15"/>
<text text-anchor="start" x="380" y="-150.5" font-family="Helvetica,sans-Serif" font-size="10.00"> &lt; MotionDeformingInterior</text>
<text text-anchor="middle" x="448" y="-139.5" font-family="Helvetica,sans-Serif" font-size="10.00">Kernel &gt;</text>
</g>
<!-- Node13 -->
<g id="node13" class="node">
<title>Node13</title>
<g id="a_node13"><a xlink:href="classsierra_1_1nalu_1_1_ngp_motion_kernel.html" target="_top" xlink:title=" ">
<polygon fill="white" stroke="black" points="553,-49.5 553,-79.5 714,-79.5 714,-49.5 553,-49.5"/>
<text text-anchor="start" x="561" y="-67.5" font-family="Helvetica,sans-Serif" font-size="10.00">sierra::nalu::NgpMotionKernel</text>
<text text-anchor="middle" x="633.5" y="-56.5" font-family="Helvetica,sans-Serif" font-size="10.00">&lt; MotionRotationKernel &gt;</text>
</a>
</g>
</g>
<!-- Node1&#45;&gt;Node13 -->
<g id="edge12" class="edge">
<title>Node1&#45;&gt;Node13</title>
<path fill="none" stroke="orange" stroke-dasharray="5,2" d="M288,-147.82C310.09,-134.98 344.15,-116.81 376,-106.5 433.64,-87.85 501.36,-77.21 552.74,-71.31"/>
<polygon fill="orange" stroke="orange" points="286.14,-144.86 279.31,-152.96 289.7,-150.88 286.14,-144.86"/>
<text text-anchor="middle" x="448" y="-109.5" font-family="Helvetica,sans-Serif" font-size="10.00"> &lt; MotionRotationKernel &gt;</text>
</g>
<!-- Node15 -->
<g id="node15" class="node">
<title>Node15</title>
<g id="a_node15"><a xlink:href="classsierra_1_1nalu_1_1_ngp_motion_kernel.html" target="_top" xlink:title=" ">
<polygon fill="white" stroke="black" points="553,-0.5 553,-30.5 714,-30.5 714,-0.5 553,-0.5"/>
<text text-anchor="start" x="561" y="-18.5" font-family="Helvetica,sans-Serif" font-size="10.00">sierra::nalu::NgpMotionKernel</text>
<text text-anchor="middle" x="633.5" y="-7.5" font-family="Helvetica,sans-Serif" font-size="10.00">&lt; TurbineSurrogateKernel &gt;</text>
</a>
</g>
</g>
<!-- Node1&#45;&gt;Node15 -->
<g id="edge14" class="edge">
<title>Node1&#45;&gt;Node15</title>
<path fill="none" stroke="orange" stroke-dasharray="5,2" d="M278,-144.85C297.38,-121.72 334.72,-81.73 376,-61.5 431.35,-34.38 500.44,-23.09 552.97,-18.47"/>
<polygon fill="orange" stroke="orange" points="275.1,-142.85 271.47,-152.81 280.52,-147.29 275.1,-142.85"/>
<text text-anchor="middle" x="448" y="-64.5" font-family="Helvetica,sans-Serif" font-size="10.00"> &lt; TurbineSurrogateKernel &gt;</text>
</g>
<!-- Node2 -->
<g id="node2" class="node">
<title>Node2</title>
<g id="a_node2"><a xlink:href="classsierra_1_1nalu_1_1_ngp_motion.html" target="_top" xlink:title=" ">
<polygon fill="white" stroke="black" points="0,-153 0,-172 131,-172 131,-153 0,-153"/>
<text text-anchor="middle" x="65.5" y="-160" font-family="Helvetica,sans-Serif" font-size="10.00">sierra::nalu::NgpMotion</text>
</a>
</g>
</g>
<!-- Node2&#45;&gt;Node1 -->
<g id="edge1" class="edge">
<title>Node2&#45;&gt;Node1</title>
<path fill="none" stroke="midnightblue" d="M141.16,-162.5C149.88,-162.5 158.87,-162.5 167.81,-162.5"/>
<polygon fill="midnightblue" stroke="midnightblue" points="141.06,-159 131.06,-162.5 141.06,-166 141.06,-159"/>
</g>
<!-- Node4 -->
<g id="node4" class="node">
<title>Node4</title>
<g id="a_node4"><a xlink:href="classsierra_1_1nalu_1_1_motion_translation_kernel.html" target="_top" xlink:title=" ">
<polygon fill="white" stroke="black" points="766,-294.5 766,-324.5 930,-324.5 930,-294.5 766,-294.5"/>
<text text-anchor="start" x="774" y="-312.5" font-family="Helvetica,sans-Serif" font-size="10.00">sierra::nalu::MotionTranslation</text>
<text text-anchor="middle" x="848" y="-301.5" font-family="Helvetica,sans-Serif" font-size="10.00">Kernel</text>
</a>
</g>
</g>
<!-- Node3&#45;&gt;Node4 -->
<g id="edge3" class="edge">
<title>Node3&#45;&gt;Node4</title>
<path fill="none" stroke="midnightblue" d="M724.6,-309.5C738.26,-309.5 752.3,-309.5 765.76,-309.5"/>
<polygon fill="midnightblue" stroke="midnightblue" points="724.23,-306 714.23,-309.5 724.23,-313 724.23,-306"/>
</g>
<!-- Node6 -->
<g id="node6" class="node">
<title>Node6</title>
<g id="a_node6"><a xlink:href="classsierra_1_1nalu_1_1_motion_waves_kernel.html" target="_top" xlink:title=" ">
<polygon fill="white" stroke="black" points="776.5,-245.5 776.5,-275.5 919.5,-275.5 919.5,-245.5 776.5,-245.5"/>
<text text-anchor="start" x="784.5" y="-263.5" font-family="Helvetica,sans-Serif" font-size="10.00">sierra::nalu::MotionWaves</text>
<text text-anchor="middle" x="848" y="-252.5" font-family="Helvetica,sans-Serif" font-size="10.00">Kernel</text>
</a>
</g>
</g>
<!-- Node5&#45;&gt;Node6 -->
<g id="edge5" class="edge">
<title>Node5&#45;&gt;Node6</title>
<path fill="none" stroke="midnightblue" d="M724.36,-260.5C741.7,-260.5 759.63,-260.5 776.26,-260.5"/>
<polygon fill="midnightblue" stroke="midnightblue" points="724.23,-257 714.23,-260.5 724.23,-264 724.23,-257"/>
</g>
<!-- Node8 -->
<g id="node8" class="node">
<title>Node8</title>
<g id="a_node8"><a xlink:href="classsierra_1_1nalu_1_1_motion_scaling_kernel.html" target="_top" xlink:title=" ">
<polygon fill="white" stroke="black" points="775,-196.5 775,-226.5 921,-226.5 921,-196.5 775,-196.5"/>
<text text-anchor="start" x="783" y="-214.5" font-family="Helvetica,sans-Serif" font-size="10.00">sierra::nalu::MotionScaling</text>
<text text-anchor="middle" x="848" y="-203.5" font-family="Helvetica,sans-Serif" font-size="10.00">Kernel</text>
</a>
</g>
</g>
<!-- Node7&#45;&gt;Node8 -->
<g id="edge7" class="edge">
<title>Node7&#45;&gt;Node8</title>
<path fill="none" stroke="midnightblue" d="M724.6,-211.5C741.38,-211.5 758.72,-211.5 774.88,-211.5"/>
<polygon fill="midnightblue" stroke="midnightblue" points="724.23,-208 714.23,-211.5 724.23,-215 724.23,-208"/>
</g>
<!-- Node10 -->
<g id="node10" class="node">
<title>Node10</title>
<g id="a_node10"><a xlink:href="classsierra_1_1nalu_1_1_motion_oscillation_kernel.html" target="_top" xlink:title=" ">
<polygon fill="white" stroke="black" points="766.5,-147.5 766.5,-177.5 929.5,-177.5 929.5,-147.5 766.5,-147.5"/>
<text text-anchor="start" x="774.5" y="-165.5" font-family="Helvetica,sans-Serif" font-size="10.00">sierra::nalu::MotionOscillation</text>
<text text-anchor="middle" x="848" y="-154.5" font-family="Helvetica,sans-Serif" font-size="10.00">Kernel</text>
</a>
</g>
</g>
<!-- Node9&#45;&gt;Node10 -->
<g id="edge9" class="edge">
<title>Node9&#45;&gt;Node10</title>
<path fill="none" stroke="midnightblue" d="M724.33,-162.5C738.32,-162.5 752.7,-162.5 766.47,-162.5"/>
<polygon fill="midnightblue" stroke="midnightblue" points="724.23,-159 714.23,-162.5 724.23,-166 724.23,-159"/>
</g>
<!-- Node12 -->
<g id="node12" class="node">
<title>Node12</title>
<g id="a_node12"><a xlink:href="classsierra_1_1nalu_1_1_motion_deforming_interior_kernel.html" target="_top" xlink:title=" ">
<polygon fill="white" stroke="black" points="766.5,-98.5 766.5,-128.5 929.5,-128.5 929.5,-98.5 766.5,-98.5"/>
<text text-anchor="start" x="774.5" y="-116.5" font-family="Helvetica,sans-Serif" font-size="10.00">sierra::nalu::MotionDeforming</text>
<text text-anchor="middle" x="848" y="-105.5" font-family="Helvetica,sans-Serif" font-size="10.00">InteriorKernel</text>
</a>
</g>
</g>
<!-- Node11&#45;&gt;Node12 -->
<g id="edge11" class="edge">
<title>Node11&#45;&gt;Node12</title>
<path fill="none" stroke="midnightblue" d="M739.45,-113.5C748.51,-113.5 757.57,-113.5 766.39,-113.5"/>
<polygon fill="midnightblue" stroke="midnightblue" points="739.25,-110 729.25,-113.5 739.25,-117 739.25,-110"/>
</g>
<!-- Node14 -->
<g id="node14" class="node">
<title>Node14</title>
<g id="a_node14"><a xlink:href="classsierra_1_1nalu_1_1_motion_rotation_kernel.html" target="_top" xlink:title=" ">
<polygon fill="white" stroke="black" points="772,-49.5 772,-79.5 924,-79.5 924,-49.5 772,-49.5"/>
<text text-anchor="start" x="780" y="-67.5" font-family="Helvetica,sans-Serif" font-size="10.00">sierra::nalu::MotionRotation</text>
<text text-anchor="middle" x="848" y="-56.5" font-family="Helvetica,sans-Serif" font-size="10.00">Kernel</text>
</a>
</g>
</g>
<!-- Node13&#45;&gt;Node14 -->
<g id="edge13" class="edge">
<title>Node13&#45;&gt;Node14</title>
<path fill="none" stroke="midnightblue" d="M724.49,-64.5C740.23,-64.5 756.46,-64.5 771.74,-64.5"/>
<polygon fill="midnightblue" stroke="midnightblue" points="724.23,-61 714.23,-64.5 724.23,-68 724.23,-61"/>
</g>
<!-- Node16 -->
<g id="node16" class="node">
<title>Node16</title>
<g id="a_node16"><a xlink:href="classsierra_1_1nalu_1_1_turbine_surrogate_kernel.html" target="_top" xlink:title=" ">
<polygon fill="white" stroke="black" points="768,-0.5 768,-30.5 928,-30.5 928,-0.5 768,-0.5"/>
<text text-anchor="start" x="776" y="-18.5" font-family="Helvetica,sans-Serif" font-size="10.00">sierra::nalu::TurbineSurrogate</text>
<text text-anchor="middle" x="848" y="-7.5" font-family="Helvetica,sans-Serif" font-size="10.00">Kernel</text>
</a>
</g>
</g>
<!-- Node15&#45;&gt;Node16 -->
<g id="edge15" class="edge">
<title>Node15&#45;&gt;Node16</title>
<path fill="none" stroke="midnightblue" d="M724.62,-15.5C739,-15.5 753.78,-15.5 767.88,-15.5"/>
<polygon fill="midnightblue" stroke="midnightblue" points="724.23,-12 714.23,-15.5 724.23,-19 724.23,-12"/>
</g>
</g>
</svg>
