<?xml version="1.0" encoding="UTF-8" standalone="no"?>
<!DOCTYPE svg PUBLIC "-//W3C//DTD SVG 1.1//EN"
 "http://www.w3.org/Graphics/SVG/1.1/DTD/svg11.dtd">
<!-- Generated by graphviz version 2.43.0 (0)
 -->
<!-- Title: sierra::nalu::MotionOscillationKernel Pages: 1 -->
<svg width="295pt" height="231pt"
 viewBox="0.00 0.00 294.50 231.00" xmlns="http://www.w3.org/2000/svg" xmlns:xlink="http://www.w3.org/1999/xlink">
<g id="graph0" class="graph" transform="scale(1 1) rotate(0) translate(4 227)">
<title>sierra::nalu::MotionOscillationKernel</title>
<polygon fill="white" stroke="transparent" points="-4,4 -4,-227 290.5,-227 290.5,4 -4,4"/>
<!-- Node1 -->
<g id="node1" class="node">
<title>Node1</title>
<g id="a_node1"><a xlink:title=" ">
<polygon fill="#bfbfbf" stroke="black" points="0,-0.5 0,-30.5 163,-30.5 163,-0.5 0,-0.5"/>
<text text-anchor="start" x="8" y="-18.5" font-family="Helvetica,sans-Serif" font-size="10.00">sierra::nalu::MotionOscillation</text>
<text text-anchor="middle" x="81.5" y="-7.5" font-family="Helvetica,sans-Serif" font-size="10.00">Kernel</text>
</a>
</g>
</g>
<!-- Node2 -->
<g id="node2" class="node">
<title>Node2</title>
<g id="a_node2"><a xlink:href="classsierra_1_1nalu_1_1_ngp_motion_kernel.html" target="_top" xlink:title=" ">
<polygon fill="white" stroke="black" points="1,-68.5 1,-98.5 162,-98.5 162,-68.5 1,-68.5"/>
<text text-anchor="start" x="9" y="-86.5" font-family="Helvetica,sans-Serif" font-size="10.00">sierra::nalu::NgpMotionKernel</text>
<text text-anchor="middle" x="81.5" y="-75.5" font-family="Helvetica,sans-Serif" font-size="10.00">&lt; MotionOscillationKernel &gt;</text>
</a>
</g>
</g>
<!-- Node2&#45;&gt;Node1 -->
<g id="edge1" class="edge">
<title>Node2&#45;&gt;Node1</title>
<path fill="none" stroke="midnightblue" d="M81.5,-58.03C81.5,-48.86 81.5,-38.74 81.5,-30.79"/>
<polygon fill="midnightblue" stroke="midnightblue" points="78,-58.18 81.5,-68.18 85,-58.18 78,-58.18"/>
</g>
<!-- Node3 -->
<g id="node3" class="node">
<title>Node3</title>
<g id="a_node3"><a xlink:href="classsierra_1_1nalu_1_1_ngp_motion.html" target="_top" xlink:title=" ">
<polygon fill="white" stroke="black" points="12,-203.5 12,-222.5 143,-222.5 143,-203.5 12,-203.5"/>
<text text-anchor="middle" x="77.5" y="-210.5" font-family="Helvetica,sans-Serif" font-size="10.00">sierra::nalu::NgpMotion</text>
</a>
</g>
</g>
<!-- Node3&#45;&gt;Node2 -->
<g id="edge2" class="edge">
<title>Node3&#45;&gt;Node2</title>
<path fill="none" stroke="midnightblue" d="M78.1,-192.9C78.91,-167.05 80.34,-121.54 81.06,-98.59"/>
<polygon fill="midnightblue" stroke="midnightblue" points="74.59,-193.13 77.77,-203.24 81.59,-193.35 74.59,-193.13"/>
</g>
<!-- Node4 -->
<g id="node4" class="node">
<title>Node4</title>
<g id="a_node4"><a xlink:href="classsierra_1_1nalu_1_1_ngp_motion_kernel.html" target="_top" xlink:title=" ">
<polygon fill="white" stroke="black" points="93.5,-146.5 93.5,-165.5 283.5,-165.5 283.5,-146.5 93.5,-146.5"/>
<text text-anchor="middle" x="188.5" y="-153.5" font-family="Helvetica,sans-Serif" font-size="10.00">sierra::nalu::NgpMotionKernel&lt; T &gt;</text>
</a>
</g>
</g>
<!-- Node3&#45;&gt;Node4 -->
<g id="edge4" class="edge">
<title>Node3&#45;&gt;Node4</title>
<path fill="none" stroke="midnightblue" d="M103.82,-198.96C124.69,-188.62 153.24,-174.47 171.28,-165.53"/>
<polygon fill="midnightblue" stroke="midnightblue" points="102.25,-195.83 94.84,-203.41 105.36,-202.1 102.25,-195.83"/>
</g>
<!-- Node4&#45;&gt;Node2 -->
<g id="edge3" class="edge">
<title>Node4&#45;&gt;Node2</title>
<path fill="none" stroke="orange" stroke-dasharray="5,2" d="M166.95,-140.8C148.3,-128.51 121.46,-110.83 102.86,-98.58"/>
<polygon fill="orange" stroke="orange" points="165.1,-143.78 175.38,-146.36 168.95,-137.93 165.1,-143.78"/>
<text text-anchor="middle" x="215.5" y="-120" font-family="Helvetica,sans-Serif" font-size="10.00"> &lt; MotionOscillationKernel &gt;</text>
</g>
</g>
</svg>
