<?xml version="1.0" encoding="UTF-8" standalone="no"?>
<!DOCTYPE svg PUBLIC "-//W3C//DTD SVG 1.1//EN"
 "http://www.w3.org/Graphics/SVG/1.1/DTD/svg11.dtd">
<!-- Generated by graphviz version 2.43.0 (0)
 -->
<!-- Title: sierra::nalu::MotionOscillationKernel Pages: 1 -->
<svg width="1156pt" height="113pt"
 viewBox="0.00 0.00 1156.00 113.00" xmlns="http://www.w3.org/2000/svg" xmlns:xlink="http://www.w3.org/1999/xlink">
<g id="graph0" class="graph" transform="scale(1 1) rotate(0) translate(4 109)">
<title>sierra::nalu::MotionOscillationKernel</title>
<polygon fill="white" stroke="transparent" points="-4,4 -4,-109 1152,-109 1152,4 -4,4"/>
<!-- Node1 -->
<g id="node1" class="node">
<title>Node1</title>
<g id="a_node1"><a xlink:title=" ">
<polygon fill="#bfbfbf" stroke="black" points="985,-56 985,-86 1148,-86 1148,-56 985,-56"/>
<text text-anchor="start" x="993" y="-74" font-family="Helvetica,sans-Serif" font-size="10.00">sierra::nalu::MotionOscillation</text>
<text text-anchor="middle" x="1066.5" y="-63" font-family="Helvetica,sans-Serif" font-size="10.00">Kernel</text>
</a>
</g>
</g>
<!-- Node2 -->
<g id="node2" class="node">
<title>Node2</title>
<g id="a_node2"><a xlink:href="classsierra_1_1nalu_1_1_ngp_motion_kernel.html" target="_top" xlink:title=" ">
<polygon fill="white" stroke="black" points="787,-33 787,-63 948,-63 948,-33 787,-33"/>
<text text-anchor="start" x="795" y="-51" font-family="Helvetica,sans-Serif" font-size="10.00">sierra::nalu::NgpMotionKernel</text>
<text text-anchor="middle" x="867.5" y="-40" font-family="Helvetica,sans-Serif" font-size="10.00">&lt; MotionOscillationKernel &gt;</text>
</a>
</g>
</g>
<!-- Node2&#45;&gt;Node1 -->
<g id="edge1" class="edge">
<title>Node2&#45;&gt;Node1</title>
<path fill="none" stroke="midnightblue" d="M958.03,-58.45C966.91,-59.49 975.89,-60.54 984.68,-61.56"/>
<polygon fill="midnightblue" stroke="midnightblue" points="958.4,-54.97 948.06,-57.29 957.59,-61.92 958.4,-54.97"/>
</g>
<!-- Node3 -->
<g id="node3" class="node">
<title>Node3</title>
<g id="a_node3"><a xlink:href="classsierra_1_1nalu_1_1_ngp_motion.html" target="_top" xlink:title=" ">
<polygon fill="white" stroke="black" points="251,-38.5 251,-57.5 382,-57.5 382,-38.5 251,-38.5"/>
<text text-anchor="middle" x="316.5" y="-45.5" font-family="Helvetica,sans-Serif" font-size="10.00">sierra::nalu::NgpMotion</text>
</a>
</g>
</g>
<!-- Node3&#45;&gt;Node2 -->
<g id="edge2" class="edge">
<title>Node3&#45;&gt;Node2</title>
<path fill="none" stroke="midnightblue" d="M392.12,-48C495.3,-48 680.75,-48 786.64,-48"/>
<polygon fill="midnightblue" stroke="midnightblue" points="392.09,-44.5 382.09,-48 392.09,-51.5 392.09,-44.5"/>
</g>
<!-- Node5 -->
<g id="node5" class="node">
<title>Node5</title>
<g id="a_node5"><a xlink:href="classsierra_1_1nalu_1_1_ngp_motion_kernel.html" target="_top" xlink:title=" ">
<polygon fill="white" stroke="black" points="419,-0.5 419,-19.5 609,-19.5 609,-0.5 419,-0.5"/>
<text text-anchor="middle" x="514" y="-7.5" font-family="Helvetica,sans-Serif" font-size="10.00">sierra::nalu::NgpMotionKernel&lt; T &gt;</text>
</a>
</g>
</g>
<!-- Node3&#45;&gt;Node5 -->
<g id="edge5" class="edge">
<title>Node3&#45;&gt;Node5</title>
<path fill="none" stroke="midnightblue" d="M376.61,-36.51C404.5,-31.09 437.4,-24.69 463.9,-19.54"/>
<polygon fill="midnightblue" stroke="midnightblue" points="375.73,-33.12 366.58,-38.46 377.06,-39.99 375.73,-33.12"/>
</g>
<!-- Node4 -->
<g id="node4" class="node">
<title>Node4</title>
<g id="a_node4"><a xlink:href="structsierra_1_1nalu_1_1mm_1_1_three_d_vec_type.html" target="_top" xlink:title=" ">
<polygon fill="white" stroke="black" points="0,-61.5 0,-80.5 178,-80.5 178,-61.5 0,-61.5"/>
<text text-anchor="middle" x="89" y="-68.5" font-family="Helvetica,sans-Serif" font-size="10.00">sierra::nalu::mm::ThreeDVecType</text>
</a>
</g>
</g>
<!-- Node4&#45;&gt;Node1 -->
<g id="edge6" class="edge">
<title>Node4&#45;&gt;Node1</title>
<path fill="none" stroke="#9a32cd" stroke-dasharray="5,2" d="M160.7,-81.93C205.05,-87.87 263.48,-94 315.5,-94 315.5,-94 315.5,-94 868.5,-94 906.89,-94 949.21,-89.64 984.76,-84.71"/>
<polygon fill="#9a32cd" stroke="#9a32cd" points="160.99,-78.44 150.6,-80.55 160.04,-85.38 160.99,-78.44"/>
<text text-anchor="middle" x="514" y="-97" font-family="Helvetica,sans-Serif" font-size="10.00"> direction_</text>
</g>
<!-- Node4&#45;&gt;Node3 -->
<g id="edge3" class="edge">
<title>Node4&#45;&gt;Node3</title>
<path fill="none" stroke="#9a32cd" stroke-dasharray="5,2" d="M188.16,-60.99C209.36,-58.83 231.26,-56.59 250.79,-54.6"/>
<polygon fill="#9a32cd" stroke="#9a32cd" points="187.75,-57.51 178.15,-62.01 188.46,-64.48 187.75,-57.51"/>
<text text-anchor="middle" x="214.5" y="-63" font-family="Helvetica,sans-Serif" font-size="10.00"> origin_</text>
</g>
<!-- Node5&#45;&gt;Node2 -->
<g id="edge4" class="edge">
<title>Node5&#45;&gt;Node2</title>
<path fill="none" stroke="orange" stroke-dasharray="5,2" d="M619.24,-10.65C665.35,-12.14 720.1,-15.56 769,-23 784.38,-25.34 800.84,-29.08 815.79,-32.95"/>
<polygon fill="orange" stroke="orange" points="619.34,-7.15 609.24,-10.35 619.13,-14.14 619.34,-7.15"/>
<text text-anchor="middle" x="698" y="-26" font-family="Helvetica,sans-Serif" font-size="10.00"> &lt; MotionOscillationKernel &gt;</text>
</g>
</g>
</svg>
