<?xml version="1.0" encoding="UTF-8" standalone="no"?>
<!DOCTYPE svg PUBLIC "-//W3C//DTD SVG 1.1//EN"
 "http://www.w3.org/Graphics/SVG/1.1/DTD/svg11.dtd">
<!-- Generated by graphviz version 2.43.0 (0)
 -->
<!-- Title: sierra::nalu::NgpMotion Pages: 1 -->
<!--zoomable 424 -->
<svg id="main" version="1.1" xmlns="http://www.w3.org/2000/svg" xmlns:xlink="http://www.w3.org/1999/xlink" xml:space="preserve" onload="init(evt)">
<style type="text/css"><![CDATA[
.edge:hover path { stroke: red; }
.edge:hover polygon { stroke: red; fill: red; }
]]></style>
<script type="text/javascript"><![CDATA[
var edges = document.getElementsByTagName('g');
if (edges && edges.length) {
  for (var i=0;i<edges.length;i++) {
    if (edges[i].id.substr(0,4)=='edge') {
      edges[i].setAttribute('class','edge');
    }
  }
}
]]></script>
        <defs>
                <circle id="rim" cx="0" cy="0" r="7"/>
                <circle id="rim2" cx="0" cy="0" r="3.5"/>
                <g id="zoomPlus">
                        <use xlink:href="#rim" fill="#404040">
                                <set attributeName="fill" to="#808080" begin="zoomplus.mouseover" end="zoomplus.mouseout"/>
                        </use>
                        <path d="M-4,0h8M0,-4v8" fill="none" stroke="white" stroke-width="1.5" pointer-events="none"/>
                </g>
                <g id="zoomMin">
                        <use xlink:href="#rim" fill="#404040">
                                <set attributeName="fill" to="#808080" begin="zoomminus.mouseover" end="zoomminus.mouseout"/>
                        </use>
                        <path d="M-4,0h8" fill="none" stroke="white" stroke-width="1.5" pointer-events="none"/>
                </g>
                <g id="dirArrow">
                        <path fill="none" stroke="white" stroke-width="1.5" d="M0,-3.0v7 M-2.5,-0.5L0,-3.0L2.5,-0.5"/>
                </g>
               <g id="resetDef">
                       <use xlink:href="#rim2" fill="#404040">
                               <set attributeName="fill" to="#808080" begin="reset.mouseover" end="reset.mouseout"/>
                       </use>
               </g>
        </defs>

<script type="text/javascript">
var viewWidth = 938;
var viewHeight = 424;
var sectionId = 'dynsection-0';
</script>
<script xlink:href="svgpan.js"/>
<svg id="graph" class="graph">
<g id="viewport">
<title>sierra::nalu::NgpMotion</title>
<polygon fill="white" stroke="transparent" points="-4,4 -4,-420.13 934,-420.13 934,4 -4,4"/>
<!-- Node1 -->
<g id="node1" class="node">
<title>Node1</title>
<g id="a_node1"><a xlink:title=" ">
<polygon fill="#bfbfbf" stroke="black" points="0,-158.13 0,-177.13 131,-177.13 131,-158.13 0,-158.13"/>
<text text-anchor="middle" x="65.5" y="-165.13" font-family="Helvetica,sans-Serif" font-size="10.00">sierra::nalu::NgpMotion</text>
</a>
</g>
</g>
<!-- Node2 -->
<g id="node2" class="node">
<title>Node2</title>
<g id="a_node2"><a xlink:href="classsierra_1_1nalu_1_1_ngp_motion_kernel.html" target="_top" xlink:title=" ">
<polygon fill="white" stroke="black" points="553,-243.63 553,-273.63 714,-273.63 714,-243.63 553,-243.63"/>
<text text-anchor="start" x="561" y="-261.63" font-family="Helvetica,sans-Serif" font-size="10.00">sierra::nalu::NgpMotionKernel</text>
<text text-anchor="middle" x="633.5" y="-250.63" font-family="Helvetica,sans-Serif" font-size="10.00">&lt; MotionTranslationKernel &gt;</text>
</a>
</g>
</g>
<!-- Node1&#45;&gt;Node2 -->
<g id="edge1" class="edge">
<title>Node1&#45;&gt;Node2</title>
<path fill="none" stroke="midnightblue" d="M90.35,-182.51C140.73,-212.92 262.69,-281.1 376,-302.63 438.88,-314.58 457.11,-314.49 520,-302.63 549.26,-297.11 580.68,-284.18 602.85,-273.75"/>
<polygon fill="midnightblue" stroke="midnightblue" points="92.15,-179.52 81.79,-177.3 88.51,-185.49 92.15,-179.52"/>
</g>
<!-- Node4 -->
<g id="node4" class="node">
<title>Node4</title>
<g id="a_node4"><a xlink:href="classsierra_1_1nalu_1_1_ngp_motion_kernel.html" target="_top" xlink:title=" ">
<polygon fill="white" stroke="black" points="553,-321.63 553,-351.63 714,-351.63 714,-321.63 553,-321.63"/>
<text text-anchor="start" x="561" y="-339.63" font-family="Helvetica,sans-Serif" font-size="10.00">sierra::nalu::NgpMotionKernel</text>
<text text-anchor="middle" x="633.5" y="-328.63" font-family="Helvetica,sans-Serif" font-size="10.00">&lt; MotionWavesKernel &gt;</text>
</a>
</g>
</g>
<!-- Node1&#45;&gt;Node4 -->
<g id="edge3" class="edge">
<title>Node1&#45;&gt;Node4</title>
<path fill="none" stroke="midnightblue" d="M79.49,-185.62C97.2,-209.07 130.99,-250.08 168,-275.63 250.32,-332.46 277.88,-342.14 376,-361.63 443.8,-375.09 523.19,-363.2 575.48,-351.65"/>
<polygon fill="midnightblue" stroke="midnightblue" points="82.08,-183.24 73.31,-177.29 76.45,-187.41 82.08,-183.24"/>
</g>
<!-- Node6 -->
<g id="node6" class="node">
<title>Node6</title>
<g id="a_node6"><a xlink:href="classsierra_1_1nalu_1_1_ngp_motion_kernel.html" target="_top" xlink:title=" ">
<polygon fill="white" stroke="black" points="553,-385.63 553,-415.63 714,-415.63 714,-385.63 553,-385.63"/>
<text text-anchor="start" x="561" y="-403.63" font-family="Helvetica,sans-Serif" font-size="10.00">sierra::nalu::NgpMotionKernel</text>
<text text-anchor="middle" x="633.5" y="-392.63" font-family="Helvetica,sans-Serif" font-size="10.00">&lt; MotionScalingKernel &gt;</text>
</a>
</g>
</g>
<!-- Node1&#45;&gt;Node6 -->
<g id="edge5" class="edge">
<title>Node1&#45;&gt;Node6</title>
<path fill="none" stroke="midnightblue" d="M72.89,-187.01C85.34,-221.62 116.27,-293.85 168,-330.63 282.49,-412.03 453.2,-415.58 552.65,-409.19"/>
<polygon fill="midnightblue" stroke="midnightblue" points="76.07,-185.5 69.49,-177.19 69.45,-187.78 76.07,-185.5"/>
</g>
<!-- Node8 -->
<g id="node8" class="node">
<title>Node8</title>
<g id="a_node8"><a xlink:href="classsierra_1_1nalu_1_1_ngp_motion_kernel.html" target="_top" xlink:title=" ">
<polygon fill="white" stroke="black" points="553,-9.63 553,-39.63 714,-39.63 714,-9.63 553,-9.63"/>
<text text-anchor="start" x="561" y="-27.63" font-family="Helvetica,sans-Serif" font-size="10.00">sierra::nalu::NgpMotionKernel</text>
<text text-anchor="middle" x="633.5" y="-16.63" font-family="Helvetica,sans-Serif" font-size="10.00">&lt; MotionOscillationKernel &gt;</text>
</a>
</g>
</g>
<!-- Node1&#45;&gt;Node8 -->
<g id="edge7" class="edge">
<title>Node1&#45;&gt;Node8</title>
<path fill="none" stroke="midnightblue" d="M76.01,-148.88C91.19,-121.24 123.75,-70.45 168,-48.63 291.48,12.26 456.52,2.69 552.99,-10.5"/>
<polygon fill="midnightblue" stroke="midnightblue" points="72.81,-147.45 71.21,-157.93 78.99,-150.73 72.81,-147.45"/>
</g>
<!-- Node10 -->
<g id="node10" class="node">
<title>Node10</title>
<g id="a_node10"><a xlink:href="classsierra_1_1nalu_1_1_ngp_motion_kernel.html" target="_top" xlink:title=" ">
<polygon fill="white" stroke="black" points="538,-193.63 538,-223.63 729,-223.63 729,-193.63 538,-193.63"/>
<text text-anchor="start" x="546" y="-211.63" font-family="Helvetica,sans-Serif" font-size="10.00">sierra::nalu::NgpMotionKernel</text>
<text text-anchor="middle" x="633.5" y="-200.63" font-family="Helvetica,sans-Serif" font-size="10.00">&lt; MotionDeformingInteriorKernel &gt;</text>
</a>
</g>
</g>
<!-- Node1&#45;&gt;Node10 -->
<g id="edge9" class="edge">
<title>Node1&#45;&gt;Node10</title>
<path fill="none" stroke="midnightblue" d="M118.81,-156.14C205.53,-139.59 383.08,-116.4 520,-168.63 530,-172.44 528.54,-179.61 538,-184.63 544.43,-188.04 551.37,-190.98 558.46,-193.52"/>
<polygon fill="midnightblue" stroke="midnightblue" points="118.08,-152.72 108.94,-158.07 119.43,-159.58 118.08,-152.72"/>
</g>
<!-- Node12 -->
<g id="node12" class="node">
<title>Node12</title>
<g id="a_node12"><a xlink:href="classsierra_1_1nalu_1_1_ngp_motion_kernel.html" target="_top" xlink:title=" ">
<polygon fill="white" stroke="black" points="553,-95.63 553,-125.63 714,-125.63 714,-95.63 553,-95.63"/>
<text text-anchor="start" x="561" y="-113.63" font-family="Helvetica,sans-Serif" font-size="10.00">sierra::nalu::NgpMotionKernel</text>
<text text-anchor="middle" x="633.5" y="-102.63" font-family="Helvetica,sans-Serif" font-size="10.00">&lt; MotionRotationKernel &gt;</text>
</a>
</g>
</g>
<!-- Node1&#45;&gt;Node12 -->
<g id="edge11" class="edge">
<title>Node1&#45;&gt;Node12</title>
<path fill="none" stroke="midnightblue" d="M82.69,-150.9C101.44,-132.59 134.12,-103.8 168,-88.63 253.77,-50.22 282.41,-59.11 376,-50.63 439.74,-44.85 457.91,-35.11 520,-50.63 554.57,-59.27 590.16,-80.78 611.8,-95.54"/>
<polygon fill="midnightblue" stroke="midnightblue" points="80.14,-148.5 75.54,-158.04 85.09,-153.45 80.14,-148.5"/>
</g>
<!-- Node14 -->
<g id="node14" class="node">
<title>Node14</title>
<g id="a_node14"><a xlink:href="classsierra_1_1nalu_1_1_ngp_motion_kernel.html" target="_top" xlink:title=" ">
<polygon fill="white" stroke="black" points="553,-144.63 553,-174.63 714,-174.63 714,-144.63 553,-144.63"/>
<text text-anchor="start" x="561" y="-162.63" font-family="Helvetica,sans-Serif" font-size="10.00">sierra::nalu::NgpMotionKernel</text>
<text text-anchor="middle" x="633.5" y="-151.63" font-family="Helvetica,sans-Serif" font-size="10.00">&lt; TurbineSurrogateKernel &gt;</text>
</a>
</g>
</g>
<!-- Node1&#45;&gt;Node14 -->
<g id="edge13" class="edge">
<title>Node1&#45;&gt;Node14</title>
<path fill="none" stroke="midnightblue" d="M92.03,-153.08C107.89,-144.84 128.99,-135.28 149,-130.63 309.64,-93.28 363.07,-71.89 520,-122.63 529.39,-125.67 529.06,-131.45 538,-135.63 545.28,-139.03 553.12,-142 561.05,-144.57"/>
<polygon fill="midnightblue" stroke="midnightblue" points="90.05,-150.17 82.89,-157.98 93.36,-156.34 90.05,-150.17"/>
</g>
<!-- Node16 -->
<g id="node16" class="node">
<title>Node16</title>
<g id="a_node16"><a xlink:href="classsierra_1_1nalu_1_1_ngp_motion_kernel.html" target="_top" xlink:title=" ">
<polygon fill="white" stroke="black" points="168,-192.13 168,-211.13 358,-211.13 358,-192.13 168,-192.13"/>
<text text-anchor="middle" x="263" y="-199.13" font-family="Helvetica,sans-Serif" font-size="10.00">sierra::nalu::NgpMotionKernel&lt; T &gt;</text>
</a>
</g>
</g>
<!-- Node1&#45;&gt;Node16 -->
<g id="edge15" class="edge">
<title>Node1&#45;&gt;Node16</title>
<path fill="none" stroke="midnightblue" d="M131.2,-178.88C155.85,-183.17 183.67,-188.01 207.3,-192.12"/>
<polygon fill="midnightblue" stroke="midnightblue" points="131.67,-175.41 121.22,-177.15 130.47,-182.31 131.67,-175.41"/>
</g>
<!-- Node3 -->
<g id="node3" class="node">
<title>Node3</title>
<g id="a_node3"><a xlink:href="classsierra_1_1nalu_1_1_motion_translation_kernel.html" target="_top" xlink:title=" ">
<polygon fill="white" stroke="black" points="766,-243.63 766,-273.63 930,-273.63 930,-243.63 766,-243.63"/>
<text text-anchor="start" x="774" y="-261.63" font-family="Helvetica,sans-Serif" font-size="10.00">sierra::nalu::MotionTranslation</text>
<text text-anchor="middle" x="848" y="-250.63" font-family="Helvetica,sans-Serif" font-size="10.00">Kernel</text>
</a>
</g>
</g>
<!-- Node2&#45;&gt;Node3 -->
<g id="edge2" class="edge">
<title>Node2&#45;&gt;Node3</title>
<path fill="none" stroke="midnightblue" d="M724.6,-258.63C738.26,-258.63 752.3,-258.63 765.76,-258.63"/>
<polygon fill="midnightblue" stroke="midnightblue" points="724.23,-255.13 714.23,-258.63 724.23,-262.13 724.23,-255.13"/>
</g>
<!-- Node5 -->
<g id="node5" class="node">
<title>Node5</title>
<g id="a_node5"><a xlink:href="classsierra_1_1nalu_1_1_motion_waves_kernel.html" target="_top" xlink:title=" ">
<polygon fill="white" stroke="black" points="776.5,-321.63 776.5,-351.63 919.5,-351.63 919.5,-321.63 776.5,-321.63"/>
<text text-anchor="start" x="784.5" y="-339.63" font-family="Helvetica,sans-Serif" font-size="10.00">sierra::nalu::MotionWaves</text>
<text text-anchor="middle" x="848" y="-328.63" font-family="Helvetica,sans-Serif" font-size="10.00">Kernel</text>
</a>
</g>
</g>
<!-- Node4&#45;&gt;Node5 -->
<g id="edge4" class="edge">
<title>Node4&#45;&gt;Node5</title>
<path fill="none" stroke="midnightblue" d="M724.36,-336.63C741.7,-336.63 759.63,-336.63 776.26,-336.63"/>
<polygon fill="midnightblue" stroke="midnightblue" points="724.23,-333.13 714.23,-336.63 724.23,-340.13 724.23,-333.13"/>
</g>
<!-- Node7 -->
<g id="node7" class="node">
<title>Node7</title>
<g id="a_node7"><a xlink:href="classsierra_1_1nalu_1_1_motion_scaling_kernel.html" target="_top" xlink:title=" ">
<polygon fill="white" stroke="black" points="775,-385.63 775,-415.63 921,-415.63 921,-385.63 775,-385.63"/>
<text text-anchor="start" x="783" y="-403.63" font-family="Helvetica,sans-Serif" font-size="10.00">sierra::nalu::MotionScaling</text>
<text text-anchor="middle" x="848" y="-392.63" font-family="Helvetica,sans-Serif" font-size="10.00">Kernel</text>
</a>
</g>
</g>
<!-- Node6&#45;&gt;Node7 -->
<g id="edge6" class="edge">
<title>Node6&#45;&gt;Node7</title>
<path fill="none" stroke="midnightblue" d="M724.6,-400.63C741.38,-400.63 758.72,-400.63 774.88,-400.63"/>
<polygon fill="midnightblue" stroke="midnightblue" points="724.23,-397.13 714.23,-400.63 724.23,-404.13 724.23,-397.13"/>
</g>
<!-- Node9 -->
<g id="node9" class="node">
<title>Node9</title>
<g id="a_node9"><a xlink:href="classsierra_1_1nalu_1_1_motion_oscillation_kernel.html" target="_top" xlink:title=" ">
<polygon fill="white" stroke="black" points="766.5,-9.63 766.5,-39.63 929.5,-39.63 929.5,-9.63 766.5,-9.63"/>
<text text-anchor="start" x="774.5" y="-27.63" font-family="Helvetica,sans-Serif" font-size="10.00">sierra::nalu::MotionOscillation</text>
<text text-anchor="middle" x="848" y="-16.63" font-family="Helvetica,sans-Serif" font-size="10.00">Kernel</text>
</a>
</g>
</g>
<!-- Node8&#45;&gt;Node9 -->
<g id="edge8" class="edge">
<title>Node8&#45;&gt;Node9</title>
<path fill="none" stroke="midnightblue" d="M724.33,-24.63C738.32,-24.63 752.7,-24.63 766.47,-24.63"/>
<polygon fill="midnightblue" stroke="midnightblue" points="724.23,-21.13 714.23,-24.63 724.23,-28.13 724.23,-21.13"/>
</g>
<!-- Node11 -->
<g id="node11" class="node">
<title>Node11</title>
<g id="a_node11"><a xlink:href="classsierra_1_1nalu_1_1_motion_deforming_interior_kernel.html" target="_top" xlink:title=" ">
<polygon fill="white" stroke="black" points="766.5,-193.63 766.5,-223.63 929.5,-223.63 929.5,-193.63 766.5,-193.63"/>
<text text-anchor="start" x="774.5" y="-211.63" font-family="Helvetica,sans-Serif" font-size="10.00">sierra::nalu::MotionDeforming</text>
<text text-anchor="middle" x="848" y="-200.63" font-family="Helvetica,sans-Serif" font-size="10.00">InteriorKernel</text>
</a>
</g>
</g>
<!-- Node10&#45;&gt;Node11 -->
<g id="edge10" class="edge">
<title>Node10&#45;&gt;Node11</title>
<path fill="none" stroke="midnightblue" d="M739.45,-208.63C748.51,-208.63 757.57,-208.63 766.39,-208.63"/>
<polygon fill="midnightblue" stroke="midnightblue" points="739.25,-205.13 729.25,-208.63 739.25,-212.13 739.25,-205.13"/>
</g>
<!-- Node13 -->
<g id="node13" class="node">
<title>Node13</title>
<g id="a_node13"><a xlink:href="classsierra_1_1nalu_1_1_motion_rotation_kernel.html" target="_top" xlink:title=" ">
<polygon fill="white" stroke="black" points="772,-95.63 772,-125.63 924,-125.63 924,-95.63 772,-95.63"/>
<text text-anchor="start" x="780" y="-113.63" font-family="Helvetica,sans-Serif" font-size="10.00">sierra::nalu::MotionRotation</text>
<text text-anchor="middle" x="848" y="-102.63" font-family="Helvetica,sans-Serif" font-size="10.00">Kernel</text>
</a>
</g>
</g>
<!-- Node12&#45;&gt;Node13 -->
<g id="edge12" class="edge">
<title>Node12&#45;&gt;Node13</title>
<path fill="none" stroke="midnightblue" d="M724.49,-110.63C740.23,-110.63 756.46,-110.63 771.74,-110.63"/>
<polygon fill="midnightblue" stroke="midnightblue" points="724.23,-107.13 714.23,-110.63 724.23,-114.13 724.23,-107.13"/>
</g>
<!-- Node15 -->
<g id="node15" class="node">
<title>Node15</title>
<g id="a_node15"><a xlink:href="classsierra_1_1nalu_1_1_turbine_surrogate_kernel.html" target="_top" xlink:title=" ">
<polygon fill="white" stroke="black" points="768,-144.63 768,-174.63 928,-174.63 928,-144.63 768,-144.63"/>
<text text-anchor="start" x="776" y="-162.63" font-family="Helvetica,sans-Serif" font-size="10.00">sierra::nalu::TurbineSurrogate</text>
<text text-anchor="middle" x="848" y="-151.63" font-family="Helvetica,sans-Serif" font-size="10.00">Kernel</text>
</a>
</g>
</g>
<!-- Node14&#45;&gt;Node15 -->
<g id="edge14" class="edge">
<title>Node14&#45;&gt;Node15</title>
<path fill="none" stroke="midnightblue" d="M724.62,-159.63C739,-159.63 753.78,-159.63 767.88,-159.63"/>
<polygon fill="midnightblue" stroke="midnightblue" points="724.23,-156.13 714.23,-159.63 724.23,-163.13 724.23,-156.13"/>
</g>
<!-- Node16&#45;&gt;Node2 -->
<g id="edge16" class="edge">
<title>Node16&#45;&gt;Node2</title>
<path fill="none" stroke="orange" stroke-dasharray="5,2" d="M304.23,-214.05C325.41,-220.16 351.91,-227.16 376,-231.63 434.78,-242.52 502,-249.4 552.89,-253.48"/>
<polygon fill="orange" stroke="orange" points="305.18,-210.68 294.6,-211.22 303.21,-217.39 305.18,-210.68"/>
<text text-anchor="middle" x="448" y="-252.63" font-family="Helvetica,sans-Serif" font-size="10.00"> &lt; MotionTranslationKernel &gt;</text>
</g>
<!-- Node16&#45;&gt;Node4 -->
<g id="edge17" class="edge">
<title>Node16&#45;&gt;Node4</title>
<path fill="none" stroke="orange" stroke-dasharray="5,2" d="M286.94,-216.69C309.02,-230.66 343.72,-251.25 376,-264.63 436.88,-289.87 509.46,-309.32 561.85,-321.61"/>
<polygon fill="orange" stroke="orange" points="288.6,-213.6 278.29,-211.15 284.82,-219.49 288.6,-213.6"/>
<text text-anchor="middle" x="448" y="-311.63" font-family="Helvetica,sans-Serif" font-size="10.00"> &lt; MotionWavesKernel &gt;</text>
</g>
<!-- Node16&#45;&gt;Node6 -->
<g id="edge18" class="edge">
<title>Node16&#45;&gt;Node6</title>
<path fill="none" stroke="orange" stroke-dasharray="5,2" d="M275.67,-219.53C293.93,-246.12 331.76,-295.9 376,-323.63 429.97,-357.46 499.64,-377.13 552.74,-388.11"/>
<polygon fill="orange" stroke="orange" points="278.54,-217.52 270.05,-211.17 272.72,-221.42 278.54,-217.52"/>
<text text-anchor="middle" x="448" y="-382.63" font-family="Helvetica,sans-Serif" font-size="10.00"> &lt; MotionScalingKernel &gt;</text>
</g>
<!-- Node16&#45;&gt;Node8 -->
<g id="edge19" class="edge">
<title>Node16&#45;&gt;Node8</title>
<path fill="none" stroke="orange" stroke-dasharray="5,2" d="M281.02,-184.71C301.85,-164.83 338.93,-131.97 376,-111.63 437.73,-77.75 515.01,-53.74 568.52,-39.64"/>
<polygon fill="orange" stroke="orange" points="278.37,-182.41 273.63,-191.89 283.24,-187.44 278.37,-182.41"/>
<text text-anchor="middle" x="448" y="-114.63" font-family="Helvetica,sans-Serif" font-size="10.00"> &lt; MotionOscillationKernel &gt;</text>
</g>
<!-- Node16&#45;&gt;Node10 -->
<g id="edge20" class="edge">
<title>Node16&#45;&gt;Node10</title>
<path fill="none" stroke="orange" stroke-dasharray="5,2" d="M368.56,-203.62C421.76,-204.63 485.94,-205.85 537.69,-206.83"/>
<polygon fill="orange" stroke="orange" points="368.48,-200.11 358.42,-203.42 368.35,-207.11 368.48,-200.11"/>
<text text-anchor="start" x="380" y="-219.63" font-family="Helvetica,sans-Serif" font-size="10.00"> &lt; MotionDeformingInterior</text>
<text text-anchor="middle" x="448" y="-208.63" font-family="Helvetica,sans-Serif" font-size="10.00">Kernel &gt;</text>
</g>
<!-- Node16&#45;&gt;Node12 -->
<g id="edge21" class="edge">
<title>Node16&#45;&gt;Node12</title>
<path fill="none" stroke="orange" stroke-dasharray="5,2" d="M293.88,-188.06C316.14,-178.41 347.47,-165.76 376,-157.63 434.23,-141.02 501.63,-128.94 552.72,-121.19"/>
<polygon fill="orange" stroke="orange" points="292.38,-184.9 284.64,-192.12 295.2,-191.3 292.38,-184.9"/>
<text text-anchor="middle" x="448" y="-160.63" font-family="Helvetica,sans-Serif" font-size="10.00"> &lt; MotionRotationKernel &gt;</text>
</g>
<!-- Node16&#45;&gt;Node14 -->
<g id="edge22" class="edge">
<title>Node16&#45;&gt;Node14</title>
<path fill="none" stroke="orange" stroke-dasharray="5,2" d="M355.72,-190.96C362.58,-190.17 369.4,-189.39 376,-188.63 435.22,-181.84 502.14,-174.28 552.77,-168.58"/>
<polygon fill="orange" stroke="orange" points="355.19,-187.5 345.66,-192.12 355.99,-194.45 355.19,-187.5"/>
<text text-anchor="middle" x="448" y="-191.63" font-family="Helvetica,sans-Serif" font-size="10.00"> &lt; TurbineSurrogateKernel &gt;</text>
</g>
</g>
</svg>
        <g id="navigator" transform="translate(0 0)" fill="#404254">
                <rect fill="#f2f5e9" fill-opacity="0.5" stroke="#606060" stroke-width=".5" x="0" y="0" width="60" height="60"/>
                <use id="zoomplus" xlink:href="#zoomPlus" x="17" y="9" onmousedown="handleZoom(evt,'in')"/>
                <use id="zoomminus" xlink:href="#zoomMin" x="42" y="9" onmousedown="handleZoom(evt,'out')"/>
                <use id="reset" xlink:href="#resetDef" x="30" y="36" onmousedown="handleReset()"/>
                <g id="arrowUp" xlink:href="#dirArrow" transform="translate(30 24)" onmousedown="handlePan(0,-1)">
                  <use xlink:href="#rim" fill="#404040">
                        <set attributeName="fill" to="#808080" begin="arrowUp.mouseover" end="arrowUp.mouseout"/>
                  </use>
                  <path fill="none" stroke="white" stroke-width="1.5" d="M0,-3.0v7 M-2.5,-0.5L0,-3.0L2.5,-0.5"/>
                </g>
                <g id="arrowRight" xlink:href="#dirArrow" transform="rotate(90) translate(36 -43)" onmousedown="handlePan(1,0)">
                  <use xlink:href="#rim" fill="#404040">
                        <set attributeName="fill" to="#808080" begin="arrowRight.mouseover" end="arrowRight.mouseout"/>
                  </use>
                  <path fill="none" stroke="white" stroke-width="1.5" d="M0,-3.0v7 M-2.5,-0.5L0,-3.0L2.5,-0.5"/>
                </g>
                <g id="arrowDown" xlink:href="#dirArrow" transform="rotate(180) translate(-30 -48)" onmousedown="handlePan(0,1)">
                  <use xlink:href="#rim" fill="#404040">
                        <set attributeName="fill" to="#808080" begin="arrowDown.mouseover" end="arrowDown.mouseout"/>
                  </use>
                  <path fill="none" stroke="white" stroke-width="1.5" d="M0,-3.0v7 M-2.5,-0.5L0,-3.0L2.5,-0.5"/>
                </g>
                <g id="arrowLeft" xlink:href="#dirArrow" transform="rotate(270) translate(-36 17)" onmousedown="handlePan(-1,0)">
                  <use xlink:href="#rim" fill="#404040">
                        <set attributeName="fill" to="#808080" begin="arrowLeft.mouseover" end="arrowLeft.mouseout"/>
                  </use>
                  <path fill="none" stroke="white" stroke-width="1.5" d="M0,-3.0v7 M-2.5,-0.5L0,-3.0L2.5,-0.5"/>
                </g>
        </g>
        <svg viewBox="0 0 15 15" width="100%" height="30px" preserveAspectRatio="xMaxYMin meet">
         <g id="arrow_out" transform="scale(0.3 0.3)">
          <a xlink:href="classsierra_1_1nalu_1_1_ngp_motion__inherit__graph_org.svg" target="_base">
           <rect id="button" ry="5" rx="5" y="6" x="6" height="38" width="38"
                fill="#f2f5e9" fill-opacity="0.5" stroke="#606060" stroke-width="1.0"/>
           <path id="arrow"
             d="M 11.500037,31.436501 C 11.940474,20.09759 22.043105,11.32322 32.158766,21.979434 L 37.068811,17.246167 C 37.068811,17.246167 37.088388,32 37.088388,32 L 22.160133,31.978069 C 22.160133,31.978069 26.997745,27.140456 26.997745,27.140456 C 18.528582,18.264221 13.291696,25.230495 11.500037,31.436501 z"
             style="fill:#404040;"/>
          </a>
         </g>
        </svg>
</svg>
