<?xml version="1.0" encoding="UTF-8" standalone="no"?>
<!DOCTYPE svg PUBLIC "-//W3C//DTD SVG 1.1//EN"
 "http://www.w3.org/Graphics/SVG/1.1/DTD/svg11.dtd">
<!-- Generated by graphviz version 2.43.0 (0)
 -->
<!-- Title: Graphical Class Hierarchy Pages: 1 -->
<svg width="566pt" height="372pt"
 viewBox="0.00 0.00 566.00 371.50" xmlns="http://www.w3.org/2000/svg" xmlns:xlink="http://www.w3.org/1999/xlink">
<g id="graph0" class="graph" transform="scale(1 1) rotate(0) translate(4 367.5)">
<title>Graphical Class Hierarchy</title>
<polygon fill="white" stroke="transparent" points="-4,4 -4,-367.5 562,-367.5 562,4 -4,4"/>
<!-- Node0 -->
<g id="node1" class="node">
<title>Node0</title>
<g id="a_node1"><a xlink:href="classsierra_1_1nalu_1_1_ngp_motion.html" target="_top" xlink:title=" ">
<polygon fill="white" stroke="black" points="0,-166.5 0,-185.5 131,-185.5 131,-166.5 0,-166.5"/>
<text text-anchor="middle" x="65.5" y="-173.5" font-family="Helvetica,sans-Serif" font-size="10.00">sierra::nalu::NgpMotion</text>
</a>
</g>
</g>
<!-- Node1 -->
<g id="node2" class="node">
<title>Node1</title>
<g id="a_node2"><a xlink:href="classsierra_1_1nalu_1_1_ngp_motion_kernel.html" target="_top" xlink:title=" ">
<polygon fill="white" stroke="black" points="182,-333 182,-363 343,-363 343,-333 182,-333"/>
<text text-anchor="start" x="190" y="-351" font-family="Helvetica,sans-Serif" font-size="10.00">sierra::nalu::NgpMotionKernel</text>
<text text-anchor="middle" x="262.5" y="-340" font-family="Helvetica,sans-Serif" font-size="10.00">&lt; MotionTranslationKernel &gt;</text>
</a>
</g>
</g>
<!-- Node0&#45;&gt;Node1 -->
<g id="edge1" class="edge">
<title>Node0&#45;&gt;Node1</title>
<path fill="none" stroke="midnightblue" d="M74.13,-195.26C87.78,-227.14 119.48,-290.68 167,-324 171.85,-327.4 177.14,-330.32 182.66,-332.83"/>
<polygon fill="midnightblue" stroke="midnightblue" points="77.25,-193.65 70.2,-185.75 70.78,-196.33 77.25,-193.65"/>
</g>
<!-- Node3 -->
<g id="node4" class="node">
<title>Node3</title>
<g id="a_node4"><a xlink:href="classsierra_1_1nalu_1_1_ngp_motion_kernel.html" target="_top" xlink:title=" ">
<polygon fill="white" stroke="black" points="182,-284 182,-314 343,-314 343,-284 182,-284"/>
<text text-anchor="start" x="190" y="-302" font-family="Helvetica,sans-Serif" font-size="10.00">sierra::nalu::NgpMotionKernel</text>
<text text-anchor="middle" x="262.5" y="-291" font-family="Helvetica,sans-Serif" font-size="10.00">&lt; MotionWavesKernel &gt;</text>
</a>
</g>
</g>
<!-- Node0&#45;&gt;Node3 -->
<g id="edge3" class="edge">
<title>Node0&#45;&gt;Node3</title>
<path fill="none" stroke="midnightblue" d="M79.43,-193.56C96.82,-215.9 129.89,-254.08 167,-275 173.05,-278.41 179.58,-281.34 186.29,-283.86"/>
<polygon fill="midnightblue" stroke="midnightblue" points="82.2,-191.42 73.36,-185.58 76.63,-195.65 82.2,-191.42"/>
</g>
<!-- Node5 -->
<g id="node6" class="node">
<title>Node5</title>
<g id="a_node6"><a xlink:href="classsierra_1_1nalu_1_1_ngp_motion_kernel.html" target="_top" xlink:title=" ">
<polygon fill="white" stroke="black" points="182,-235 182,-265 343,-265 343,-235 182,-235"/>
<text text-anchor="start" x="190" y="-253" font-family="Helvetica,sans-Serif" font-size="10.00">sierra::nalu::NgpMotionKernel</text>
<text text-anchor="middle" x="262.5" y="-242" font-family="Helvetica,sans-Serif" font-size="10.00">&lt; MotionScalingKernel &gt;</text>
</a>
</g>
</g>
<!-- Node0&#45;&gt;Node5 -->
<g id="edge5" class="edge">
<title>Node0&#45;&gt;Node5</title>
<path fill="none" stroke="midnightblue" d="M91.84,-190.5C111.77,-201.43 140.5,-216.17 167,-226 175.89,-229.3 185.41,-232.3 194.86,-234.98"/>
<polygon fill="midnightblue" stroke="midnightblue" points="93.52,-187.43 83.08,-185.63 90.12,-193.55 93.52,-187.43"/>
</g>
<!-- Node7 -->
<g id="node8" class="node">
<title>Node7</title>
<g id="a_node8"><a xlink:href="classsierra_1_1nalu_1_1_ngp_motion_kernel.html" target="_top" xlink:title=" ">
<polygon fill="white" stroke="black" points="182,-186 182,-216 343,-216 343,-186 182,-186"/>
<text text-anchor="start" x="190" y="-204" font-family="Helvetica,sans-Serif" font-size="10.00">sierra::nalu::NgpMotionKernel</text>
<text text-anchor="middle" x="262.5" y="-193" font-family="Helvetica,sans-Serif" font-size="10.00">&lt; MotionOscillationKernel &gt;</text>
</a>
</g>
</g>
<!-- Node0&#45;&gt;Node7 -->
<g id="edge7" class="edge">
<title>Node0&#45;&gt;Node7</title>
<path fill="none" stroke="midnightblue" d="M141.18,-185.57C154.45,-187.28 168.32,-189.05 181.73,-190.77"/>
<polygon fill="midnightblue" stroke="midnightblue" points="141.53,-182.09 131.16,-184.29 140.64,-189.03 141.53,-182.09"/>
</g>
<!-- Node9 -->
<g id="node10" class="node">
<title>Node9</title>
<g id="a_node10"><a xlink:href="classsierra_1_1nalu_1_1_ngp_motion_kernel.html" target="_top" xlink:title=" ">
<polygon fill="white" stroke="black" points="167,-137 167,-167 358,-167 358,-137 167,-137"/>
<text text-anchor="start" x="175" y="-155" font-family="Helvetica,sans-Serif" font-size="10.00">sierra::nalu::NgpMotionKernel</text>
<text text-anchor="middle" x="262.5" y="-144" font-family="Helvetica,sans-Serif" font-size="10.00">&lt; MotionDeformingInteriorKernel &gt;</text>
</a>
</g>
</g>
<!-- Node0&#45;&gt;Node9 -->
<g id="edge9" class="edge">
<title>Node0&#45;&gt;Node9</title>
<path fill="none" stroke="midnightblue" d="M141.22,-166.8C149.57,-165.78 158.16,-164.72 166.72,-163.66"/>
<polygon fill="midnightblue" stroke="midnightblue" points="140.66,-163.35 131.16,-168.04 141.51,-170.29 140.66,-163.35"/>
</g>
<!-- Node11 -->
<g id="node12" class="node">
<title>Node11</title>
<g id="a_node12"><a xlink:href="classsierra_1_1nalu_1_1_ngp_motion_kernel.html" target="_top" xlink:title=" ">
<polygon fill="white" stroke="black" points="182,-88 182,-118 343,-118 343,-88 182,-88"/>
<text text-anchor="start" x="190" y="-106" font-family="Helvetica,sans-Serif" font-size="10.00">sierra::nalu::NgpMotionKernel</text>
<text text-anchor="middle" x="262.5" y="-95" font-family="Helvetica,sans-Serif" font-size="10.00">&lt; MotionRotationKernel &gt;</text>
</a>
</g>
</g>
<!-- Node0&#45;&gt;Node11 -->
<g id="edge11" class="edge">
<title>Node0&#45;&gt;Node11</title>
<path fill="none" stroke="midnightblue" d="M92.93,-161.7C112.86,-151.33 141.11,-137.51 167,-128 176.88,-124.37 187.51,-121.03 197.96,-118.06"/>
<polygon fill="midnightblue" stroke="midnightblue" points="91.07,-158.72 83.86,-166.48 94.34,-164.91 91.07,-158.72"/>
</g>
<!-- Node13 -->
<g id="node14" class="node">
<title>Node13</title>
<g id="a_node14"><a xlink:href="classsierra_1_1nalu_1_1_ngp_motion_kernel.html" target="_top" xlink:title=" ">
<polygon fill="white" stroke="black" points="182,-39 182,-69 343,-69 343,-39 182,-39"/>
<text text-anchor="start" x="190" y="-57" font-family="Helvetica,sans-Serif" font-size="10.00">sierra::nalu::NgpMotionKernel</text>
<text text-anchor="middle" x="262.5" y="-46" font-family="Helvetica,sans-Serif" font-size="10.00">&lt; TurbineSurrogateKernel &gt;</text>
</a>
</g>
</g>
<!-- Node0&#45;&gt;Node13 -->
<g id="edge13" class="edge">
<title>Node0&#45;&gt;Node13</title>
<path fill="none" stroke="midnightblue" d="M79.73,-158.29C97.24,-136.13 130.21,-98.61 167,-78 173.05,-74.61 179.59,-71.69 186.31,-69.17"/>
<polygon fill="midnightblue" stroke="midnightblue" points="76.95,-156.17 73.61,-166.22 82.49,-160.45 76.95,-156.17"/>
</g>
<!-- Node15 -->
<g id="node16" class="node">
<title>Node15</title>
<g id="a_node16"><a xlink:href="classsierra_1_1nalu_1_1_ngp_motion_kernel.html" target="_top" xlink:title=" ">
<polygon fill="white" stroke="black" points="167.5,-0.5 167.5,-19.5 357.5,-19.5 357.5,-0.5 167.5,-0.5"/>
<text text-anchor="middle" x="262.5" y="-7.5" font-family="Helvetica,sans-Serif" font-size="10.00">sierra::nalu::NgpMotionKernel&lt; T &gt;</text>
</a>
</g>
</g>
<!-- Node0&#45;&gt;Node15 -->
<g id="edge15" class="edge">
<title>Node0&#45;&gt;Node15</title>
<path fill="none" stroke="midnightblue" d="M73.99,-156.61C87.43,-124.55 118.83,-60.89 167,-29 172.86,-25.12 179.34,-22 186.08,-19.5"/>
<polygon fill="midnightblue" stroke="midnightblue" points="70.62,-155.59 70.12,-166.18 77.11,-158.22 70.62,-155.59"/>
</g>
<!-- Node2 -->
<g id="node3" class="node">
<title>Node2</title>
<g id="a_node3"><a xlink:href="classsierra_1_1nalu_1_1_motion_translation_kernel.html" target="_top" xlink:title=" ">
<polygon fill="white" stroke="black" points="394,-333 394,-363 558,-363 558,-333 394,-333"/>
<text text-anchor="start" x="402" y="-351" font-family="Helvetica,sans-Serif" font-size="10.00">sierra::nalu::MotionTranslation</text>
<text text-anchor="middle" x="476" y="-340" font-family="Helvetica,sans-Serif" font-size="10.00">Kernel</text>
</a>
</g>
</g>
<!-- Node1&#45;&gt;Node2 -->
<g id="edge2" class="edge">
<title>Node1&#45;&gt;Node2</title>
<path fill="none" stroke="midnightblue" d="M353.32,-348C366.71,-348 380.45,-348 393.65,-348"/>
<polygon fill="midnightblue" stroke="midnightblue" points="353.16,-344.5 343.16,-348 353.16,-351.5 353.16,-344.5"/>
</g>
<!-- Node4 -->
<g id="node5" class="node">
<title>Node4</title>
<g id="a_node5"><a xlink:href="classsierra_1_1nalu_1_1_motion_waves_kernel.html" target="_top" xlink:title=" ">
<polygon fill="white" stroke="black" points="404.5,-284 404.5,-314 547.5,-314 547.5,-284 404.5,-284"/>
<text text-anchor="start" x="412.5" y="-302" font-family="Helvetica,sans-Serif" font-size="10.00">sierra::nalu::MotionWaves</text>
<text text-anchor="middle" x="476" y="-291" font-family="Helvetica,sans-Serif" font-size="10.00">Kernel</text>
</a>
</g>
</g>
<!-- Node3&#45;&gt;Node4 -->
<g id="edge4" class="edge">
<title>Node3&#45;&gt;Node4</title>
<path fill="none" stroke="midnightblue" d="M353.17,-299C370.3,-299 388.01,-299 404.44,-299"/>
<polygon fill="midnightblue" stroke="midnightblue" points="353.16,-295.5 343.16,-299 353.16,-302.5 353.16,-295.5"/>
</g>
<!-- Node6 -->
<g id="node7" class="node">
<title>Node6</title>
<g id="a_node7"><a xlink:href="classsierra_1_1nalu_1_1_motion_scaling_kernel.html" target="_top" xlink:title=" ">
<polygon fill="white" stroke="black" points="403,-235 403,-265 549,-265 549,-235 403,-235"/>
<text text-anchor="start" x="411" y="-253" font-family="Helvetica,sans-Serif" font-size="10.00">sierra::nalu::MotionScaling</text>
<text text-anchor="middle" x="476" y="-242" font-family="Helvetica,sans-Serif" font-size="10.00">Kernel</text>
</a>
</g>
</g>
<!-- Node5&#45;&gt;Node6 -->
<g id="edge6" class="edge">
<title>Node5&#45;&gt;Node6</title>
<path fill="none" stroke="midnightblue" d="M353.34,-250C369.82,-250 386.84,-250 402.72,-250"/>
<polygon fill="midnightblue" stroke="midnightblue" points="353.16,-246.5 343.16,-250 353.16,-253.5 353.16,-246.5"/>
</g>
<!-- Node8 -->
<g id="node9" class="node">
<title>Node8</title>
<g id="a_node9"><a xlink:href="classsierra_1_1nalu_1_1_motion_oscillation_kernel.html" target="_top" xlink:title=" ">
<polygon fill="white" stroke="black" points="394.5,-186 394.5,-216 557.5,-216 557.5,-186 394.5,-186"/>
<text text-anchor="start" x="402.5" y="-204" font-family="Helvetica,sans-Serif" font-size="10.00">sierra::nalu::MotionOscillation</text>
<text text-anchor="middle" x="476" y="-193" font-family="Helvetica,sans-Serif" font-size="10.00">Kernel</text>
</a>
</g>
</g>
<!-- Node7&#45;&gt;Node8 -->
<g id="edge8" class="edge">
<title>Node7&#45;&gt;Node8</title>
<path fill="none" stroke="midnightblue" d="M353.46,-201C367.05,-201 380.99,-201 394.36,-201"/>
<polygon fill="midnightblue" stroke="midnightblue" points="353.16,-197.5 343.16,-201 353.16,-204.5 353.16,-197.5"/>
</g>
<!-- Node10 -->
<g id="node11" class="node">
<title>Node10</title>
<g id="a_node11"><a xlink:href="classsierra_1_1nalu_1_1_motion_deforming_interior_kernel.html" target="_top" xlink:title=" ">
<polygon fill="white" stroke="black" points="394.5,-137 394.5,-167 557.5,-167 557.5,-137 394.5,-137"/>
<text text-anchor="start" x="402.5" y="-155" font-family="Helvetica,sans-Serif" font-size="10.00">sierra::nalu::MotionDeforming</text>
<text text-anchor="middle" x="476" y="-144" font-family="Helvetica,sans-Serif" font-size="10.00">InteriorKernel</text>
</a>
</g>
</g>
<!-- Node9&#45;&gt;Node10 -->
<g id="edge10" class="edge">
<title>Node9&#45;&gt;Node10</title>
<path fill="none" stroke="midnightblue" d="M368.36,-152C377.09,-152 385.84,-152 394.36,-152"/>
<polygon fill="midnightblue" stroke="midnightblue" points="368.12,-148.5 358.12,-152 368.12,-155.5 368.12,-148.5"/>
</g>
<!-- Node12 -->
<g id="node13" class="node">
<title>Node12</title>
<g id="a_node13"><a xlink:href="classsierra_1_1nalu_1_1_motion_rotation_kernel.html" target="_top" xlink:title=" ">
<polygon fill="white" stroke="black" points="400,-88 400,-118 552,-118 552,-88 400,-88"/>
<text text-anchor="start" x="408" y="-106" font-family="Helvetica,sans-Serif" font-size="10.00">sierra::nalu::MotionRotation</text>
<text text-anchor="middle" x="476" y="-95" font-family="Helvetica,sans-Serif" font-size="10.00">Kernel</text>
</a>
</g>
</g>
<!-- Node11&#45;&gt;Node12 -->
<g id="edge12" class="edge">
<title>Node11&#45;&gt;Node12</title>
<path fill="none" stroke="midnightblue" d="M353.29,-103C368.84,-103 384.85,-103 399.96,-103"/>
<polygon fill="midnightblue" stroke="midnightblue" points="353.16,-99.5 343.16,-103 353.16,-106.5 353.16,-99.5"/>
</g>
<!-- Node14 -->
<g id="node15" class="node">
<title>Node14</title>
<g id="a_node15"><a xlink:href="classsierra_1_1nalu_1_1_turbine_surrogate_kernel.html" target="_top" xlink:title=" ">
<polygon fill="white" stroke="black" points="396,-39 396,-69 556,-69 556,-39 396,-39"/>
<text text-anchor="start" x="404" y="-57" font-family="Helvetica,sans-Serif" font-size="10.00">sierra::nalu::TurbineSurrogate</text>
<text text-anchor="middle" x="476" y="-46" font-family="Helvetica,sans-Serif" font-size="10.00">Kernel</text>
</a>
</g>
</g>
<!-- Node13&#45;&gt;Node14 -->
<g id="edge14" class="edge">
<title>Node13&#45;&gt;Node14</title>
<path fill="none" stroke="midnightblue" d="M353.34,-54C367.44,-54 381.93,-54 395.77,-54"/>
<polygon fill="midnightblue" stroke="midnightblue" points="353.16,-50.5 343.16,-54 353.16,-57.5 353.16,-50.5"/>
</g>
</g>
</svg>
